<ttFont>
    <TTGlyph name="A" xMin="10" yMin="0" xMax="1385" yMax="1414">
      <contour>
        <pt x="1385" y="0" on="1"/>
        <pt x="851" y="0" on="1"/>
        <pt x="785" y="301" on="1"/>
        <pt x="434" y="301" on="1"/>
        <pt x="371" y="0" on="1"/>
        <pt x="10" y="0" on="1"/>
        <pt x="370" y="1414" on="1"/>
        <pt x="996" y="1414" on="1"/>
      </contour>
      <contour>
        <pt x="614" y="1194" on="1"/>
        <pt x="477" y="535" on="1"/>
        <pt x="763" y="535" on="1"/>
        <pt x="645" y="1194" on="1"/>
      </contour>
    </TTGlyph>
    <TTGlyph name="AE" xMin="10" yMin="0" xMax="1935" yMax="1414">
      <contour>
        <pt x="1935" y="0" on="1"/>
        <pt x="850" y="0" on="1"/>
        <pt x="827" y="301" on="1"/>
        <pt x="476" y="301" on="1"/>
        <pt x="370" y="0" on="1"/>
        <pt x="10" y="0" on="1"/>
        <pt x="570" y="1414" on="1"/>
        <pt x="1732" y="1414" on="1"/>
        <pt x="1770" y="1152" on="1"/>
        <pt x="1231" y="1152" on="1"/>
        <pt x="1270" y="853" on="1"/>
        <pt x="1748" y="853" on="1"/>
        <pt x="1786" y="597" on="1"/>
        <pt x="1306" y="597" on="1"/>
        <pt x="1350" y="288" on="1"/>
        <pt x="1894" y="288" on="1"/>
      </contour>
      <contour>
        <pt x="783" y="1194" on="1"/>
        <pt x="552" y="535" on="1"/>
        <pt x="838" y="535" on="1"/>
        <pt x="814" y="1194" on="1"/>
      </contour>
    </TTGlyph>
    <TTGlyph name="Aacute" xMin="10" yMin="0" xMax="1385" yMax="2171">
      <component glyphName="A" x="0" y="0" flags="0x1204"/>
      <component glyphName="acute" x="95" y="318" flags="0x1004"/>
    </TTGlyph>
    <TTGlyph name="Abreve" xMin="10" yMin="0" xMax="1385" yMax="1909">
      <component glyphName="A" x="0" y="0" flags="0x1204"/>
      <component glyphName="breve" x="165" y="373" flags="0x1004"/>
    </TTGlyph>
    <TTGlyph name="Acircumflex" xMin="10" yMin="0" xMax="1385" yMax="2124">
      <component glyphName="A" x="0" y="0" flags="0x1204"/>
      <component glyphName="circumflex" x="124" y="332" flags="0x1004"/>
    </TTGlyph>
    <TTGlyph name="Adieresis" xMin="10" yMin="0" xMax="1385" yMax="1973">
      <component glyphName="A" x="0" y="0" flags="0x1204"/>
      <component glyphName="dieresis" x="19" y="373" flags="0x1004"/>
    </TTGlyph>
    <TTGlyph name="Agrave" xMin="10" yMin="0" xMax="1385" yMax="2226">
      <component glyphName="A" x="0" y="0" flags="0x1204"/>
      <component glyphName="grave" x="95" y="373" flags="0x1004"/>
    </TTGlyph>
    <TTGlyph name="Aogonek" xMin="10" yMin="-672" xMax="1385" yMax="1414">
      <component glyphName="A" x="0" y="0" flags="0x1004"/>
      <component glyphName="ogonek" x="455" y="0" flags="0x1004"/>
    </TTGlyph>
    <TTGlyph name="Aring" xMin="10" yMin="0" xMax="1385" yMax="1973">
      <component glyphName="A" x="0" y="0" flags="0x1204"/>
      <component glyphName="ring" x="266" y="373" flags="0x1004"/>
    </TTGlyph>
    <TTGlyph name="Atilde" xMin="10" yMin="0" xMax="1385" yMax="2049">
      <component glyphName="A" x="0" y="0" flags="0x1204"/>
      <component glyphName="tilde" x="19" y="373" flags="0x1004"/>
    </TTGlyph>
    <TTGlyph name="B" xMin="170" yMin="0" xMax="1418" yMax="1414">
      <contour>
        <pt x="170" y="1414" on="1"/>
        <pt x="646" y="1414" on="1"/>
        <pt x="708" y="1414" on="0"/>
        <pt x="857" y="1405" on="0"/>
        <pt x="1007" y="1378" on="0"/>
        <pt x="1147" y="1329" on="0"/>
        <pt x="1256" y="1250" on="0"/>
        <pt x="1321" y="1135" on="0"/>
        <pt x="1321" y="1056" on="1"/>
        <pt x="1321" y="1009" on="0"/>
        <pt x="1299" y="916" on="0"/>
        <pt x="1242" y="838" on="0"/>
        <pt x="1143" y="780" on="0"/>
        <pt x="1066" y="768" on="1"/>
        <pt x="1150" y="763" on="0"/>
        <pt x="1281" y="696" on="0"/>
        <pt x="1371" y="596" on="0"/>
        <pt x="1418" y="475" on="0"/>
        <pt x="1418" y="416" on="1"/>
        <pt x="1418" y="337" on="0"/>
        <pt x="1354" y="188" on="0"/>
        <pt x="1203" y="71" on="0"/>
        <pt x="955" y="0" on="0"/>
        <pt x="771" y="0" on="1"/>
        <pt x="170" y="0" on="1"/>
      </contour>
      <contour>
        <pt x="618" y="256" on="1"/>
        <pt x="799" y="256" on="1"/>
        <pt x="885" y="256" on="0"/>
        <pt x="970" y="345" on="0"/>
        <pt x="970" y="416" on="1"/>
        <pt x="970" y="458" on="0"/>
        <pt x="941" y="518" on="0"/>
        <pt x="863" y="557" on="0"/>
        <pt x="726" y="576" on="0"/>
        <pt x="618" y="576" on="1"/>
      </contour>
      <contour>
        <pt x="758" y="832" on="1"/>
        <pt x="805" y="832" on="0"/>
        <pt x="883" y="859" on="0"/>
        <pt x="939" y="903" on="0"/>
        <pt x="970" y="961" on="0"/>
        <pt x="970" y="992" on="1"/>
        <pt x="970" y="1040" on="0"/>
        <pt x="932" y="1102" on="0"/>
        <pt x="848" y="1138" on="0"/>
        <pt x="714" y="1152" on="0"/>
        <pt x="618" y="1152" on="1"/>
        <pt x="618" y="832" on="1"/>
      </contour>
    </TTGlyph>
    <TTGlyph name="C" xMin="92" yMin="-29" xMax="1306" yMax="1441">
      <contour>
        <pt x="92" y="704" on="1"/>
        <pt x="92" y="875" on="0"/>
        <pt x="215" y="1148" on="0"/>
        <pt x="425" y="1339" on="0"/>
        <pt x="703" y="1441" on="0"/>
        <pt x="859" y="1441" on="1"/>
        <pt x="968" y="1441" on="0"/>
        <pt x="1194" y="1399" on="0"/>
        <pt x="1306" y="1344" on="1"/>
        <pt x="1244" y="1024" on="1"/>
        <pt x="1156" y="1072" on="0"/>
        <pt x="984" y="1120" on="0"/>
        <pt x="912" y="1120" on="1"/>
        <pt x="825" y="1120" on="0"/>
        <pt x="687" y="1063" on="0"/>
        <pt x="591" y="955" on="0"/>
        <pt x="540" y="801" on="0"/>
        <pt x="540" y="704" on="1"/>
        <pt x="540" y="607" on="0"/>
        <pt x="591" y="453" on="0"/>
        <pt x="687" y="345" on="0"/>
        <pt x="825" y="288" on="0"/>
        <pt x="912" y="288" on="1"/>
        <pt x="984" y="288" on="0"/>
        <pt x="1156" y="336" on="0"/>
        <pt x="1244" y="384" on="1"/>
        <pt x="1306" y="64" on="1"/>
        <pt x="1194" y="10" on="0"/>
        <pt x="968" y="-29" on="0"/>
        <pt x="859" y="-29" on="1"/>
        <pt x="703" y="-29" on="0"/>
        <pt x="425" y="72" on="0"/>
        <pt x="215" y="261" on="0"/>
        <pt x="92" y="533" on="0"/>
      </contour>
    </TTGlyph>
    <TTGlyph name="Cacute" xMin="92" yMin="-29" xMax="1306" yMax="2170">
      <component glyphName="C" x="0" y="0" flags="0x1204"/>
      <component glyphName="acute" x="272" y="317" flags="0x1004"/>
    </TTGlyph>
    <TTGlyph name="Ccaron" xMin="92" yMin="-29" xMax="1306" yMax="2124">
      <component glyphName="C" x="0" y="0" flags="0x1204"/>
      <component glyphName="caron" x="236" y="332" flags="0x1004"/>
    </TTGlyph>
    <TTGlyph name="Ccedilla" xMin="92" yMin="-788" xMax="1306" yMax="1441">
      <component glyphName="C" x="0" y="0" flags="0x1204"/>
      <component glyphName="cedilla" x="423" y="0" flags="0x1004"/>
    </TTGlyph>
    <TTGlyph name="D" xMin="170" yMin="0" xMax="1442" yMax="1414">
      <contour>
        <pt x="170" y="0" on="1"/>
        <pt x="170" y="1414" on="1"/>
        <pt x="662" y="1414" on="1"/>
        <pt x="844" y="1414" on="0"/>
        <pt x="1134" y="1329" on="0"/>
        <pt x="1335" y="1156" on="0"/>
        <pt x="1442" y="895" on="0"/>
        <pt x="1442" y="719" on="1"/>
        <pt x="1442" y="585" on="0"/>
        <pt x="1387" y="374" on="0"/>
        <pt x="1286" y="214" on="0"/>
        <pt x="1143" y="103" on="0"/>
        <pt x="969" y="32" on="0"/>
        <pt x="768" y="0" on="0"/>
        <pt x="658" y="0" on="1"/>
      </contour>
      <contour>
        <pt x="618" y="320" on="1"/>
        <pt x="648" y="320" on="1"/>
        <pt x="726" y="320" on="0"/>
        <pt x="854" y="349" on="0"/>
        <pt x="945" y="435" on="0"/>
        <pt x="994" y="591" on="0"/>
        <pt x="994" y="719" on="1"/>
        <pt x="994" y="835" on="0"/>
        <pt x="950" y="990" on="0"/>
        <pt x="864" y="1083" on="0"/>
        <pt x="738" y="1122" on="0"/>
        <pt x="657" y="1122" on="1"/>
        <pt x="618" y="1122" on="1"/>
      </contour>
    </TTGlyph>
    <TTGlyph name="Dcaron" xMin="170" yMin="0" xMax="1442" yMax="2130">
      <component glyphName="D" x="0" y="0" flags="0x1204"/>
      <component glyphName="caron" x="122" y="338" flags="0x1004"/>
    </TTGlyph>
    <TTGlyph name="Dcroat" xMin="170" yMin="0" xMax="1442" yMax="1414">
      <component glyphName="D" x="0" y="0" flags="0x1204"/>
    </TTGlyph>
    <TTGlyph name="Delta" xMin="0" yMin="0" xMax="1375" yMax="1414">
      <contour>
        <pt x="1375" y="0" on="1"/>
        <pt x="0" y="0" on="1"/>
        <pt x="360" y="1414" on="1"/>
        <pt x="986" y="1414" on="1"/>
      </contour>
      <contour>
        <pt x="651" y="1200" on="1"/>
        <pt x="485" y="299" on="1"/>
        <pt x="854" y="299" on="1"/>
        <pt x="682" y="1200" on="1"/>
      </contour>
    </TTGlyph>
    <TTGlyph name="E" xMin="171" yMin="0" xMax="1163" yMax="1414">
      <contour>
        <pt x="171" y="1414" on="1"/>
        <pt x="1163" y="1414" on="1"/>
        <pt x="1163" y="1152" on="1"/>
        <pt x="619" y="1152" on="1"/>
        <pt x="619" y="853" on="1"/>
        <pt x="1099" y="853" on="1"/>
        <pt x="1099" y="597" on="1"/>
        <pt x="619" y="597" on="1"/>
        <pt x="619" y="288" on="1"/>
        <pt x="1163" y="288" on="1"/>
        <pt x="1163" y="0" on="1"/>
        <pt x="171" y="0" on="1"/>
      </contour>
    </TTGlyph>
    <TTGlyph name="Eacute" xMin="171" yMin="0" xMax="1163" yMax="2171">
      <component glyphName="E" x="0" y="0" flags="0x1204"/>
      <component glyphName="acute" x="57" y="318" flags="0x1004"/>
    </TTGlyph>
    <TTGlyph name="Ecaron" xMin="171" yMin="0" xMax="1163" yMax="2127">
      <component glyphName="E" x="0" y="0" flags="0x1204"/>
      <component glyphName="caron" x="87" y="335" flags="0x1004"/>
    </TTGlyph>
    <TTGlyph name="Ecircumflex" xMin="171" yMin="0" xMax="1163" yMax="2121">
      <component glyphName="E" x="0" y="0" flags="0x1204"/>
      <component glyphName="circumflex" x="86" y="329" flags="0x1004"/>
    </TTGlyph>
    <TTGlyph name="Edieresis" xMin="162" yMin="0" xMax="1163" yMax="1973">
      <component glyphName="E" x="0" y="0" flags="0x1204"/>
      <component glyphName="dieresis" x="-16" y="373" flags="0x1004"/>
    </TTGlyph>
    <TTGlyph name="Egrave" xMin="171" yMin="0" xMax="1163" yMax="2226">
      <component glyphName="E" x="0" y="0" flags="0x1204"/>
      <component glyphName="grave" x="57" y="373" flags="0x1004"/>
    </TTGlyph>
    <TTGlyph name="Eogonek" xMin="171" yMin="-672" xMax="1163" yMax="1414">
      <component glyphName="E" x="0" y="0" flags="0x1204"/>
      <component glyphName="ogonek" x="262" y="0" flags="0x1004"/>
    </TTGlyph>
    <TTGlyph name="Eth" xMin="0" yMin="0" xMax="1442" yMax="1414">
      <contour>
        <pt x="170" y="0" on="1"/>
        <pt x="170" y="592" on="1"/>
        <pt x="0" y="592" on="1"/>
        <pt x="0" y="832" on="1"/>
        <pt x="170" y="832" on="1"/>
        <pt x="170" y="1414" on="1"/>
        <pt x="662" y="1414" on="1"/>
        <pt x="844" y="1414" on="0"/>
        <pt x="1134" y="1329" on="0"/>
        <pt x="1335" y="1156" on="0"/>
        <pt x="1442" y="895" on="0"/>
        <pt x="1442" y="719" on="1"/>
        <pt x="1442" y="585" on="0"/>
        <pt x="1387" y="374" on="0"/>
        <pt x="1286" y="214" on="0"/>
        <pt x="1143" y="103" on="0"/>
        <pt x="969" y="32" on="0"/>
        <pt x="768" y="0" on="0"/>
        <pt x="658" y="0" on="1"/>
      </contour>
      <contour>
        <pt x="618" y="320" on="1"/>
        <pt x="648" y="320" on="1"/>
        <pt x="726" y="320" on="0"/>
        <pt x="854" y="349" on="0"/>
        <pt x="945" y="435" on="0"/>
        <pt x="994" y="591" on="0"/>
        <pt x="994" y="719" on="1"/>
        <pt x="994" y="835" on="0"/>
        <pt x="950" y="990" on="0"/>
        <pt x="864" y="1083" on="0"/>
        <pt x="738" y="1122" on="0"/>
        <pt x="657" y="1122" on="1"/>
        <pt x="618" y="1122" on="1"/>
        <pt x="618" y="832" on="1"/>
        <pt x="800" y="832" on="1"/>
        <pt x="800" y="592" on="1"/>
        <pt x="618" y="592" on="1"/>
      </contour>
    </TTGlyph>
    <TTGlyph name="Euro" xMin="-43" yMin="-29" xMax="1306" yMax="1441">
      <contour>
        <pt x="794" y="643" on="1"/>
        <pt x="794" y="468" on="1"/>
        <pt x="591" y="468" on="1"/>
        <pt x="610" y="430" on="0"/>
        <pt x="639" y="399" on="1"/>
        <pt x="687" y="345" on="0"/>
        <pt x="824" y="288" on="0"/>
        <pt x="912" y="288" on="1"/>
        <pt x="984" y="288" on="0"/>
        <pt x="1156" y="336" on="0"/>
        <pt x="1244" y="384" on="1"/>
        <pt x="1306" y="64" on="1"/>
        <pt x="1194" y="10" on="0"/>
        <pt x="968" y="-29" on="0"/>
        <pt x="859" y="-29" on="1"/>
        <pt x="741" y="-29" on="0"/>
        <pt x="526" y="28" on="0"/>
        <pt x="343" y="137" on="0"/>
        <pt x="199" y="296" on="0"/>
        <pt x="153" y="397" on="1"/>
        <pt x="145" y="414" on="0"/>
        <pt x="132" y="449" on="0"/>
        <pt x="126" y="468" on="1"/>
        <pt x="-43" y="468" on="1"/>
        <pt x="-43" y="643" on="1"/>
        <pt x="94" y="643" on="1"/>
        <pt x="93" y="658" on="0"/>
        <pt x="92" y="688" on="0"/>
        <pt x="92" y="704" on="1"/>
        <pt x="92" y="738" on="1"/>
        <pt x="-43" y="738" on="1"/>
        <pt x="-43" y="913" on="1"/>
        <pt x="118" y="913" on="1"/>
        <pt x="131" y="963" on="0"/>
        <pt x="153" y="1011" on="1"/>
        <pt x="198" y="1113" on="0"/>
        <pt x="342" y="1273" on="0"/>
        <pt x="526" y="1383" on="0"/>
        <pt x="742" y="1440" on="0"/>
        <pt x="859" y="1441" on="1"/>
        <pt x="968" y="1440" on="0"/>
        <pt x="1194" y="1398" on="0"/>
        <pt x="1306" y="1344" on="1"/>
        <pt x="1244" y="1024" on="1"/>
        <pt x="1156" y="1072" on="0"/>
        <pt x="984" y="1120" on="0"/>
        <pt x="912" y="1120" on="1"/>
        <pt x="824" y="1120" on="0"/>
        <pt x="687" y="1063" on="0"/>
        <pt x="639" y="1009" on="1"/>
        <pt x="602" y="968" on="0"/>
        <pt x="578" y="913" on="1"/>
        <pt x="794" y="913" on="1"/>
        <pt x="794" y="738" on="1"/>
        <pt x="541" y="738" on="1"/>
        <pt x="540" y="730" on="0"/>
        <pt x="540" y="712" on="0"/>
        <pt x="540" y="704" on="1"/>
        <pt x="540" y="688" on="0"/>
        <pt x="541" y="657" on="0"/>
        <pt x="542" y="643" on="1"/>
      </contour>
    </TTGlyph>
    <TTGlyph name="F" xMin="171" yMin="0" xMax="1139" yMax="1414">
      <contour>
        <pt x="171" y="1414" on="1"/>
        <pt x="1139" y="1414" on="1"/>
        <pt x="1139" y="1152" on="1"/>
        <pt x="619" y="1152" on="1"/>
        <pt x="619" y="850" on="1"/>
        <pt x="1075" y="850" on="1"/>
        <pt x="1075" y="562" on="1"/>
        <pt x="619" y="562" on="1"/>
        <pt x="619" y="0" on="1"/>
        <pt x="171" y="0" on="1"/>
      </contour>
    </TTGlyph>
    <TTGlyph name="G" xMin="93" yMin="-29" xMax="1411" yMax="1441">
      <contour>
        <pt x="867" y="-29" on="1"/>
        <pt x="757" y="-29" on="0"/>
        <pt x="557" y="20" on="0"/>
        <pt x="385" y="112" on="0"/>
        <pt x="246" y="244" on="0"/>
        <pt x="147" y="410" on="0"/>
        <pt x="93" y="606" on="0"/>
        <pt x="93" y="717" on="1"/>
        <pt x="93" y="879" on="0"/>
        <pt x="222" y="1146" on="0"/>
        <pt x="453" y="1337" on="0"/>
        <pt x="772" y="1441" on="0"/>
        <pt x="963" y="1441" on="1"/>
        <pt x="1066" y="1441" on="0"/>
        <pt x="1296" y="1410" on="0"/>
        <pt x="1411" y="1376" on="1"/>
        <pt x="1347" y="1056" on="1"/>
        <pt x="1244" y="1093" on="0"/>
        <pt x="1074" y="1122" on="0"/>
        <pt x="995" y="1122" on="1"/>
        <pt x="890" y="1122" on="0"/>
        <pt x="722" y="1063" on="0"/>
        <pt x="604" y="957" on="0"/>
        <pt x="541" y="806" on="0"/>
        <pt x="541" y="715" on="1"/>
        <pt x="541" y="614" on="0"/>
        <pt x="583" y="456" on="0"/>
        <pt x="671" y="346" on="0"/>
        <pt x="806" y="288" on="0"/>
        <pt x="899" y="288" on="1"/>
        <pt x="1027" y="288" on="1"/>
        <pt x="1027" y="581" on="1"/>
        <pt x="803" y="551" on="1"/>
        <pt x="803" y="800" on="1"/>
        <pt x="1411" y="800" on="1"/>
        <pt x="1411" y="124" on="1"/>
        <pt x="1337" y="80" on="0"/>
        <pt x="1199" y="21" on="0"/>
        <pt x="1065" y="-14" on="0"/>
        <pt x="934" y="-29" on="0"/>
      </contour>
    </TTGlyph>
    <TTGlyph name="H" xMin="171" yMin="0" xMax="1483" yMax="1414">
      <contour>
        <pt x="171" y="1414" on="1"/>
        <pt x="619" y="1414" on="1"/>
        <pt x="619" y="864" on="1"/>
        <pt x="1035" y="864" on="1"/>
        <pt x="1035" y="1414" on="1"/>
        <pt x="1483" y="1414" on="1"/>
        <pt x="1483" y="0" on="1"/>
        <pt x="1035" y="0" on="1"/>
        <pt x="1035" y="576" on="1"/>
        <pt x="619" y="576" on="1"/>
        <pt x="619" y="0" on="1"/>
        <pt x="171" y="0" on="1"/>
      </contour>
    </TTGlyph>
    <TTGlyph name="I" xMin="171" yMin="0" xMax="619" yMax="1414">
      <contour>
        <pt x="171" y="1414" on="1"/>
        <pt x="619" y="1414" on="1"/>
        <pt x="619" y="0" on="1"/>
        <pt x="171" y="0" on="1"/>
      </contour>
    </TTGlyph>
    <TTGlyph name="IJ" xMin="171" yMin="-29" xMax="1613" yMax="1414">
      <component glyphName="I" x="0" y="0" flags="0x1004"/>
      <component glyphName="J" x="790" y="0" flags="0x1004"/>
    </TTGlyph>
    <TTGlyph name="Iacute" xMin="125" yMin="0" xMax="669" yMax="2171">
      <component glyphName="I" x="0" y="0" flags="0x1204"/>
      <component glyphName="acute" x="-205" y="318" flags="0x1004"/>
    </TTGlyph>
    <TTGlyph name="Icircumflex" xMin="-53" yMin="0" xMax="847" yMax="2124">
      <component glyphName="I" x="0" y="0" flags="0x1204"/>
      <component glyphName="circumflex" x="-176" y="332" flags="0x1004"/>
    </TTGlyph>
    <TTGlyph name="Idieresis" xMin="-103" yMin="0" xMax="897" yMax="1973">
      <component glyphName="I" x="0" y="0" flags="0x1204"/>
      <component glyphName="dieresis" x="-281" y="373" flags="0x1004"/>
    </TTGlyph>
    <TTGlyph name="Igrave" xMin="77" yMin="0" xMax="621" yMax="2169">
      <component glyphName="I" x="0" y="0" flags="0x1204"/>
      <component glyphName="grave" x="-253" y="316" flags="0x1004"/>
    </TTGlyph>
    <TTGlyph name="Itilde" xMin="-131" yMin="0" xMax="925" yMax="2049">
      <component glyphName="I" x="0" y="0" flags="0x1204"/>
      <component glyphName="tilde" x="-281" y="373" flags="0x1004"/>
    </TTGlyph>
    <TTGlyph name="J" xMin="23" yMin="-29" xMax="823" yMax="1414">
      <contour>
        <pt x="343" y="-29" on="1"/>
        <pt x="252" y="-29" on="0"/>
        <pt x="83" y="-3" on="0"/>
        <pt x="23" y="35" on="1"/>
        <pt x="23" y="320" on="1"/>
        <pt x="90" y="299" on="0"/>
        <pt x="205" y="288" on="0"/>
        <pt x="247" y="288" on="1"/>
        <pt x="292" y="288" on="0"/>
        <pt x="343" y="325" on="0"/>
        <pt x="369" y="383" on="0"/>
        <pt x="375" y="456" on="0"/>
        <pt x="375" y="492" on="1"/>
        <pt x="375" y="1414" on="1"/>
        <pt x="823" y="1414" on="1"/>
        <pt x="823" y="429" on="1"/>
        <pt x="823" y="309" on="0"/>
        <pt x="739" y="136" on="0"/>
        <pt x="604" y="24" on="0"/>
        <pt x="431" y="-29" on="0"/>
      </contour>
    </TTGlyph>
    <TTGlyph name="Jcircumflex" xMin="23" yMin="-29" xMax="993" yMax="2110">
      <component glyphName="J" x="0" y="0" flags="0x1204"/>
      <component glyphName="circumflex" x="-30" y="318" flags="0x1004"/>
    </TTGlyph>
    <TTGlyph name="K" xMin="170" yMin="0" xMax="1461" yMax="1414">
      <contour>
        <pt x="618" y="598" on="1"/>
        <pt x="618" y="0" on="1"/>
        <pt x="170" y="0" on="1"/>
        <pt x="170" y="1414" on="1"/>
        <pt x="618" y="1414" on="1"/>
        <pt x="618" y="791" on="1"/>
        <pt x="938" y="1414" on="1"/>
        <pt x="1461" y="1414" on="1"/>
        <pt x="1056" y="736" on="1"/>
        <pt x="1461" y="0" on="1"/>
        <pt x="938" y="0" on="1"/>
        <pt x="650" y="666" on="1"/>
      </contour>
    </TTGlyph>
    <TTGlyph name="L" xMin="170" yMin="0" xMax="1098" yMax="1414">
      <contour>
        <pt x="170" y="1414" on="1"/>
        <pt x="618" y="1414" on="1"/>
        <pt x="618" y="288" on="1"/>
        <pt x="1098" y="288" on="1"/>
        <pt x="1098" y="0" on="1"/>
        <pt x="170" y="0" on="1"/>
      </contour>
    </TTGlyph>
    <TTGlyph name="Lacute" xMin="170" yMin="0" xMax="1098" yMax="2170">
      <component glyphName="L" x="0" y="0" flags="0x1204"/>
      <component glyphName="acute" x="-25" y="317" flags="0x1004"/>
    </TTGlyph>
    <TTGlyph name="Lcaron" xMin="170" yMin="0" xMax="1287" yMax="1775">
      <component glyphName="L" x="0" y="0" flags="0x1004"/>
      <component glyphName="quoteright" x="626" y="335" flags="0x1004"/>
    </TTGlyph>
    <TTGlyph name="Lslash" xMin="-1" yMin="0" xMax="1098" yMax="1414">
      <contour>
        <pt x="170" y="1414" on="1"/>
        <pt x="618" y="1414" on="1"/>
        <pt x="618" y="1019" on="1"/>
        <pt x="847" y="1100" on="1"/>
        <pt x="847" y="800" on="1"/>
        <pt x="618" y="719" on="1"/>
        <pt x="618" y="288" on="1"/>
        <pt x="1098" y="288" on="1"/>
        <pt x="1098" y="0" on="1"/>
        <pt x="170" y="0" on="1"/>
        <pt x="170" y="560" on="1"/>
        <pt x="-1" y="500" on="1"/>
        <pt x="-1" y="800" on="1"/>
        <pt x="170" y="860" on="1"/>
      </contour>
    </TTGlyph>
    <TTGlyph name="M" xMin="170" yMin="0" xMax="1716" yMax="1414">
      <contour>
        <pt x="170" y="1414" on="1"/>
        <pt x="586" y="1414" on="1"/>
        <pt x="938" y="864" on="1"/>
        <pt x="1290" y="1414" on="1"/>
        <pt x="1716" y="1414" on="1"/>
        <pt x="1716" y="0" on="1"/>
        <pt x="1258" y="0" on="1"/>
        <pt x="1258" y="768" on="1"/>
        <pt x="928" y="209" on="1"/>
        <pt x="831" y="209" on="1"/>
        <pt x="490" y="768" on="1"/>
        <pt x="490" y="0" on="1"/>
        <pt x="170" y="0" on="1"/>
      </contour>
    </TTGlyph>
    <TTGlyph name="N" xMin="170" yMin="0" xMax="1483" yMax="1414">
      <contour>
        <pt x="170" y="1414" on="1"/>
        <pt x="603" y="1414" on="1"/>
        <pt x="1141" y="704" on="1"/>
        <pt x="1141" y="1414" on="1"/>
        <pt x="1483" y="1414" on="1"/>
        <pt x="1483" y="0" on="1"/>
        <pt x="1039" y="0" on="1"/>
        <pt x="509" y="752" on="1"/>
        <pt x="509" y="0" on="1"/>
        <pt x="170" y="0" on="1"/>
      </contour>
    </TTGlyph>
    <TTGlyph name="Nacute" xMin="170" yMin="0" xMax="1483" yMax="2171">
      <component glyphName="N" x="0" y="0" flags="0x1204"/>
      <component glyphName="acute" x="225" y="318" flags="0x1004"/>
    </TTGlyph>
    <TTGlyph name="Ncaron" xMin="170" yMin="0" xMax="1483" yMax="2129">
      <component glyphName="N" x="0" y="0" flags="0x1204"/>
      <component glyphName="caron" x="255" y="337" flags="0x1004"/>
    </TTGlyph>
    <TTGlyph name="Ntilde" xMin="170" yMin="0" xMax="1483" yMax="2049">
      <component glyphName="N" x="0" y="0" flags="0x1204"/>
      <component glyphName="tilde" x="149" y="373" flags="0x1004"/>
    </TTGlyph>
    <TTGlyph name="O" xMin="92" yMin="-29" xMax="1500" yMax="1441">
      <contour>
        <pt x="795" y="-29" on="1"/>
        <pt x="664" y="-29" on="0"/>
        <pt x="458" y="28" on="0"/>
        <pt x="301" y="129" on="0"/>
        <pt x="192" y="268" on="0"/>
        <pt x="123" y="431" on="0"/>
        <pt x="92" y="611" on="0"/>
        <pt x="92" y="704" on="1"/>
        <pt x="92" y="796" on="0"/>
        <pt x="130" y="977" on="0"/>
        <pt x="206" y="1141" on="0"/>
        <pt x="322" y="1281" on="0"/>
        <pt x="478" y="1383" on="0"/>
        <pt x="675" y="1441" on="0"/>
        <pt x="795" y="1441" on="1"/>
        <pt x="915" y="1441" on="0"/>
        <pt x="1112" y="1383" on="0"/>
        <pt x="1269" y="1281" on="0"/>
        <pt x="1385" y="1141" on="0"/>
        <pt x="1462" y="977" on="0"/>
        <pt x="1500" y="796" on="0"/>
        <pt x="1500" y="704" on="1"/>
        <pt x="1500" y="611" on="0"/>
        <pt x="1468" y="431" on="0"/>
        <pt x="1399" y="268" on="0"/>
        <pt x="1289" y="129" on="0"/>
        <pt x="1133" y="28" on="0"/>
        <pt x="926" y="-29" on="0"/>
      </contour>
      <contour>
        <pt x="540" y="704" on="1"/>
        <pt x="540" y="584" on="0"/>
        <pt x="575" y="414" on="0"/>
        <pt x="640" y="306" on="0"/>
        <pt x="735" y="256" on="0"/>
        <pt x="795" y="256" on="1"/>
        <pt x="855" y="256" on="0"/>
        <pt x="950" y="306" on="0"/>
        <pt x="1017" y="414" on="0"/>
        <pt x="1052" y="584" on="0"/>
        <pt x="1052" y="704" on="1"/>
        <pt x="1052" y="824" on="0"/>
        <pt x="1017" y="995" on="0"/>
        <pt x="950" y="1104" on="0"/>
        <pt x="855" y="1156" on="0"/>
        <pt x="795" y="1156" on="1"/>
        <pt x="735" y="1156" on="0"/>
        <pt x="640" y="1104" on="0"/>
        <pt x="575" y="995" on="0"/>
        <pt x="540" y="824" on="0"/>
      </contour>
    </TTGlyph>
    <TTGlyph name="OE" xMin="92" yMin="-29" xMax="1924" yMax="1441">
      <contour>
        <pt x="992" y="1414" on="1"/>
        <pt x="1924" y="1414" on="1"/>
        <pt x="1924" y="1152" on="1"/>
        <pt x="1440" y="1152" on="1"/>
        <pt x="1440" y="853" on="1"/>
        <pt x="1860" y="853" on="1"/>
        <pt x="1860" y="597" on="1"/>
        <pt x="1440" y="597" on="1"/>
        <pt x="1440" y="288" on="1"/>
        <pt x="1924" y="288" on="1"/>
        <pt x="1924" y="0" on="1"/>
        <pt x="992" y="0" on="1"/>
        <pt x="992" y="22" on="1"/>
        <pt x="914" y="-4" on="0"/>
        <pt x="774" y="-29" on="0"/>
        <pt x="709" y="-29" on="1"/>
        <pt x="609" y="-29" on="0"/>
        <pt x="440" y="25" on="0"/>
        <pt x="303" y="122" on="0"/>
        <pt x="199" y="258" on="0"/>
        <pt x="128" y="421" on="0"/>
        <pt x="92" y="606" on="0"/>
        <pt x="92" y="704" on="1"/>
        <pt x="92" y="853" on="0"/>
        <pt x="180" y="1120" on="0"/>
        <pt x="342" y="1322" on="0"/>
        <pt x="570" y="1441" on="0"/>
        <pt x="711" y="1441" on="1"/>
        <pt x="844" y="1441" on="0"/>
        <pt x="992" y="1382" on="1"/>
      </contour>
      <contour>
        <pt x="540" y="704" on="1"/>
        <pt x="540" y="594" on="0"/>
        <pt x="583" y="426" on="0"/>
        <pt x="665" y="313" on="0"/>
        <pt x="781" y="256" on="0"/>
        <pt x="855" y="256" on="1"/>
        <pt x="892" y="256" on="0"/>
        <pt x="962" y="268" on="0"/>
        <pt x="992" y="282" on="1"/>
        <pt x="992" y="1130" on="1"/>
        <pt x="962" y="1144" on="0"/>
        <pt x="892" y="1156" on="0"/>
        <pt x="855" y="1156" on="1"/>
        <pt x="781" y="1156" on="0"/>
        <pt x="665" y="1097" on="0"/>
        <pt x="583" y="983" on="0"/>
        <pt x="540" y="814" on="0"/>
      </contour>
    </TTGlyph>
    <TTGlyph name="Oacute" xMin="92" yMin="-29" xMax="1500" yMax="2169">
      <component glyphName="O" x="0" y="0" flags="0x1204"/>
      <component glyphName="acute" x="194" y="316" flags="0x1004"/>
    </TTGlyph>
    <TTGlyph name="Ocircumflex" xMin="92" yMin="-29" xMax="1500" yMax="2121">
      <component glyphName="O" x="0" y="0" flags="0x1204"/>
      <component glyphName="circumflex" x="223" y="329" flags="0x1004"/>
    </TTGlyph>
    <TTGlyph name="Odieresis" xMin="92" yMin="-29" xMax="1500" yMax="1973">
      <component glyphName="O" x="0" y="0" flags="0x1204"/>
      <component glyphName="dieresis" x="118" y="373" flags="0x1004"/>
    </TTGlyph>
    <TTGlyph name="Ograve" xMin="92" yMin="-29" xMax="1500" yMax="2168">
      <component glyphName="O" x="0" y="0" flags="0x1204"/>
      <component glyphName="grave" x="111" y="315" flags="0x1004"/>
    </TTGlyph>
    <TTGlyph name="Ohungarumlaut" xMin="92" yMin="-29" xMax="1500" yMax="2097">
      <component glyphName="O" x="0" y="0" flags="0x1204"/>
      <component glyphName="hungarumlaut" x="291" y="305" flags="0x1004"/>
    </TTGlyph>
    <TTGlyph name="Oslash" xMin="92" yMin="-200" xMax="1500" yMax="1600">
      <contour>
        <pt x="795" y="-29" on="1"/>
        <pt x="664" y="-29" on="0"/>
        <pt x="561" y="0" on="1"/>
        <pt x="560" y="0" on="1"/>
        <pt x="455" y="-200" on="1"/>
        <pt x="255" y="-100" on="1"/>
        <pt x="357" y="93" on="1"/>
        <pt x="293" y="139" on="0"/>
        <pt x="246" y="198" on="1"/>
        <pt x="192" y="268" on="0"/>
        <pt x="123" y="431" on="0"/>
        <pt x="92" y="611" on="0"/>
        <pt x="92" y="704" on="1"/>
        <pt x="92" y="796" on="0"/>
        <pt x="130" y="977" on="0"/>
        <pt x="206" y="1141" on="0"/>
        <pt x="322" y="1281" on="0"/>
        <pt x="478" y="1383" on="0"/>
        <pt x="675" y="1441" on="0"/>
        <pt x="795" y="1441" on="1"/>
        <pt x="915" y="1441" on="0"/>
        <pt x="1013" y="1412" on="1"/>
        <pt x="1032" y="1406" on="0"/>
        <pt x="1049" y="1400" on="1"/>
        <pt x="1155" y="1600" on="1"/>
        <pt x="1355" y="1500" on="1"/>
        <pt x="1245" y="1292" on="1"/>
        <pt x="1290" y="1255" on="0"/>
        <pt x="1327" y="1211" on="1"/>
        <pt x="1385" y="1141" on="0"/>
        <pt x="1462" y="977" on="0"/>
        <pt x="1500" y="796" on="0"/>
        <pt x="1500" y="704" on="1"/>
        <pt x="1500" y="611" on="0"/>
        <pt x="1468" y="431" on="0"/>
        <pt x="1399" y="268" on="0"/>
        <pt x="1289" y="129" on="0"/>
        <pt x="1133" y="28" on="0"/>
        <pt x="926" y="-29" on="0"/>
      </contour>
      <contour>
        <pt x="540" y="704" on="1"/>
        <pt x="540" y="584" on="0"/>
        <pt x="557" y="499" on="1"/>
        <pt x="559" y="489" on="0"/>
        <pt x="562" y="479" on="1"/>
        <pt x="905" y="1128" on="1"/>
        <pt x="904" y="1129" on="0"/>
        <pt x="902" y="1130" on="1"/>
        <pt x="855" y="1156" on="0"/>
        <pt x="795" y="1156" on="1"/>
        <pt x="735" y="1156" on="0"/>
        <pt x="640" y="1104" on="0"/>
        <pt x="575" y="995" on="0"/>
        <pt x="540" y="824" on="0"/>
      </contour>
      <contour>
        <pt x="795" y="256" on="1"/>
        <pt x="855" y="256" on="0"/>
        <pt x="950" y="306" on="0"/>
        <pt x="1017" y="414" on="0"/>
        <pt x="1052" y="584" on="0"/>
        <pt x="1052" y="704" on="1"/>
        <pt x="1052" y="817" on="0"/>
        <pt x="1036" y="899" on="1"/>
        <pt x="705" y="272" on="1"/>
        <pt x="746" y="256" on="0"/>
      </contour>
    </TTGlyph>
    <TTGlyph name="Otilde" xMin="92" yMin="-29" xMax="1500" yMax="2049">
      <component glyphName="O" x="0" y="0" flags="0x1204"/>
      <component glyphName="tilde" x="118" y="373" flags="0x1004"/>
    </TTGlyph>
    <TTGlyph name="P" xMin="170" yMin="0" xMax="1425" yMax="1414">
      <contour>
        <pt x="170" y="1414" on="1"/>
        <pt x="716" y="1414" on="1"/>
        <pt x="858" y="1414" on="0"/>
        <pt x="1073" y="1379" on="0"/>
        <pt x="1231" y="1315" on="0"/>
        <pt x="1336" y="1225" on="0"/>
        <pt x="1399" y="1118" on="0"/>
        <pt x="1425" y="996" on="0"/>
        <pt x="1425" y="931" on="1"/>
        <pt x="1425" y="876" on="0"/>
        <pt x="1400" y="766" on="0"/>
        <pt x="1341" y="666" on="0"/>
        <pt x="1243" y="580" on="0"/>
        <pt x="1100" y="516" on="0"/>
        <pt x="905" y="480" on="0"/>
        <pt x="778" y="480" on="1"/>
        <pt x="760" y="480" on="0"/>
        <pt x="706" y="481" on="0"/>
        <pt x="680" y="483" on="1"/>
        <pt x="618" y="487" on="1"/>
        <pt x="618" y="0" on="1"/>
        <pt x="170" y="0" on="1"/>
      </contour>
      <contour>
        <pt x="618" y="704" on="1"/>
        <pt x="721" y="704" on="1"/>
        <pt x="793" y="704" on="0"/>
        <pt x="891" y="739" on="0"/>
        <pt x="951" y="799" on="0"/>
        <pt x="977" y="881" on="0"/>
        <pt x="977" y="928" on="1"/>
        <pt x="977" y="1003" on="0"/>
        <pt x="939" y="1101" on="0"/>
        <pt x="870" y="1160" on="0"/>
        <pt x="776" y="1184" on="0"/>
        <pt x="721" y="1184" on="1"/>
        <pt x="618" y="1184" on="1"/>
      </contour>
    </TTGlyph>
    <TTGlyph name="Q" xMin="92" yMin="-484" xMax="1500" yMax="1441">
      <contour>
        <pt x="1203" y="-484" on="1"/>
        <pt x="1115" y="-450" on="0"/>
        <pt x="961" y="-373" on="0"/>
        <pt x="829" y="-268" on="0"/>
        <pt x="721" y="-124" on="0"/>
        <pt x="679" y="-22" on="1"/>
        <pt x="570" y="-10" on="0"/>
        <pt x="398" y="60" on="0"/>
        <pt x="268" y="164" on="0"/>
        <pt x="176" y="298" on="0"/>
        <pt x="118" y="451" on="0"/>
        <pt x="92" y="618" on="0"/>
        <pt x="92" y="704" on="1"/>
        <pt x="92" y="796" on="0"/>
        <pt x="130" y="977" on="0"/>
        <pt x="206" y="1141" on="0"/>
        <pt x="322" y="1281" on="0"/>
        <pt x="478" y="1383" on="0"/>
        <pt x="675" y="1441" on="0"/>
        <pt x="795" y="1441" on="1"/>
        <pt x="915" y="1441" on="0"/>
        <pt x="1112" y="1383" on="0"/>
        <pt x="1269" y="1281" on="0"/>
        <pt x="1385" y="1141" on="0"/>
        <pt x="1462" y="977" on="0"/>
        <pt x="1500" y="796" on="0"/>
        <pt x="1500" y="704" on="1"/>
        <pt x="1500" y="587" on="0"/>
        <pt x="1449" y="362" on="0"/>
        <pt x="1336" y="173" on="0"/>
        <pt x="1153" y="31" on="0"/>
        <pt x="1021" y="-2" on="1"/>
        <pt x="1036" y="-36" on="0"/>
        <pt x="1106" y="-101" on="0"/>
        <pt x="1201" y="-156" on="0"/>
        <pt x="1312" y="-198" on="0"/>
        <pt x="1369" y="-208" on="1"/>
      </contour>
      <contour>
        <pt x="540" y="704" on="1"/>
        <pt x="540" y="584" on="0"/>
        <pt x="575" y="414" on="0"/>
        <pt x="640" y="306" on="0"/>
        <pt x="735" y="256" on="0"/>
        <pt x="795" y="256" on="1"/>
        <pt x="855" y="256" on="0"/>
        <pt x="950" y="306" on="0"/>
        <pt x="1017" y="414" on="0"/>
        <pt x="1052" y="584" on="0"/>
        <pt x="1052" y="704" on="1"/>
        <pt x="1052" y="824" on="0"/>
        <pt x="1017" y="995" on="0"/>
        <pt x="950" y="1104" on="0"/>
        <pt x="855" y="1156" on="0"/>
        <pt x="795" y="1156" on="1"/>
        <pt x="735" y="1156" on="0"/>
        <pt x="640" y="1104" on="0"/>
        <pt x="575" y="995" on="0"/>
        <pt x="540" y="824" on="0"/>
      </contour>
    </TTGlyph>
    <TTGlyph name="R" xMin="170" yMin="0" xMax="1418" yMax="1414">
      <contour>
        <pt x="170" y="1414" on="1"/>
        <pt x="806" y="1414" on="1"/>
        <pt x="957" y="1414" on="0"/>
        <pt x="1187" y="1335" on="0"/>
        <pt x="1340" y="1206" on="0"/>
        <pt x="1418" y="1043" on="0"/>
        <pt x="1418" y="960" on="1"/>
        <pt x="1418" y="895" on="0"/>
        <pt x="1392" y="768" on="0"/>
        <pt x="1326" y="655" on="0"/>
        <pt x="1211" y="564" on="0"/>
        <pt x="1122" y="536" on="1"/>
        <pt x="1135" y="494" on="0"/>
        <pt x="1197" y="370" on="0"/>
        <pt x="1279" y="226" on="0"/>
        <pt x="1373" y="72" on="0"/>
        <pt x="1418" y="0" on="1"/>
        <pt x="906" y="0" on="1"/>
        <pt x="863" y="97" on="0"/>
        <pt x="773" y="338" on="0"/>
        <pt x="746" y="480" on="1"/>
        <pt x="618" y="480" on="1"/>
        <pt x="618" y="0" on="1"/>
        <pt x="170" y="0" on="1"/>
      </contour>
      <contour>
        <pt x="694" y="704" on="1"/>
        <pt x="770" y="704" on="0"/>
        <pt x="875" y="744" on="0"/>
        <pt x="941" y="808" on="0"/>
        <pt x="970" y="888" on="0"/>
        <pt x="970" y="928" on="1"/>
        <pt x="970" y="1007" on="0"/>
        <pt x="926" y="1107" on="0"/>
        <pt x="850" y="1164" on="0"/>
        <pt x="750" y="1184" on="0"/>
        <pt x="693" y="1184" on="1"/>
        <pt x="618" y="1184" on="1"/>
        <pt x="618" y="704" on="1"/>
      </contour>
    </TTGlyph>
    <TTGlyph name="Racute" xMin="170" yMin="0" xMax="1418" yMax="2170">
      <component glyphName="R" x="0" y="0" flags="0x1204"/>
      <component glyphName="acute" x="126" y="317" flags="0x1004"/>
    </TTGlyph>
    <TTGlyph name="Rcaron" xMin="170" yMin="0" xMax="1418" yMax="2121">
      <component glyphName="R" x="0" y="0" flags="0x1204"/>
      <component glyphName="caron" x="156" y="329" flags="0x1004"/>
    </TTGlyph>
    <TTGlyph name="Rcommaaccent" xMin="170" yMin="-876" xMax="1418" yMax="1414">
      <component glyphName="R" x="0" y="0" flags="0x1204"/>
      <component glyphName="commaaccent" x="406" y="0" flags="0x1004"/>
    </TTGlyph>
    <TTGlyph name="S" xMin="133" yMin="-29" xMax="1258" yMax="1441">
      <contour>
        <pt x="1179" y="1047" on="1"/>
        <pt x="1138" y="1065" on="0"/>
        <pt x="1029" y="1102" on="0"/>
        <pt x="910" y="1132" on="0"/>
        <pt x="788" y="1151" on="0"/>
        <pt x="734" y="1151" on="1"/>
        <pt x="640" y="1151" on="0"/>
        <pt x="534" y="1103" on="0"/>
        <pt x="534" y="1046" on="1"/>
        <pt x="534" y="1019" on="0"/>
        <pt x="571" y="978" on="0"/>
        <pt x="639" y="943" on="0"/>
        <pt x="734" y="910" on="0"/>
        <pt x="792" y="892" on="1"/>
        <pt x="865" y="869" on="1"/>
        <pt x="957" y="841" on="0"/>
        <pt x="1103" y="762" on="0"/>
        <pt x="1204" y="655" on="0"/>
        <pt x="1258" y="517" on="0"/>
        <pt x="1258" y="429" on="1"/>
        <pt x="1258" y="326" on="0"/>
        <pt x="1193" y="157" on="0"/>
        <pt x="1055" y="37" on="0"/>
        <pt x="840" y="-29" on="0"/>
        <pt x="689" y="-29" on="1"/>
        <pt x="555" y="-29" on="0"/>
        <pt x="290" y="15" on="0"/>
        <pt x="155" y="70" on="1"/>
        <pt x="155" y="400" on="1"/>
        <pt x="284" y="334" on="0"/>
        <pt x="527" y="273" on="0"/>
        <pt x="645" y="273" on="1"/>
        <pt x="742" y="273" on="0"/>
        <pt x="831" y="335" on="0"/>
        <pt x="831" y="390" on="1"/>
        <pt x="831" y="423" on="0"/>
        <pt x="798" y="470" on="0"/>
        <pt x="725" y="510" on="0"/>
        <pt x="607" y="551" on="0"/>
        <pt x="523" y="577" on="1"/>
        <pt x="439" y="602" on="0"/>
        <pt x="296" y="678" on="0"/>
        <pt x="192" y="785" on="0"/>
        <pt x="133" y="927" on="0"/>
        <pt x="133" y="1018" on="1"/>
        <pt x="133" y="1112" on="0"/>
        <pt x="199" y="1268" on="0"/>
        <pt x="335" y="1379" on="0"/>
        <pt x="544" y="1441" on="0"/>
        <pt x="688" y="1441" on="1"/>
        <pt x="745" y="1441" on="0"/>
        <pt x="873" y="1431" on="0"/>
        <pt x="1006" y="1411" on="0"/>
        <pt x="1136" y="1379" on="0"/>
        <pt x="1194" y="1357" on="1"/>
      </contour>
    </TTGlyph>
    <TTGlyph name="Sacute" xMin="137" yMin="-29" xMax="1262" yMax="2171">
      <component glyphName="S" x="4" y="0" flags="0x1004"/>
      <component glyphName="acute" x="292" y="318" flags="0x1004"/>
    </TTGlyph>
    <TTGlyph name="Scaron" xMin="133" yMin="-29" xMax="1258" yMax="2107">
      <component glyphName="S" x="0" y="0" flags="0x1004"/>
      <component glyphName="caron" x="146" y="315" flags="0x1004"/>
    </TTGlyph>
    <TTGlyph name="Scedilla" xMin="133" yMin="-788" xMax="1258" yMax="1441">
      <component glyphName="S" x="0" y="0" flags="0x1004"/>
      <component glyphName="cedilla" x="296" y="0" flags="0x1004"/>
    </TTGlyph>
    <TTGlyph name="T" xMin="10" yMin="0" xMax="1105" yMax="1414">
      <contour>
        <pt x="330" y="0" on="1"/>
        <pt x="330" y="1088" on="1"/>
        <pt x="10" y="1088" on="1"/>
        <pt x="10" y="1414" on="1"/>
        <pt x="1105" y="1414" on="1"/>
        <pt x="1105" y="1088" on="1"/>
        <pt x="778" y="1088" on="1"/>
        <pt x="778" y="0" on="1"/>
      </contour>
    </TTGlyph>
    <TTGlyph name="Tcaron" xMin="10" yMin="0" xMax="1105" yMax="2127">
      <component glyphName="T" x="0" y="0" flags="0x1004"/>
      <component glyphName="caron" x="74" y="335" flags="0x1004"/>
    </TTGlyph>
    <TTGlyph name="Tcommaaccent" xMin="10" yMin="-876" xMax="1105" yMax="1414">
      <component glyphName="T" x="0" y="0" flags="0x1204"/>
      <component glyphName="commaaccent" x="186" y="0" flags="0x1004"/>
    </TTGlyph>
    <TTGlyph name="Thorn" xMin="170" yMin="0" xMax="1386" yMax="1414">
      <contour>
        <pt x="170" y="1414" on="1"/>
        <pt x="618" y="1414" on="1"/>
        <pt x="618" y="1280" on="1"/>
        <pt x="716" y="1280" on="1"/>
        <pt x="851" y="1280" on="0"/>
        <pt x="1055" y="1245" on="0"/>
        <pt x="1204" y="1182" on="0"/>
        <pt x="1303" y="1093" on="0"/>
        <pt x="1362" y="987" on="0"/>
        <pt x="1386" y="865" on="0"/>
        <pt x="1386" y="800" on="1"/>
        <pt x="1386" y="717" on="0"/>
        <pt x="1329" y="557" on="0"/>
        <pt x="1190" y="430" on="0"/>
        <pt x="955" y="352" on="0"/>
        <pt x="778" y="352" on="1"/>
        <pt x="618" y="352" on="1"/>
        <pt x="618" y="0" on="1"/>
        <pt x="170" y="0" on="1"/>
      </contour>
      <contour>
        <pt x="618" y="576" on="1"/>
        <pt x="746" y="576" on="1"/>
        <pt x="818" y="576" on="0"/>
        <pt x="916" y="611" on="0"/>
        <pt x="976" y="671" on="0"/>
        <pt x="1002" y="753" on="0"/>
        <pt x="1002" y="800" on="1"/>
        <pt x="1002" y="866" on="0"/>
        <pt x="964" y="952" on="0"/>
        <pt x="895" y="1003" on="0"/>
        <pt x="801" y="1024" on="0"/>
        <pt x="746" y="1024" on="1"/>
        <pt x="618" y="1024" on="1"/>
      </contour>
    </TTGlyph>
    <TTGlyph name="U" xMin="170" yMin="-29" xMax="1408" yMax="1414">
      <contour>
        <pt x="810" y="-29" on="1"/>
        <pt x="661" y="-29" on="0"/>
        <pt x="424" y="58" on="0"/>
        <pt x="258" y="233" on="0"/>
        <pt x="170" y="497" on="0"/>
        <pt x="170" y="674" on="1"/>
        <pt x="170" y="1414" on="1"/>
        <pt x="618" y="1414" on="1"/>
        <pt x="618" y="672" on="1"/>
        <pt x="618" y="573" on="0"/>
        <pt x="638" y="419" on="0"/>
        <pt x="686" y="312" on="0"/>
        <pt x="766" y="256" on="0"/>
        <pt x="826" y="256" on="1"/>
        <pt x="892" y="256" on="0"/>
        <pt x="973" y="312" on="0"/>
        <pt x="1018" y="419" on="0"/>
        <pt x="1034" y="573" on="0"/>
        <pt x="1034" y="672" on="1"/>
        <pt x="1034" y="1414" on="1"/>
        <pt x="1408" y="1414" on="1"/>
        <pt x="1408" y="674" on="1"/>
        <pt x="1408" y="496" on="0"/>
        <pt x="1338" y="232" on="0"/>
        <pt x="1191" y="57" on="0"/>
        <pt x="966" y="-29" on="0"/>
      </contour>
    </TTGlyph>
    <TTGlyph name="Uacute" xMin="170" yMin="-29" xMax="1408" yMax="2170">
      <component glyphName="U" x="0" y="0" flags="0x1204"/>
      <component glyphName="acute" x="187" y="317" flags="0x1004"/>
    </TTGlyph>
    <TTGlyph name="Ucircumflex" xMin="170" yMin="-29" xMax="1408" yMax="2126">
      <component glyphName="U" x="0" y="0" flags="0x1204"/>
      <component glyphName="circumflex" x="216" y="334" flags="0x1004"/>
    </TTGlyph>
    <TTGlyph name="Udieresis" xMin="170" yMin="-29" xMax="1408" yMax="1973">
      <component glyphName="U" x="0" y="0" flags="0x1204"/>
      <component glyphName="dieresis" x="111" y="373" flags="0x1004"/>
    </TTGlyph>
    <TTGlyph name="Ugrave" xMin="170" yMin="-29" xMax="1408" yMax="2169">
      <component glyphName="U" x="0" y="0" flags="0x1204"/>
      <component glyphName="grave" x="187" y="316" flags="0x1004"/>
    </TTGlyph>
    <TTGlyph name="Uhungarumlaut" xMin="170" yMin="-29" xMax="1408" yMax="2116">
      <component glyphName="U" x="0" y="0" flags="0x1204"/>
      <component glyphName="hungarumlaut" x="199" y="324" flags="0x1004"/>
    </TTGlyph>
    <TTGlyph name="Uring" xMin="170" yMin="-29" xMax="1408" yMax="1973">
      <component glyphName="U" x="0" y="0" flags="0x1204"/>
      <component glyphName="ring" x="358" y="373" flags="0x1004"/>
    </TTGlyph>
    <TTGlyph name="V" xMin="10" yMin="0" xMax="1354" yMax="1414">
      <contour>
        <pt x="10" y="1414" on="1"/>
        <pt x="554" y="1414" on="1"/>
        <pt x="760" y="359" on="1"/>
        <pt x="1002" y="1414" on="1"/>
        <pt x="1354" y="1414" on="1"/>
        <pt x="971" y="0" on="1"/>
        <pt x="362" y="0" on="1"/>
      </contour>
    </TTGlyph>
    <TTGlyph name="W" xMin="71" yMin="0" xMax="1991" yMax="1414">
      <contour>
        <pt x="1063" y="800" on="1"/>
        <pt x="918" y="0" on="1"/>
        <pt x="327" y="0" on="1"/>
        <pt x="71" y="1414" on="1"/>
        <pt x="577" y="1414" on="1"/>
        <pt x="718" y="280" on="1"/>
        <pt x="893" y="1414" on="1"/>
        <pt x="1319" y="1414" on="1"/>
        <pt x="1491" y="278" on="1"/>
        <pt x="1639" y="1414" on="1"/>
        <pt x="1991" y="1414" on="1"/>
        <pt x="1767" y="0" on="1"/>
        <pt x="1223" y="0" on="1"/>
      </contour>
    </TTGlyph>
    <TTGlyph name="X" xMin="37" yMin="0" xMax="1413" yMax="1414">
      <contour>
        <pt x="1061" y="704" on="1"/>
        <pt x="1413" y="0" on="1"/>
        <pt x="869" y="0" on="1"/>
        <pt x="689" y="533" on="1"/>
        <pt x="447" y="0" on="1"/>
        <pt x="37" y="0" on="1"/>
        <pt x="389" y="704" on="1"/>
        <pt x="37" y="1414" on="1"/>
        <pt x="581" y="1414" on="1"/>
        <pt x="797" y="913" on="1"/>
        <pt x="1029" y="1414" on="1"/>
        <pt x="1413" y="1414" on="1"/>
      </contour>
    </TTGlyph>
    <TTGlyph name="Y" xMin="-23" yMin="0" xMax="1257" yMax="1414">
      <contour>
        <pt x="414" y="0" on="1"/>
        <pt x="414" y="486" on="1"/>
        <pt x="-23" y="1414" on="1"/>
        <pt x="491" y="1414" on="1"/>
        <pt x="663" y="905" on="1"/>
        <pt x="821" y="1414" on="1"/>
        <pt x="1257" y="1414" on="1"/>
        <pt x="862" y="499" on="1"/>
        <pt x="862" y="0" on="1"/>
      </contour>
    </TTGlyph>
    <TTGlyph name="Yacute" xMin="-23" yMin="0" xMax="1257" yMax="2171">
      <component glyphName="Y" x="0" y="0" flags="0x1204"/>
      <component glyphName="acute" x="15" y="318" flags="0x1004"/>
    </TTGlyph>
    <TTGlyph name="Ydieresis" xMin="-23" yMin="0" xMax="1257" yMax="1973">
      <component glyphName="Y" x="0" y="0" flags="0x1204"/>
      <component glyphName="dieresis" x="-58" y="373" flags="0x1004"/>
    </TTGlyph>
    <TTGlyph name="Z" xMin="84" yMin="0" xMax="980" yMax="1414">
      <contour>
        <pt x="980" y="1414" on="1"/>
        <pt x="980" y="1088" on="1"/>
        <pt x="564" y="320" on="1"/>
        <pt x="967" y="320" on="1"/>
        <pt x="967" y="0" on="1"/>
        <pt x="84" y="0" on="1"/>
        <pt x="84" y="317" on="1"/>
        <pt x="567" y="1088" on="1"/>
        <pt x="98" y="1088" on="1"/>
        <pt x="98" y="1414" on="1"/>
      </contour>
    </TTGlyph>
    <TTGlyph name="Zacute" xMin="84" yMin="0" xMax="1004" yMax="2188">
      <component glyphName="Z" x="0" y="0" flags="0x1004"/>
      <component glyphName="acute" x="130" y="335" flags="0x1004"/>
    </TTGlyph>
    <TTGlyph name="Zcaron" xMin="84" yMin="0" xMax="1021" yMax="2107">
      <component glyphName="Z" x="0" y="0" flags="0x1004"/>
      <component glyphName="caron" x="0" y="315" flags="0x1004"/>
    </TTGlyph>
    <TTGlyph name="Zdotaccent" xMin="84" yMin="0" xMax="980" yMax="2009">
      <component glyphName="Z" x="0" y="0" flags="0x1004"/>
      <component glyphName="dotaccent" x="-45" y="1536" flags="0x1004"/>
    </TTGlyph>
    <TTGlyph name="a" xMin="92" yMin="-29" xMax="1228" yMax="1106">
      <contour>
        <pt x="416" y="-29" on="1"/>
        <pt x="352" y="-29" on="0"/>
        <pt x="235" y="7" on="0"/>
        <pt x="145" y="81" on="0"/>
        <pt x="92" y="194" on="0"/>
        <pt x="92" y="271" on="1"/>
        <pt x="92" y="345" on="0"/>
        <pt x="140" y="454" on="0"/>
        <pt x="221" y="532" on="0"/>
        <pt x="330" y="583" on="0"/>
        <pt x="452" y="612" on="0"/>
        <pt x="581" y="623" on="0"/>
        <pt x="642" y="623" on="1"/>
        <pt x="684" y="623" on="0"/>
        <pt x="762" y="619" on="0"/>
        <pt x="796" y="616" on="1"/>
        <pt x="794" y="679" on="0"/>
        <pt x="750" y="762" on="0"/>
        <pt x="678" y="811" on="0"/>
        <pt x="582" y="831" on="0"/>
        <pt x="529" y="831" on="1"/>
        <pt x="480" y="831" on="0"/>
        <pt x="377" y="818" on="0"/>
        <pt x="279" y="799" on="0"/>
        <pt x="190" y="777" on="0"/>
        <pt x="156" y="768" on="1"/>
        <pt x="156" y="1048" on="1"/>
        <pt x="205" y="1059" on="0"/>
        <pt x="318" y="1080" on="0"/>
        <pt x="440" y="1096" on="0"/>
        <pt x="567" y="1106" on="0"/>
        <pt x="629" y="1106" on="1"/>
        <pt x="706" y="1106" on="0"/>
        <pt x="855" y="1087" on="0"/>
        <pt x="988" y="1043" on="0"/>
        <pt x="1101" y="969" on="0"/>
        <pt x="1182" y="860" on="0"/>
        <pt x="1228" y="712" on="0"/>
        <pt x="1228" y="615" on="1"/>
        <pt x="1228" y="0" on="1"/>
        <pt x="816" y="0" on="1"/>
        <pt x="816" y="179" on="1"/>
        <pt x="792" y="130" on="0"/>
        <pt x="706" y="53" on="0"/>
        <pt x="598" y="-1" on="0"/>
        <pt x="476" y="-29" on="0"/>
      </contour>
      <contour>
        <pt x="585" y="206" on="1"/>
        <pt x="613" y="206" on="0"/>
        <pt x="686" y="237" on="0"/>
        <pt x="751" y="301" on="0"/>
        <pt x="796" y="399" on="0"/>
        <pt x="796" y="467" on="1"/>
        <pt x="763" y="467" on="1"/>
        <pt x="715" y="467" on="0"/>
        <pt x="614" y="447" on="0"/>
        <pt x="530" y="407" on="0"/>
        <pt x="476" y="349" on="0"/>
        <pt x="476" y="311" on="1"/>
        <pt x="476" y="281" on="0"/>
        <pt x="496" y="241" on="0"/>
        <pt x="527" y="216" on="0"/>
        <pt x="566" y="206" on="0"/>
      </contour>
    </TTGlyph>
    <TTGlyph name="aacute" xMin="92" yMin="-29" xMax="1228" yMax="1853">
      <component glyphName="a" x="0" y="0" flags="0x1204"/>
      <component glyphName="acute" x="79" y="0" flags="0x1004"/>
    </TTGlyph>
    <TTGlyph name="abreve" xMin="92" yMin="-29" xMax="1228" yMax="1536">
      <component glyphName="a" x="0" y="0" flags="0x1204"/>
      <component glyphName="breve" x="149" y="0" flags="0x1004"/>
    </TTGlyph>
    <TTGlyph name="acircumflex" xMin="92" yMin="-29" xMax="1228" yMax="1792">
      <component glyphName="a" x="0" y="0" flags="0x1204"/>
      <component glyphName="circumflex" x="108" y="0" flags="0x1004"/>
    </TTGlyph>
    <TTGlyph name="acute" xMin="330" yMin="1219" xMax="874" yMax="1853">
      <contour>
        <pt x="330" y="1219" on="1"/>
        <pt x="426" y="1853" on="1"/>
        <pt x="874" y="1853" on="1"/>
        <pt x="618" y="1219" on="1"/>
      </contour>
    </TTGlyph>
    <TTGlyph name="adieresis" xMin="92" yMin="-29" xMax="1228" yMax="1600">
      <component glyphName="a" x="0" y="0" flags="0x1204"/>
      <component glyphName="dieresis" x="3" y="0" flags="0x1004"/>
    </TTGlyph>
    <TTGlyph name="ae" xMin="92" yMin="-29" xMax="1906" yMax="1106">
      <contour>
        <pt x="1874" y="43" on="1"/>
        <pt x="1780" y="12" on="0"/>
        <pt x="1562" y="-29" on="0"/>
        <pt x="1444" y="-29" on="1"/>
        <pt x="1300" y="-29" on="0"/>
        <pt x="1046" y="54" on="0"/>
        <pt x="955" y="144" on="1"/>
        <pt x="913" y="103" on="0"/>
        <pt x="792" y="38" on="0"/>
        <pt x="650" y="-6" on="0"/>
        <pt x="494" y="-29" on="0"/>
        <pt x="416" y="-29" on="1"/>
        <pt x="352" y="-29" on="0"/>
        <pt x="235" y="7" on="0"/>
        <pt x="145" y="81" on="0"/>
        <pt x="92" y="194" on="0"/>
        <pt x="92" y="271" on="1"/>
        <pt x="92" y="345" on="0"/>
        <pt x="140" y="454" on="0"/>
        <pt x="221" y="532" on="0"/>
        <pt x="330" y="583" on="0"/>
        <pt x="452" y="612" on="0"/>
        <pt x="581" y="623" on="0"/>
        <pt x="642" y="623" on="1"/>
        <pt x="684" y="623" on="0"/>
        <pt x="762" y="619" on="0"/>
        <pt x="796" y="616" on="1"/>
        <pt x="794" y="679" on="0"/>
        <pt x="750" y="762" on="0"/>
        <pt x="678" y="811" on="0"/>
        <pt x="582" y="831" on="0"/>
        <pt x="529" y="831" on="1"/>
        <pt x="480" y="831" on="0"/>
        <pt x="377" y="818" on="0"/>
        <pt x="279" y="799" on="0"/>
        <pt x="190" y="777" on="0"/>
        <pt x="156" y="768" on="1"/>
        <pt x="156" y="1048" on="1"/>
        <pt x="205" y="1059" on="0"/>
        <pt x="318" y="1080" on="0"/>
        <pt x="440" y="1096" on="0"/>
        <pt x="567" y="1106" on="0"/>
        <pt x="629" y="1106" on="1"/>
        <pt x="750" y="1106" on="0"/>
        <pt x="973" y="1057" on="0"/>
        <pt x="1058" y="996" on="1"/>
        <pt x="1144" y="1050" on="0"/>
        <pt x="1341" y="1106" on="0"/>
        <pt x="1438" y="1106" on="1"/>
        <pt x="1553" y="1106" on="0"/>
        <pt x="1729" y="1055" on="0"/>
        <pt x="1846" y="969" on="0"/>
        <pt x="1906" y="855" on="0"/>
        <pt x="1906" y="791" on="1"/>
        <pt x="1906" y="713" on="0"/>
        <pt x="1853" y="603" on="0"/>
        <pt x="1764" y="528" on="0"/>
        <pt x="1647" y="485" on="0"/>
        <pt x="1517" y="462" on="0"/>
        <pt x="1382" y="456" on="0"/>
        <pt x="1321" y="456" on="1"/>
        <pt x="1300" y="456" on="0"/>
        <pt x="1261" y="457" on="0"/>
        <pt x="1242" y="457" on="1"/>
        <pt x="1250" y="400" on="0"/>
        <pt x="1297" y="322" on="0"/>
        <pt x="1368" y="273" on="0"/>
        <pt x="1461" y="252" on="0"/>
        <pt x="1514" y="252" on="1"/>
        <pt x="1554" y="252" on="0"/>
        <pt x="1645" y="264" on="0"/>
        <pt x="1738" y="285" on="0"/>
        <pt x="1831" y="312" on="0"/>
        <pt x="1874" y="327" on="1"/>
      </contour>
      <contour>
        <pt x="1233" y="611" on="1"/>
        <pt x="1257" y="612" on="0"/>
        <pt x="1332" y="616" on="0"/>
        <pt x="1416" y="626" on="0"/>
        <pt x="1500" y="644" on="0"/>
        <pt x="1568" y="672" on="0"/>
        <pt x="1610" y="714" on="0"/>
        <pt x="1610" y="744" on="1"/>
        <pt x="1610" y="795" on="0"/>
        <pt x="1529" y="856" on="0"/>
        <pt x="1457" y="856" on="1"/>
        <pt x="1424" y="856" on="0"/>
        <pt x="1348" y="837" on="0"/>
        <pt x="1282" y="783" on="0"/>
        <pt x="1236" y="687" on="0"/>
      </contour>
      <contour>
        <pt x="585" y="206" on="1"/>
        <pt x="613" y="206" on="0"/>
        <pt x="686" y="237" on="0"/>
        <pt x="751" y="301" on="0"/>
        <pt x="796" y="399" on="0"/>
        <pt x="796" y="467" on="1"/>
        <pt x="763" y="467" on="1"/>
        <pt x="715" y="467" on="0"/>
        <pt x="614" y="447" on="0"/>
        <pt x="530" y="407" on="0"/>
        <pt x="476" y="349" on="0"/>
        <pt x="476" y="311" on="1"/>
        <pt x="476" y="281" on="0"/>
        <pt x="496" y="241" on="0"/>
        <pt x="527" y="216" on="0"/>
        <pt x="566" y="206" on="0"/>
      </contour>
    </TTGlyph>
    <TTGlyph name="agrave" xMin="92" yMin="-29" xMax="1228" yMax="1853">
      <component glyphName="a" x="0" y="0" flags="0x1204"/>
      <component glyphName="grave" x="79" y="0" flags="0x1004"/>
    </TTGlyph>
    <TTGlyph name="ampersand" xMin="113" yMin="-29" xMax="1683" yMax="1441">
      <contour>
        <pt x="1329" y="456" on="1"/>
        <pt x="1329" y="420" on="0"/>
        <pt x="1340" y="354" on="0"/>
        <pt x="1374" y="304" on="0"/>
        <pt x="1438" y="274" on="0"/>
        <pt x="1491" y="274" on="1"/>
        <pt x="1525" y="274" on="0"/>
        <pt x="1607" y="288" on="0"/>
        <pt x="1659" y="305" on="1"/>
        <pt x="1683" y="23" on="1"/>
        <pt x="1620" y="0" on="0"/>
        <pt x="1457" y="-29" on="0"/>
        <pt x="1366" y="-29" on="1"/>
        <pt x="1328" y="-29" on="0"/>
        <pt x="1245" y="-20" on="0"/>
        <pt x="1203" y="-8" on="1"/>
        <pt x="1177" y="-1" on="0"/>
        <pt x="1137" y="27" on="0"/>
        <pt x="1106" y="63" on="0"/>
        <pt x="1082" y="104" on="0"/>
        <pt x="1072" y="125" on="1"/>
        <pt x="1025" y="55" on="0"/>
        <pt x="824" y="-29" on="0"/>
        <pt x="657" y="-29" on="1"/>
        <pt x="514" y="-29" on="0"/>
        <pt x="308" y="35" on="0"/>
        <pt x="176" y="147" on="0"/>
        <pt x="113" y="297" on="0"/>
        <pt x="113" y="384" on="1"/>
        <pt x="113" y="441" on="0"/>
        <pt x="160" y="562" on="0"/>
        <pt x="250" y="663" on="0"/>
        <pt x="381" y="731" on="0"/>
        <pt x="465" y="736" on="1"/>
        <pt x="388" y="749" on="0"/>
        <pt x="289" y="813" on="0"/>
        <pt x="232" y="900" on="0"/>
        <pt x="210" y="1003" on="0"/>
        <pt x="210" y="1056" on="1"/>
        <pt x="210" y="1135" on="0"/>
        <pt x="270" y="1253" on="0"/>
        <pt x="370" y="1339" on="0"/>
        <pt x="501" y="1395" on="0"/>
        <pt x="643" y="1428" on="0"/>
        <pt x="786" y="1441" on="0"/>
        <pt x="849" y="1441" on="1"/>
        <pt x="894" y="1441" on="0"/>
        <pt x="1013" y="1431" on="0"/>
        <pt x="1136" y="1414" on="0"/>
        <pt x="1253" y="1390" on="0"/>
        <pt x="1297" y="1376" on="1"/>
        <pt x="1233" y="1088" on="1"/>
        <pt x="1152" y="1105" on="0"/>
        <pt x="931" y="1120" on="0"/>
        <pt x="873" y="1120" on="1"/>
        <pt x="807" y="1120" on="0"/>
        <pt x="693" y="1114" on="0"/>
        <pt x="609" y="1084" on="0"/>
        <pt x="561" y="1022" on="0"/>
        <pt x="561" y="965" on="1"/>
        <pt x="561" y="936" on="0"/>
        <pt x="569" y="894" on="0"/>
        <pt x="584" y="862" on="0"/>
        <pt x="606" y="838" on="0"/>
        <pt x="620" y="827" on="1"/>
        <pt x="648" y="805" on="0"/>
        <pt x="725" y="778" on="0"/>
        <pt x="773" y="778" on="1"/>
        <pt x="923" y="778" on="1"/>
        <pt x="923" y="938" on="1"/>
        <pt x="1329" y="938" on="1"/>
      </contour>
      <contour>
        <pt x="937" y="289" on="1"/>
        <pt x="935" y="294" on="0"/>
        <pt x="930" y="325" on="0"/>
        <pt x="926" y="388" on="0"/>
        <pt x="923" y="489" on="0"/>
        <pt x="923" y="564" on="1"/>
        <pt x="812" y="564" on="0"/>
        <pt x="671" y="548" on="0"/>
        <pt x="591" y="512" on="0"/>
        <pt x="561" y="456" on="0"/>
        <pt x="561" y="416" on="1"/>
        <pt x="561" y="389" on="0"/>
        <pt x="580" y="333" on="0"/>
        <pt x="625" y="286" on="0"/>
        <pt x="698" y="256" on="0"/>
        <pt x="753" y="256" on="1"/>
        <pt x="789" y="256" on="0"/>
        <pt x="880" y="271" on="0"/>
      </contour>
    </TTGlyph>
    <TTGlyph name="aogonek" xMin="92" yMin="-672" xMax="1228" yMax="1106">
      <component glyphName="a" x="0" y="0" flags="0x1204"/>
      <component glyphName="ogonek" x="327" y="0" flags="0x1004"/>
    </TTGlyph>
    <TTGlyph name="approxequal" xMin="197" yMin="257" xMax="1476" yMax="1360">
      <contour>
        <pt x="1027" y="836" on="1"/>
        <pt x="988" y="836" on="0"/>
        <pt x="913" y="864" on="0"/>
        <pt x="838" y="907" on="0"/>
        <pt x="765" y="956" on="0"/>
        <pt x="693" y="999" on="0"/>
        <pt x="622" y="1027" on="0"/>
        <pt x="587" y="1027" on="1"/>
        <pt x="530" y="1027" on="0"/>
        <pt x="444" y="962" on="0"/>
        <pt x="427" y="893" on="1"/>
        <pt x="197" y="976" on="1"/>
        <pt x="233" y="1075" on="0"/>
        <pt x="332" y="1219" on="0"/>
        <pt x="449" y="1314" on="0"/>
        <pt x="581" y="1360" on="0"/>
        <pt x="651" y="1360" on="1"/>
        <pt x="689" y="1360" on="0"/>
        <pt x="765" y="1332" on="0"/>
        <pt x="840" y="1289" on="0"/>
        <pt x="913" y="1240" on="0"/>
        <pt x="985" y="1197" on="0"/>
        <pt x="1055" y="1169" on="0"/>
        <pt x="1090" y="1169" on="1"/>
        <pt x="1147" y="1169" on="0"/>
        <pt x="1228" y="1218" on="0"/>
        <pt x="1245" y="1272" on="1"/>
        <pt x="1476" y="1189" on="1"/>
        <pt x="1441" y="1098" on="0"/>
        <pt x="1344" y="965" on="0"/>
        <pt x="1227" y="878" on="0"/>
        <pt x="1096" y="836" on="0"/>
      </contour>
      <contour>
        <pt x="1027" y="257" on="1"/>
        <pt x="988" y="257" on="0"/>
        <pt x="913" y="285" on="0"/>
        <pt x="838" y="328" on="0"/>
        <pt x="765" y="377" on="0"/>
        <pt x="693" y="420" on="0"/>
        <pt x="622" y="448" on="0"/>
        <pt x="587" y="448" on="1"/>
        <pt x="530" y="448" on="0"/>
        <pt x="444" y="383" on="0"/>
        <pt x="427" y="314" on="1"/>
        <pt x="197" y="397" on="1"/>
        <pt x="233" y="496" on="0"/>
        <pt x="332" y="640" on="0"/>
        <pt x="449" y="735" on="0"/>
        <pt x="581" y="781" on="0"/>
        <pt x="651" y="781" on="1"/>
        <pt x="689" y="781" on="0"/>
        <pt x="765" y="753" on="0"/>
        <pt x="840" y="710" on="0"/>
        <pt x="913" y="661" on="0"/>
        <pt x="985" y="618" on="0"/>
        <pt x="1055" y="590" on="0"/>
        <pt x="1090" y="590" on="1"/>
        <pt x="1147" y="590" on="0"/>
        <pt x="1228" y="639" on="0"/>
        <pt x="1245" y="693" on="1"/>
        <pt x="1476" y="610" on="1"/>
        <pt x="1441" y="519" on="0"/>
        <pt x="1344" y="386" on="0"/>
        <pt x="1227" y="299" on="0"/>
        <pt x="1096" y="257" on="0"/>
      </contour>
    </TTGlyph>
    <TTGlyph name="aring" xMin="92" yMin="-29" xMax="1228" yMax="1600">
      <component glyphName="a" x="0" y="0" flags="0x1204"/>
      <component glyphName="ring" x="250" y="0" flags="0x1004"/>
    </TTGlyph>
    <TTGlyph name="asciicircum" xMin="188" yMin="512" xMax="1188" yMax="1200">
      <contour>
        <pt x="188" y="512" on="1"/>
        <pt x="488" y="1200" on="1"/>
        <pt x="888" y="1200" on="1"/>
        <pt x="1188" y="512" on="1"/>
        <pt x="844" y="512" on="1"/>
        <pt x="688" y="1000" on="1"/>
        <pt x="537" y="512" on="1"/>
      </contour>
    </TTGlyph>
    <TTGlyph name="asciitilde" xMin="197" yMin="836" xMax="1476" yMax="1360">
      <contour>
        <pt x="1027" y="836" on="1"/>
        <pt x="988" y="836" on="0"/>
        <pt x="913" y="864" on="0"/>
        <pt x="838" y="907" on="0"/>
        <pt x="765" y="956" on="0"/>
        <pt x="693" y="999" on="0"/>
        <pt x="622" y="1027" on="0"/>
        <pt x="587" y="1027" on="1"/>
        <pt x="530" y="1027" on="0"/>
        <pt x="444" y="962" on="0"/>
        <pt x="427" y="893" on="1"/>
        <pt x="197" y="976" on="1"/>
        <pt x="233" y="1075" on="0"/>
        <pt x="332" y="1219" on="0"/>
        <pt x="449" y="1314" on="0"/>
        <pt x="581" y="1360" on="0"/>
        <pt x="651" y="1360" on="1"/>
        <pt x="689" y="1360" on="0"/>
        <pt x="765" y="1332" on="0"/>
        <pt x="840" y="1289" on="0"/>
        <pt x="913" y="1240" on="0"/>
        <pt x="985" y="1197" on="0"/>
        <pt x="1055" y="1169" on="0"/>
        <pt x="1090" y="1169" on="1"/>
        <pt x="1147" y="1169" on="0"/>
        <pt x="1228" y="1218" on="0"/>
        <pt x="1245" y="1272" on="1"/>
        <pt x="1476" y="1189" on="1"/>
        <pt x="1441" y="1098" on="0"/>
        <pt x="1344" y="965" on="0"/>
        <pt x="1227" y="878" on="0"/>
        <pt x="1096" y="836" on="0"/>
      </contour>
    </TTGlyph>
    <TTGlyph name="asterisk" xMin="39" yMin="473" xMax="999" yMax="1496">
      <contour>
        <pt x="391" y="473" on="1"/>
        <pt x="198" y="565" on="1"/>
        <pt x="350" y="866" on="1"/>
        <pt x="39" y="866" on="1"/>
        <pt x="39" y="1086" on="1"/>
        <pt x="350" y="1086" on="1"/>
        <pt x="198" y="1404" on="1"/>
        <pt x="391" y="1496" on="1"/>
        <pt x="519" y="1199" on="1"/>
        <pt x="647" y="1496" on="1"/>
        <pt x="840" y="1404" on="1"/>
        <pt x="688" y="1103" on="1"/>
        <pt x="999" y="1103" on="1"/>
        <pt x="999" y="883" on="1"/>
        <pt x="688" y="883" on="1"/>
        <pt x="840" y="565" on="1"/>
        <pt x="647" y="473" on="1"/>
        <pt x="519" y="770" on="1"/>
      </contour>
    </TTGlyph>
    <TTGlyph name="at" xMin="123" yMin="-220" xMax="2251" yMax="1440">
      <contour>
        <pt x="1780" y="273" on="1"/>
        <pt x="1835" y="273" on="0"/>
        <pt x="1881" y="437" on="0"/>
        <pt x="1881" y="603" on="1"/>
        <pt x="1881" y="729" on="0"/>
        <pt x="1802" y="934" on="0"/>
        <pt x="1643" y="1078" on="0"/>
        <pt x="1406" y="1156" on="0"/>
        <pt x="1248" y="1156" on="1"/>
        <pt x="1097" y="1156" on="0"/>
        <pt x="830" y="1091" on="0"/>
        <pt x="630" y="950" on="0"/>
        <pt x="514" y="727" on="0"/>
        <pt x="514" y="569" on="1"/>
        <pt x="514" y="402" on="0"/>
        <pt x="628" y="177" on="0"/>
        <pt x="849" y="39" on="0"/>
        <pt x="1175" y="-25" on="0"/>
        <pt x="1387" y="-29" on="1"/>
        <pt x="1418" y="-189" on="1"/>
        <pt x="1375" y="-204" on="0"/>
        <pt x="1236" y="-220" on="0"/>
        <pt x="1137" y="-220" on="1"/>
        <pt x="939" y="-220" on="0"/>
        <pt x="797" y="-189" on="1"/>
        <pt x="628" y="-153" on="0"/>
        <pt x="375" y="-3" on="0"/>
        <pt x="207" y="199" on="0"/>
        <pt x="123" y="440" on="0"/>
        <pt x="123" y="566" on="1"/>
        <pt x="123" y="725" on="0"/>
        <pt x="209" y="978" on="0"/>
        <pt x="360" y="1172" on="0"/>
        <pt x="569" y="1311" on="0"/>
        <pt x="816" y="1399" on="0"/>
        <pt x="1090" y="1440" on="0"/>
        <pt x="1232" y="1440" on="1"/>
        <pt x="1362" y="1440" on="0"/>
        <pt x="1614" y="1404" on="0"/>
        <pt x="1840" y="1326" on="0"/>
        <pt x="2032" y="1203" on="0"/>
        <pt x="2172" y="1029" on="0"/>
        <pt x="2251" y="800" on="0"/>
        <pt x="2251" y="656" on="1"/>
        <pt x="2251" y="579" on="0"/>
        <pt x="2225" y="431" on="0"/>
        <pt x="2171" y="298" on="0"/>
        <pt x="2090" y="186" on="0"/>
        <pt x="1980" y="104" on="0"/>
        <pt x="1841" y="58" on="0"/>
        <pt x="1757" y="58" on="1"/>
        <pt x="1692" y="58" on="0"/>
        <pt x="1586" y="87" on="0"/>
        <pt x="1500" y="144" on="0"/>
        <pt x="1432" y="229" on="0"/>
        <pt x="1404" y="286" on="1"/>
        <pt x="1389" y="257" on="0"/>
        <pt x="1338" y="208" on="0"/>
        <pt x="1270" y="171" on="0"/>
        <pt x="1187" y="150" on="0"/>
        <pt x="1141" y="150" on="1"/>
        <pt x="1030" y="150" on="0"/>
        <pt x="857" y="220" on="0"/>
        <pt x="739" y="338" on="0"/>
        <pt x="678" y="495" on="0"/>
        <pt x="678" y="582" on="1"/>
        <pt x="678" y="659" on="0"/>
        <pt x="735" y="802" on="0"/>
        <pt x="840" y="911" on="0"/>
        <pt x="990" y="977" on="0"/>
        <pt x="1083" y="977" on="1"/>
        <pt x="1269" y="977" on="0"/>
        <pt x="1356" y="823" on="1"/>
        <pt x="1387" y="929" on="1"/>
        <pt x="1592" y="929" on="1"/>
        <pt x="1674" y="809" on="1"/>
        <pt x="1674" y="397" on="1"/>
        <pt x="1674" y="353" on="0"/>
        <pt x="1697" y="304" on="0"/>
        <pt x="1730" y="279" on="0"/>
        <pt x="1767" y="273" on="0"/>
      </contour>
      <contour>
        <pt x="1356" y="700" on="1"/>
        <pt x="1278" y="760" on="0"/>
        <pt x="1218" y="760" on="1"/>
        <pt x="1161" y="760" on="0"/>
        <pt x="1084" y="729" on="0"/>
        <pt x="1037" y="679" on="0"/>
        <pt x="1017" y="615" on="0"/>
        <pt x="1017" y="582" on="1"/>
        <pt x="1017" y="543" on="0"/>
        <pt x="1047" y="475" on="0"/>
        <pt x="1099" y="426" on="0"/>
        <pt x="1169" y="397" on="0"/>
        <pt x="1208" y="397" on="1"/>
        <pt x="1287" y="397" on="0"/>
        <pt x="1356" y="428" on="1"/>
      </contour>
    </TTGlyph>
    <TTGlyph name="atilde" xMin="92" yMin="-29" xMax="1228" yMax="1676">
      <component glyphName="a" x="0" y="0" flags="0x1204"/>
      <component glyphName="tilde" x="3" y="0" flags="0x1004"/>
    </TTGlyph>
    <TTGlyph name="b" xMin="156" yMin="-29" xMax="1435" yMax="1536">
      <contour>
        <pt x="948" y="-29" on="1"/>
        <pt x="894" y="-29" on="0"/>
        <pt x="788" y="-1" on="0"/>
        <pt x="693" y="52" on="0"/>
        <pt x="615" y="129" on="0"/>
        <pt x="588" y="178" on="1"/>
        <pt x="588" y="0" on="1"/>
        <pt x="156" y="0" on="1"/>
        <pt x="156" y="1536" on="1"/>
        <pt x="588" y="1536" on="1"/>
        <pt x="588" y="931" on="1"/>
        <pt x="611" y="969" on="0"/>
        <pt x="691" y="1033" on="0"/>
        <pt x="791" y="1080" on="0"/>
        <pt x="905" y="1106" on="0"/>
        <pt x="962" y="1106" on="1"/>
        <pt x="1052" y="1106" on="0"/>
        <pt x="1222" y="1046" on="0"/>
        <pt x="1354" y="911" on="0"/>
        <pt x="1435" y="694" on="0"/>
        <pt x="1435" y="538" on="1"/>
        <pt x="1435" y="390" on="0"/>
        <pt x="1356" y="176" on="0"/>
        <pt x="1223" y="37" on="0"/>
        <pt x="1046" y="-29" on="0"/>
      </contour>
      <contour>
        <pt x="1003" y="537" on="1"/>
        <pt x="1003" y="619" on="0"/>
        <pt x="967" y="730" on="0"/>
        <pt x="907" y="798" on="0"/>
        <pt x="832" y="827" on="0"/>
        <pt x="793" y="827" on="1"/>
        <pt x="754" y="827" on="0"/>
        <pt x="681" y="798" on="0"/>
        <pt x="623" y="730" on="0"/>
        <pt x="588" y="619" on="0"/>
        <pt x="588" y="538" on="1"/>
        <pt x="588" y="456" on="0"/>
        <pt x="623" y="345" on="0"/>
        <pt x="681" y="278" on="0"/>
        <pt x="755" y="249" on="0"/>
        <pt x="794" y="249" on="1"/>
        <pt x="833" y="249" on="0"/>
        <pt x="908" y="278" on="0"/>
        <pt x="967" y="345" on="0"/>
        <pt x="1003" y="455" on="0"/>
      </contour>
    </TTGlyph>
    <TTGlyph name="backslash" xMin="0" yMin="0" xMax="853" yMax="1441">
      <contour>
        <pt x="451" y="1441" on="1"/>
        <pt x="853" y="0" on="1"/>
        <pt x="402" y="0" on="1"/>
        <pt x="0" y="1441" on="1"/>
      </contour>
    </TTGlyph>
    <TTGlyph name="bar" xMin="236" yMin="-100" xMax="636" yMax="1600">
      <contour>
        <pt x="236" y="1600" on="1"/>
        <pt x="636" y="1600" on="1"/>
        <pt x="636" y="-100" on="1"/>
        <pt x="236" y="-100" on="1"/>
      </contour>
    </TTGlyph>
    <TTGlyph name="braceleft" xMin="231" yMin="-111" xMax="931" yMax="1636">
      <contour>
        <pt x="381" y="1055" on="1"/>
        <pt x="381" y="1172" on="0"/>
        <pt x="453" y="1383" on="0"/>
        <pt x="593" y="1542" on="0"/>
        <pt x="798" y="1636" on="0"/>
        <pt x="931" y="1636" on="1"/>
        <pt x="931" y="1409" on="1"/>
        <pt x="893" y="1409" on="0"/>
        <pt x="853" y="1363" on="0"/>
        <pt x="834" y="1289" on="0"/>
        <pt x="831" y="1194" on="0"/>
        <pt x="831" y="1145" on="1"/>
        <pt x="831" y="1089" on="0"/>
        <pt x="795" y="968" on="0"/>
        <pt x="721" y="862" on="0"/>
        <pt x="608" y="780" on="0"/>
        <pt x="531" y="762" on="1"/>
        <pt x="608" y="743" on="0"/>
        <pt x="721" y="655" on="0"/>
        <pt x="795" y="540" on="0"/>
        <pt x="831" y="410" on="0"/>
        <pt x="831" y="350" on="1"/>
        <pt x="831" y="306" on="0"/>
        <pt x="834" y="222" on="0"/>
        <pt x="853" y="156" on="0"/>
        <pt x="894" y="116" on="0"/>
        <pt x="931" y="116" on="1"/>
        <pt x="931" y="-111" on="1"/>
        <pt x="798" y="-111" on="0"/>
        <pt x="593" y="-17" on="0"/>
        <pt x="453" y="142" on="0"/>
        <pt x="381" y="353" on="0"/>
        <pt x="381" y="470" on="1"/>
        <pt x="381" y="507" on="0"/>
        <pt x="357" y="559" on="0"/>
        <pt x="316" y="590" on="0"/>
        <pt x="262" y="604" on="0"/>
        <pt x="231" y="604" on="1"/>
        <pt x="231" y="921" on="1"/>
        <pt x="262" y="921" on="0"/>
        <pt x="316" y="935" on="0"/>
        <pt x="357" y="966" on="0"/>
        <pt x="381" y="1017" on="0"/>
      </contour>
    </TTGlyph>
    <TTGlyph name="braceright" xMin="231" yMin="-111" xMax="931" yMax="1636">
      <contour>
        <pt x="781" y="1055" on="1"/>
        <pt x="781" y="1017" on="0"/>
        <pt x="805" y="966" on="0"/>
        <pt x="846" y="935" on="0"/>
        <pt x="900" y="921" on="0"/>
        <pt x="931" y="921" on="1"/>
        <pt x="931" y="604" on="1"/>
        <pt x="900" y="604" on="0"/>
        <pt x="846" y="590" on="0"/>
        <pt x="805" y="559" on="0"/>
        <pt x="781" y="507" on="0"/>
        <pt x="781" y="470" on="1"/>
        <pt x="781" y="353" on="0"/>
        <pt x="709" y="142" on="0"/>
        <pt x="569" y="-17" on="0"/>
        <pt x="364" y="-111" on="0"/>
        <pt x="231" y="-111" on="1"/>
        <pt x="231" y="116" on="1"/>
        <pt x="268" y="116" on="0"/>
        <pt x="309" y="156" on="0"/>
        <pt x="328" y="222" on="0"/>
        <pt x="331" y="306" on="0"/>
        <pt x="331" y="350" on="1"/>
        <pt x="331" y="410" on="0"/>
        <pt x="367" y="540" on="0"/>
        <pt x="441" y="655" on="0"/>
        <pt x="554" y="743" on="0"/>
        <pt x="631" y="762" on="1"/>
        <pt x="554" y="780" on="0"/>
        <pt x="441" y="862" on="0"/>
        <pt x="367" y="968" on="0"/>
        <pt x="331" y="1089" on="0"/>
        <pt x="331" y="1145" on="1"/>
        <pt x="331" y="1194" on="0"/>
        <pt x="328" y="1289" on="0"/>
        <pt x="309" y="1363" on="0"/>
        <pt x="268" y="1409" on="0"/>
        <pt x="231" y="1409" on="1"/>
        <pt x="231" y="1636" on="1"/>
        <pt x="364" y="1636" on="0"/>
        <pt x="569" y="1542" on="0"/>
        <pt x="709" y="1383" on="0"/>
        <pt x="781" y="1172" on="0"/>
      </contour>
    </TTGlyph>
    <TTGlyph name="bracketleft" xMin="180" yMin="0" xMax="881" yMax="1441">
      <contour>
        <pt x="180" y="1441" on="1"/>
        <pt x="881" y="1441" on="1"/>
        <pt x="881" y="1152" on="1"/>
        <pt x="612" y="1152" on="1"/>
        <pt x="612" y="289" on="1"/>
        <pt x="881" y="289" on="1"/>
        <pt x="881" y="0" on="1"/>
        <pt x="180" y="0" on="1"/>
      </contour>
    </TTGlyph>
    <TTGlyph name="bracketright" xMin="147" yMin="0" xMax="848" yMax="1441">
      <contour>
        <pt x="848" y="0" on="1"/>
        <pt x="147" y="0" on="1"/>
        <pt x="147" y="289" on="1"/>
        <pt x="416" y="289" on="1"/>
        <pt x="416" y="1152" on="1"/>
        <pt x="147" y="1152" on="1"/>
        <pt x="147" y="1441" on="1"/>
        <pt x="848" y="1441" on="1"/>
      </contour>
    </TTGlyph>
    <TTGlyph name="breve" xMin="160" yMin="1191" xMax="904" yMax="1536">
      <contour>
        <pt x="904" y="1536" on="1"/>
        <pt x="904" y="1444" on="0"/>
        <pt x="843" y="1314" on="0"/>
        <pt x="740" y="1230" on="0"/>
        <pt x="605" y="1191" on="0"/>
        <pt x="532" y="1191" on="1"/>
        <pt x="448" y="1191" on="0"/>
        <pt x="311" y="1230" on="0"/>
        <pt x="214" y="1314" on="0"/>
        <pt x="160" y="1444" on="0"/>
        <pt x="160" y="1536" on="1"/>
        <pt x="372" y="1536" on="1"/>
        <pt x="372" y="1502" on="0"/>
        <pt x="399" y="1456" on="0"/>
        <pt x="444" y="1429" on="0"/>
        <pt x="502" y="1417" on="0"/>
        <pt x="532" y="1417" on="1"/>
        <pt x="562" y="1417" on="0"/>
        <pt x="619" y="1429" on="0"/>
        <pt x="664" y="1456" on="0"/>
        <pt x="692" y="1502" on="0"/>
        <pt x="692" y="1536" on="1"/>
      </contour>
    </TTGlyph>
    <TTGlyph name="brokenbar" xMin="162" yMin="-96" xMax="546" yMax="1600">
      <contour>
        <pt x="162" y="1600" on="1"/>
        <pt x="546" y="1600" on="1"/>
        <pt x="546" y="864" on="1"/>
        <pt x="162" y="864" on="1"/>
      </contour>
      <contour>
        <pt x="162" y="640" on="1"/>
        <pt x="546" y="640" on="1"/>
        <pt x="546" y="-96" on="1"/>
        <pt x="162" y="-96" on="1"/>
      </contour>
    </TTGlyph>
    <TTGlyph name="bullet" xMin="266" yMin="300" xMax="853" yMax="899">
      <contour>
        <pt x="560" y="300" on="1"/>
        <pt x="486" y="300" on="0"/>
        <pt x="376" y="351" on="0"/>
        <pt x="302" y="434" on="0"/>
        <pt x="266" y="540" on="0"/>
        <pt x="266" y="596" on="1"/>
        <pt x="266" y="653" on="0"/>
        <pt x="303" y="761" on="0"/>
        <pt x="377" y="847" on="0"/>
        <pt x="487" y="899" on="0"/>
        <pt x="560" y="899" on="1"/>
        <pt x="633" y="899" on="0"/>
        <pt x="742" y="847" on="0"/>
        <pt x="816" y="762" on="0"/>
        <pt x="853" y="653" on="0"/>
        <pt x="853" y="597" on="1"/>
        <pt x="853" y="541" on="0"/>
        <pt x="817" y="434" on="0"/>
        <pt x="743" y="351" on="0"/>
        <pt x="633" y="300" on="0"/>
      </contour>
    </TTGlyph>
    <TTGlyph name="c" xMin="80" yMin="-29" xMax="1088" yMax="1107">
      <contour>
        <pt x="512" y="538" on="1"/>
        <pt x="512" y="465" on="0"/>
        <pt x="547" y="357" on="0"/>
        <pt x="611" y="286" on="0"/>
        <pt x="701" y="251" on="0"/>
        <pt x="757" y="251" on="1"/>
        <pt x="829" y="251" on="0"/>
        <pt x="957" y="290" on="0"/>
        <pt x="1024" y="324" on="1"/>
        <pt x="1088" y="64" on="1"/>
        <pt x="1044" y="41" on="0"/>
        <pt x="942" y="6" on="0"/>
        <pt x="834" y="-17" on="0"/>
        <pt x="723" y="-29" on="0"/>
        <pt x="670" y="-29" on="1"/>
        <pt x="549" y="-29" on="0"/>
        <pt x="335" y="39" on="0"/>
        <pt x="174" y="179" on="0"/>
        <pt x="80" y="393" on="0"/>
        <pt x="80" y="539" on="1"/>
        <pt x="80" y="685" on="0"/>
        <pt x="174" y="899" on="0"/>
        <pt x="335" y="1039" on="0"/>
        <pt x="549" y="1107" on="0"/>
        <pt x="670" y="1107" on="1"/>
        <pt x="723" y="1107" on="0"/>
        <pt x="834" y="1095" on="0"/>
        <pt x="942" y="1072" on="0"/>
        <pt x="1044" y="1037" on="0"/>
        <pt x="1088" y="1014" on="1"/>
        <pt x="1024" y="754" on="1"/>
        <pt x="957" y="788" on="0"/>
        <pt x="829" y="827" on="0"/>
        <pt x="757" y="827" on="1"/>
        <pt x="701" y="827" on="0"/>
        <pt x="611" y="792" on="0"/>
        <pt x="547" y="720" on="0"/>
        <pt x="512" y="611" on="0"/>
      </contour>
    </TTGlyph>
    <TTGlyph name="cacute" xMin="80" yMin="-29" xMax="1088" yMax="1853">
      <component glyphName="c" x="0" y="0" flags="0x1204"/>
      <component glyphName="acute" x="137" y="0" flags="0x1004"/>
    </TTGlyph>
    <TTGlyph name="caron" xMin="123" yMin="1248" xMax="1021" yMax="1792">
      <contour>
        <pt x="316" y="1248" on="1"/>
        <pt x="123" y="1792" on="1"/>
        <pt x="412" y="1792" on="1"/>
        <pt x="572" y="1411" on="1"/>
        <pt x="732" y="1792" on="1"/>
        <pt x="1021" y="1792" on="1"/>
        <pt x="828" y="1248" on="1"/>
      </contour>
    </TTGlyph>
    <TTGlyph name="ccaron" xMin="80" yMin="-29" xMax="1088" yMax="1792">
      <component glyphName="c" x="0" y="0" flags="0x1204"/>
      <component glyphName="caron" x="34" y="0" flags="0x1004"/>
    </TTGlyph>
    <TTGlyph name="ccedilla" xMin="80" yMin="-788" xMax="1088" yMax="1107">
      <component glyphName="c" x="0" y="0" flags="0x1204"/>
      <component glyphName="cedilla" x="293" y="0" flags="0x1004"/>
    </TTGlyph>
    <TTGlyph name="cedilla" xMin="238" yMin="-788" xMax="791" yMax="0">
      <contour>
        <pt x="238" y="0" on="1"/>
        <pt x="438" y="0" on="1"/>
        <pt x="438" y="-100" on="1"/>
        <pt x="524" y="-100" on="0"/>
        <pt x="656" y="-158" on="0"/>
        <pt x="745" y="-253" on="0"/>
        <pt x="791" y="-374" on="0"/>
        <pt x="791" y="-438" on="1"/>
        <pt x="791" y="-503" on="0"/>
        <pt x="742" y="-629" on="0"/>
        <pt x="640" y="-728" on="0"/>
        <pt x="485" y="-788" on="0"/>
        <pt x="380" y="-788" on="1"/>
        <pt x="347" y="-788" on="0"/>
        <pt x="276" y="-781" on="0"/>
        <pt x="238" y="-774" on="1"/>
        <pt x="238" y="-478" on="1"/>
        <pt x="289" y="-487" on="0"/>
        <pt x="329" y="-487" on="1"/>
        <pt x="368" y="-487" on="0"/>
        <pt x="427" y="-465" on="0"/>
        <pt x="466" y="-430" on="0"/>
        <pt x="486" y="-385" on="0"/>
        <pt x="486" y="-361" on="1"/>
        <pt x="486" y="-338" on="0"/>
        <pt x="467" y="-294" on="0"/>
        <pt x="430" y="-259" on="0"/>
        <pt x="373" y="-238" on="0"/>
        <pt x="335" y="-238" on="1"/>
        <pt x="290" y="-238" on="0"/>
        <pt x="238" y="-256" on="1"/>
      </contour>
    </TTGlyph>
    <TTGlyph name="cent" xMin="80" yMin="0" xMax="1088" yMax="1441">
      <contour>
        <pt x="840" y="0" on="1"/>
        <pt x="623" y="0" on="1"/>
        <pt x="623" y="136" on="1"/>
        <pt x="528" y="141" on="0"/>
        <pt x="442" y="169" on="1"/>
        <pt x="335" y="203" on="0"/>
        <pt x="174" y="343" on="0"/>
        <pt x="80" y="557" on="0"/>
        <pt x="80" y="703" on="1"/>
        <pt x="80" y="849" on="0"/>
        <pt x="174" y="1063" on="0"/>
        <pt x="335" y="1203" on="0"/>
        <pt x="442" y="1237" on="1"/>
        <pt x="528" y="1264" on="0"/>
        <pt x="623" y="1270" on="1"/>
        <pt x="623" y="1441" on="1"/>
        <pt x="840" y="1441" on="1"/>
        <pt x="840" y="1256" on="1"/>
        <pt x="864" y="1252" on="0"/>
        <pt x="888" y="1247" on="1"/>
        <pt x="942" y="1236" on="0"/>
        <pt x="1044" y="1201" on="0"/>
        <pt x="1088" y="1178" on="1"/>
        <pt x="1024" y="918" on="1"/>
        <pt x="957" y="952" on="0"/>
        <pt x="893" y="971" on="1"/>
        <pt x="867" y="979" on="0"/>
        <pt x="840" y="984" on="1"/>
        <pt x="840" y="422" on="1"/>
        <pt x="867" y="426" on="0"/>
        <pt x="893" y="434" on="1"/>
        <pt x="957" y="454" on="0"/>
        <pt x="1024" y="488" on="1"/>
        <pt x="1088" y="228" on="1"/>
        <pt x="1044" y="205" on="0"/>
        <pt x="942" y="170" on="0"/>
        <pt x="888" y="158" on="1"/>
        <pt x="864" y="153" on="0"/>
        <pt x="840" y="149" on="1"/>
      </contour>
      <contour>
        <pt x="512" y="702" on="1"/>
        <pt x="512" y="629" on="0"/>
        <pt x="547" y="521" on="0"/>
        <pt x="579" y="485" on="1"/>
        <pt x="598" y="464" on="0"/>
        <pt x="623" y="448" on="1"/>
        <pt x="623" y="957" on="1"/>
        <pt x="598" y="942" on="0"/>
        <pt x="579" y="920" on="1"/>
        <pt x="547" y="884" on="0"/>
        <pt x="512" y="775" on="0"/>
      </contour>
    </TTGlyph>
    <TTGlyph name="circumflex" xMin="123" yMin="1248" xMax="1023" yMax="1792">
      <contour>
        <pt x="723" y="1248" on="1"/>
        <pt x="573" y="1650" on="1"/>
        <pt x="423" y="1248" on="1"/>
        <pt x="123" y="1248" on="1"/>
        <pt x="323" y="1792" on="1"/>
        <pt x="823" y="1792" on="1"/>
        <pt x="1023" y="1248" on="1"/>
      </contour>
    </TTGlyph>
    <TTGlyph name="colon" xMin="209" yMin="0" xMax="721" yMax="1156">
      <contour>
        <pt x="465" y="0" on="1"/>
        <pt x="400" y="0" on="0"/>
        <pt x="303" y="42" on="0"/>
        <pt x="240" y="110" on="0"/>
        <pt x="209" y="195" on="0"/>
        <pt x="209" y="239" on="1"/>
        <pt x="209" y="284" on="0"/>
        <pt x="242" y="370" on="0"/>
        <pt x="274" y="404" on="1"/>
        <pt x="306" y="438" on="0"/>
        <pt x="402" y="464" on="0"/>
        <pt x="465" y="464" on="1"/>
        <pt x="528" y="464" on="0"/>
        <pt x="624" y="438" on="0"/>
        <pt x="656" y="404" on="1"/>
        <pt x="688" y="371" on="0"/>
        <pt x="721" y="284" on="0"/>
        <pt x="721" y="239" on="1"/>
        <pt x="721" y="195" on="0"/>
        <pt x="689" y="110" on="0"/>
        <pt x="626" y="42" on="0"/>
        <pt x="529" y="0" on="0"/>
      </contour>
      <contour>
        <pt x="465" y="690" on="1"/>
        <pt x="399" y="690" on="0"/>
        <pt x="303" y="717" on="0"/>
        <pt x="271" y="752" on="1"/>
        <pt x="240" y="785" on="0"/>
        <pt x="209" y="870" on="0"/>
        <pt x="209" y="915" on="1"/>
        <pt x="209" y="960" on="0"/>
        <pt x="242" y="1047" on="0"/>
        <pt x="306" y="1114" on="0"/>
        <pt x="402" y="1156" on="0"/>
        <pt x="465" y="1156" on="1"/>
        <pt x="528" y="1156" on="0"/>
        <pt x="624" y="1114" on="0"/>
        <pt x="688" y="1047" on="0"/>
        <pt x="721" y="960" on="0"/>
        <pt x="721" y="915" on="1"/>
        <pt x="721" y="870" on="0"/>
        <pt x="689" y="787" on="0"/>
        <pt x="657" y="752" on="1"/>
        <pt x="625" y="718" on="0"/>
        <pt x="529" y="690" on="0"/>
      </contour>
    </TTGlyph>
    <TTGlyph name="comma" xMin="98" yMin="-320" xMax="642" yMax="416">
      <contour>
        <pt x="397" y="4" on="1"/>
        <pt x="331" y="-32" on="0"/>
        <pt x="282" y="-32" on="1"/>
        <pt x="243" y="-32" on="0"/>
        <pt x="176" y="2" on="0"/>
        <pt x="126" y="59" on="0"/>
        <pt x="98" y="135" on="0"/>
        <pt x="98" y="176" on="1"/>
        <pt x="98" y="218" on="0"/>
        <pt x="131" y="304" on="0"/>
        <pt x="198" y="373" on="0"/>
        <pt x="299" y="416" on="0"/>
        <pt x="367" y="416" on="1"/>
        <pt x="504" y="416" on="0"/>
        <pt x="642" y="253" on="0"/>
        <pt x="642" y="98" on="1"/>
        <pt x="642" y="-28" on="0"/>
        <pt x="568" y="-191" on="0"/>
        <pt x="449" y="-284" on="0"/>
        <pt x="301" y="-320" on="0"/>
        <pt x="226" y="-320" on="1"/>
        <pt x="130" y="-320" on="1"/>
        <pt x="130" y="-128" on="1"/>
        <pt x="223" y="-128" on="0"/>
        <pt x="330" y="-112" on="0"/>
        <pt x="384" y="-79" on="0"/>
        <pt x="397" y="-29" on="0"/>
      </contour>
    </TTGlyph>
    <TTGlyph name="commaaccent" xMin="85" yMin="-876" xMax="629" yMax="-140">
      <contour>
        <pt x="384" y="-552" on="1"/>
        <pt x="318" y="-588" on="0"/>
        <pt x="269" y="-588" on="1"/>
        <pt x="230" y="-588" on="0"/>
        <pt x="163" y="-554" on="0"/>
        <pt x="113" y="-497" on="0"/>
        <pt x="85" y="-421" on="0"/>
        <pt x="85" y="-380" on="1"/>
        <pt x="85" y="-338" on="0"/>
        <pt x="118" y="-252" on="0"/>
        <pt x="185" y="-183" on="0"/>
        <pt x="286" y="-140" on="0"/>
        <pt x="354" y="-140" on="1"/>
        <pt x="491" y="-140" on="0"/>
        <pt x="629" y="-303" on="0"/>
        <pt x="629" y="-458" on="1"/>
        <pt x="629" y="-584" on="0"/>
        <pt x="555" y="-747" on="0"/>
        <pt x="436" y="-840" on="0"/>
        <pt x="288" y="-876" on="0"/>
        <pt x="213" y="-876" on="1"/>
        <pt x="117" y="-876" on="1"/>
        <pt x="117" y="-684" on="1"/>
        <pt x="210" y="-684" on="0"/>
        <pt x="317" y="-668" on="0"/>
        <pt x="371" y="-635" on="0"/>
        <pt x="384" y="-585" on="0"/>
      </contour>
    </TTGlyph>
    <TTGlyph name="copyright" xMin="257" yMin="-141" xMax="2055" yMax="1541">
      <contour>
        <pt x="1156" y="88" on="1"/>
        <pt x="1260" y="88" on="0"/>
        <pt x="1435" y="136" on="0"/>
        <pt x="1574" y="221" on="0"/>
        <pt x="1679" y="337" on="0"/>
        <pt x="1749" y="473" on="0"/>
        <pt x="1784" y="624" on="0"/>
        <pt x="1784" y="700" on="1"/>
        <pt x="1784" y="776" on="0"/>
        <pt x="1749" y="927" on="0"/>
        <pt x="1679" y="1063" on="0"/>
        <pt x="1574" y="1179" on="0"/>
        <pt x="1435" y="1264" on="0"/>
        <pt x="1260" y="1312" on="0"/>
        <pt x="1156" y="1312" on="1"/>
        <pt x="1051" y="1312" on="0"/>
        <pt x="877" y="1264" on="0"/>
        <pt x="737" y="1179" on="0"/>
        <pt x="633" y="1063" on="0"/>
        <pt x="563" y="927" on="0"/>
        <pt x="528" y="776" on="0"/>
        <pt x="528" y="700" on="1"/>
        <pt x="528" y="623" on="0"/>
        <pt x="563" y="473" on="0"/>
        <pt x="633" y="337" on="0"/>
        <pt x="737" y="221" on="0"/>
        <pt x="877" y="136" on="0"/>
        <pt x="1051" y="88" on="0"/>
      </contour>
      <contour>
        <pt x="1156" y="1541" on="1"/>
        <pt x="1306" y="1541" on="0"/>
        <pt x="1555" y="1475" on="0"/>
        <pt x="1755" y="1358" on="0"/>
        <pt x="1905" y="1198" on="0"/>
        <pt x="2005" y="1011" on="0"/>
        <pt x="2055" y="805" on="0"/>
        <pt x="2055" y="700" on="1"/>
        <pt x="2055" y="595" on="0"/>
        <pt x="2005" y="388" on="0"/>
        <pt x="1905" y="201" on="0"/>
        <pt x="1755" y="42" on="0"/>
        <pt x="1555" y="-75" on="0"/>
        <pt x="1306" y="-141" on="0"/>
        <pt x="1156" y="-141" on="1"/>
        <pt x="1006" y="-141" on="0"/>
        <pt x="756" y="-75" on="0"/>
        <pt x="556" y="42" on="0"/>
        <pt x="407" y="201" on="0"/>
        <pt x="307" y="388" on="0"/>
        <pt x="257" y="595" on="0"/>
        <pt x="257" y="700" on="1"/>
        <pt x="257" y="805" on="0"/>
        <pt x="307" y="1011" on="0"/>
        <pt x="407" y="1198" on="0"/>
        <pt x="556" y="1358" on="0"/>
        <pt x="756" y="1475" on="0"/>
        <pt x="1006" y="1541" on="0"/>
      </contour>
      <contour>
        <pt x="1175" y="238" on="1"/>
        <pt x="1083" y="238" on="0"/>
        <pt x="922" y="298" on="0"/>
        <pt x="802" y="416" on="0"/>
        <pt x="732" y="594" on="0"/>
        <pt x="732" y="713" on="1"/>
        <pt x="732" y="801" on="0"/>
        <pt x="790" y="964" on="0"/>
        <pt x="901" y="1088" on="0"/>
        <pt x="1062" y="1162" on="0"/>
        <pt x="1165" y="1162" on="1"/>
        <pt x="1241" y="1162" on="0"/>
        <pt x="1393" y="1131" on="0"/>
        <pt x="1469" y="1096" on="1"/>
        <pt x="1453" y="864" on="1"/>
        <pt x="1411" y="890" on="0"/>
        <pt x="1301" y="915" on="0"/>
        <pt x="1250" y="915" on="1"/>
        <pt x="1206" y="915" on="0"/>
        <pt x="1132" y="887" on="0"/>
        <pt x="1079" y="833" on="0"/>
        <pt x="1049" y="754" on="0"/>
        <pt x="1049" y="702" on="1"/>
        <pt x="1049" y="596" on="0"/>
        <pt x="1152" y="486" on="0"/>
        <pt x="1243" y="486" on="1"/>
        <pt x="1354" y="486" on="0"/>
        <pt x="1457" y="538" on="1"/>
        <pt x="1483" y="310" on="1"/>
        <pt x="1414" y="275" on="0"/>
        <pt x="1260" y="238" on="0"/>
      </contour>
    </TTGlyph>
    <TTGlyph name="currency" xMin="218" yMin="293" xMax="1061" yMax="1106">
      <contour>
        <pt x="640" y="293" on="1"/>
        <pt x="536" y="293" on="0"/>
        <pt x="378" y="363" on="0"/>
        <pt x="272" y="477" on="0"/>
        <pt x="218" y="623" on="0"/>
        <pt x="218" y="700" on="1"/>
        <pt x="218" y="777" on="0"/>
        <pt x="271" y="923" on="0"/>
        <pt x="377" y="1037" on="0"/>
        <pt x="535" y="1106" on="0"/>
        <pt x="640" y="1106" on="1"/>
        <pt x="744" y="1106" on="0"/>
        <pt x="902" y="1037" on="0"/>
        <pt x="1008" y="923" on="0"/>
        <pt x="1061" y="777" on="0"/>
        <pt x="1061" y="700" on="1"/>
        <pt x="1061" y="623" on="0"/>
        <pt x="1007" y="477" on="0"/>
        <pt x="901" y="363" on="0"/>
        <pt x="743" y="293" on="0"/>
      </contour>
      <contour>
        <pt x="639" y="469" on="1"/>
        <pt x="692" y="469" on="0"/>
        <pt x="774" y="509" on="0"/>
        <pt x="829" y="573" on="0"/>
        <pt x="857" y="656" on="0"/>
        <pt x="857" y="700" on="1"/>
        <pt x="857" y="743" on="0"/>
        <pt x="829" y="826" on="0"/>
        <pt x="774" y="891" on="0"/>
        <pt x="693" y="930" on="0"/>
        <pt x="639" y="930" on="1"/>
        <pt x="585" y="930" on="0"/>
        <pt x="502" y="891" on="0"/>
        <pt x="447" y="826" on="0"/>
        <pt x="419" y="743" on="0"/>
        <pt x="419" y="700" on="1"/>
        <pt x="419" y="656" on="0"/>
        <pt x="447" y="573" on="0"/>
        <pt x="503" y="509" on="0"/>
        <pt x="585" y="469" on="0"/>
      </contour>
    </TTGlyph>
    <TTGlyph name="d" xMin="84" yMin="-29" xMax="1363" yMax="1536">
      <contour>
        <pt x="571" y="-29" on="1"/>
        <pt x="473" y="-29" on="0"/>
        <pt x="296" y="37" on="0"/>
        <pt x="163" y="176" on="0"/>
        <pt x="84" y="390" on="0"/>
        <pt x="84" y="538" on="1"/>
        <pt x="84" y="694" on="0"/>
        <pt x="165" y="911" on="0"/>
        <pt x="297" y="1046" on="0"/>
        <pt x="467" y="1106" on="0"/>
        <pt x="557" y="1106" on="1"/>
        <pt x="614" y="1106" on="0"/>
        <pt x="728" y="1080" on="0"/>
        <pt x="828" y="1033" on="0"/>
        <pt x="908" y="969" on="0"/>
        <pt x="931" y="931" on="1"/>
        <pt x="931" y="1536" on="1"/>
        <pt x="1363" y="1536" on="1"/>
        <pt x="1363" y="0" on="1"/>
        <pt x="931" y="0" on="1"/>
        <pt x="931" y="178" on="1"/>
        <pt x="904" y="129" on="0"/>
        <pt x="826" y="52" on="0"/>
        <pt x="731" y="-1" on="0"/>
        <pt x="625" y="-29" on="0"/>
      </contour>
      <contour>
        <pt x="516" y="537" on="1"/>
        <pt x="516" y="455" on="0"/>
        <pt x="552" y="345" on="0"/>
        <pt x="611" y="278" on="0"/>
        <pt x="686" y="249" on="0"/>
        <pt x="725" y="249" on="1"/>
        <pt x="764" y="249" on="0"/>
        <pt x="838" y="278" on="0"/>
        <pt x="896" y="345" on="0"/>
        <pt x="931" y="456" on="0"/>
        <pt x="931" y="538" on="1"/>
        <pt x="931" y="619" on="0"/>
        <pt x="896" y="730" on="0"/>
        <pt x="838" y="798" on="0"/>
        <pt x="765" y="827" on="0"/>
        <pt x="726" y="827" on="1"/>
        <pt x="687" y="827" on="0"/>
        <pt x="612" y="798" on="0"/>
        <pt x="552" y="730" on="0"/>
        <pt x="516" y="619" on="0"/>
      </contour>
    </TTGlyph>
    <TTGlyph name="dagger" xMin="49" yMin="0" xMax="849" yMax="1414">
      <contour>
        <pt x="49" y="900" on="1"/>
        <pt x="49" y="1156" on="1"/>
        <pt x="249" y="1156" on="1"/>
        <pt x="249" y="1414" on="1"/>
        <pt x="649" y="1414" on="1"/>
        <pt x="649" y="1156" on="1"/>
        <pt x="849" y="1156" on="1"/>
        <pt x="849" y="900" on="1"/>
        <pt x="649" y="900" on="1"/>
        <pt x="649" y="0" on="1"/>
        <pt x="249" y="0" on="1"/>
        <pt x="249" y="900" on="1"/>
      </contour>
    </TTGlyph>
    <TTGlyph name="daggerdbl" xMin="47" yMin="0" xMax="847" yMax="1414">
      <contour>
        <pt x="47" y="320" on="1"/>
        <pt x="47" y="576" on="1"/>
        <pt x="247" y="576" on="1"/>
        <pt x="247" y="851" on="1"/>
        <pt x="47" y="851" on="1"/>
        <pt x="47" y="1107" on="1"/>
        <pt x="247" y="1107" on="1"/>
        <pt x="247" y="1414" on="1"/>
        <pt x="647" y="1414" on="1"/>
        <pt x="647" y="1107" on="1"/>
        <pt x="847" y="1107" on="1"/>
        <pt x="847" y="851" on="1"/>
        <pt x="647" y="851" on="1"/>
        <pt x="647" y="576" on="1"/>
        <pt x="847" y="576" on="1"/>
        <pt x="847" y="320" on="1"/>
        <pt x="647" y="320" on="1"/>
        <pt x="647" y="0" on="1"/>
        <pt x="247" y="0" on="1"/>
        <pt x="247" y="320" on="1"/>
      </contour>
    </TTGlyph>
    <TTGlyph name="dcaron" xMin="84" yMin="-29" xMax="2019" yMax="1536">
      <component glyphName="d" x="0" y="0" flags="0x1004"/>
      <component glyphName="quoteright" x="1358" y="0" flags="0x1004"/>
    </TTGlyph>
    <TTGlyph name="dcroat" xMin="84" yMin="-29" xMax="1519" yMax="1536">
      <contour>
        <pt x="571" y="-29" on="1"/>
        <pt x="473" y="-29" on="0"/>
        <pt x="296" y="37" on="0"/>
        <pt x="163" y="176" on="0"/>
        <pt x="84" y="390" on="0"/>
        <pt x="84" y="538" on="1"/>
        <pt x="84" y="694" on="0"/>
        <pt x="165" y="911" on="0"/>
        <pt x="297" y="1046" on="0"/>
        <pt x="467" y="1106" on="0"/>
        <pt x="557" y="1106" on="1"/>
        <pt x="614" y="1106" on="0"/>
        <pt x="728" y="1080" on="0"/>
        <pt x="828" y="1033" on="0"/>
        <pt x="908" y="969" on="0"/>
        <pt x="931" y="931" on="1"/>
        <pt x="931" y="1221" on="1"/>
        <pt x="689" y="1221" on="1"/>
        <pt x="689" y="1414" on="1"/>
        <pt x="931" y="1414" on="1"/>
        <pt x="931" y="1536" on="1"/>
        <pt x="1363" y="1536" on="1"/>
        <pt x="1363" y="1414" on="1"/>
        <pt x="1519" y="1414" on="1"/>
        <pt x="1519" y="1221" on="1"/>
        <pt x="1363" y="1221" on="1"/>
        <pt x="1363" y="0" on="1"/>
        <pt x="931" y="0" on="1"/>
        <pt x="931" y="178" on="1"/>
        <pt x="904" y="129" on="0"/>
        <pt x="826" y="52" on="0"/>
        <pt x="731" y="-1" on="0"/>
        <pt x="625" y="-29" on="0"/>
      </contour>
      <contour>
        <pt x="516" y="537" on="1"/>
        <pt x="516" y="455" on="0"/>
        <pt x="552" y="345" on="0"/>
        <pt x="611" y="278" on="0"/>
        <pt x="686" y="249" on="0"/>
        <pt x="725" y="249" on="1"/>
        <pt x="764" y="249" on="0"/>
        <pt x="838" y="278" on="0"/>
        <pt x="896" y="345" on="0"/>
        <pt x="931" y="456" on="0"/>
        <pt x="931" y="538" on="1"/>
        <pt x="931" y="619" on="0"/>
        <pt x="896" y="730" on="0"/>
        <pt x="838" y="798" on="0"/>
        <pt x="765" y="827" on="0"/>
        <pt x="726" y="827" on="1"/>
        <pt x="687" y="827" on="0"/>
        <pt x="612" y="798" on="0"/>
        <pt x="552" y="730" on="0"/>
        <pt x="516" y="619" on="0"/>
      </contour>
    </TTGlyph>
    <TTGlyph name="degree" xMin="162" yMin="823" xMax="786" yMax="1426">
      <contour>
        <pt x="473" y="823" on="1"/>
        <pt x="396" y="823" on="0"/>
        <pt x="280" y="875" on="0"/>
        <pt x="202" y="961" on="0"/>
        <pt x="162" y="1069" on="0"/>
        <pt x="162" y="1126" on="1"/>
        <pt x="162" y="1182" on="0"/>
        <pt x="201" y="1290" on="0"/>
        <pt x="279" y="1374" on="0"/>
        <pt x="395" y="1426" on="0"/>
        <pt x="473" y="1426" on="1"/>
        <pt x="551" y="1426" on="0"/>
        <pt x="668" y="1374" on="0"/>
        <pt x="746" y="1290" on="0"/>
        <pt x="786" y="1182" on="0"/>
        <pt x="786" y="1126" on="1"/>
        <pt x="786" y="1069" on="0"/>
        <pt x="746" y="961" on="0"/>
        <pt x="668" y="875" on="0"/>
        <pt x="551" y="823" on="0"/>
      </contour>
      <contour>
        <pt x="472" y="983" on="1"/>
        <pt x="504" y="983" on="0"/>
        <pt x="554" y="1007" on="0"/>
        <pt x="588" y="1048" on="0"/>
        <pt x="606" y="1099" on="0"/>
        <pt x="606" y="1126" on="1"/>
        <pt x="606" y="1153" on="0"/>
        <pt x="589" y="1203" on="0"/>
        <pt x="555" y="1242" on="0"/>
        <pt x="505" y="1266" on="0"/>
        <pt x="472" y="1266" on="1"/>
        <pt x="439" y="1266" on="0"/>
        <pt x="389" y="1242" on="0"/>
        <pt x="354" y="1203" on="0"/>
        <pt x="337" y="1153" on="0"/>
        <pt x="337" y="1126" on="1"/>
        <pt x="337" y="1099" on="0"/>
        <pt x="355" y="1048" on="0"/>
        <pt x="389" y="1007" on="0"/>
        <pt x="440" y="983" on="0"/>
      </contour>
    </TTGlyph>
    <TTGlyph name="dieresis" xMin="178" yMin="1197" xMax="1178" yMax="1600">
      <contour>
        <pt x="386" y="1197" on="1"/>
        <pt x="335" y="1197" on="0"/>
        <pt x="257" y="1232" on="0"/>
        <pt x="204" y="1289" on="0"/>
        <pt x="178" y="1361" on="0"/>
        <pt x="178" y="1399" on="1"/>
        <pt x="178" y="1437" on="0"/>
        <pt x="204" y="1509" on="0"/>
        <pt x="256" y="1566" on="0"/>
        <pt x="334" y="1600" on="0"/>
        <pt x="386" y="1600" on="1"/>
        <pt x="438" y="1600" on="0"/>
        <pt x="516" y="1566" on="0"/>
        <pt x="568" y="1509" on="0"/>
        <pt x="595" y="1437" on="0"/>
        <pt x="595" y="1399" on="1"/>
        <pt x="595" y="1361" on="0"/>
        <pt x="568" y="1289" on="0"/>
        <pt x="516" y="1232" on="0"/>
        <pt x="438" y="1197" on="0"/>
      </contour>
      <contour>
        <pt x="969" y="1197" on="1"/>
        <pt x="918" y="1197" on="0"/>
        <pt x="840" y="1232" on="0"/>
        <pt x="787" y="1289" on="0"/>
        <pt x="761" y="1361" on="0"/>
        <pt x="761" y="1399" on="1"/>
        <pt x="761" y="1437" on="0"/>
        <pt x="787" y="1509" on="0"/>
        <pt x="839" y="1566" on="0"/>
        <pt x="917" y="1600" on="0"/>
        <pt x="969" y="1600" on="1"/>
        <pt x="1021" y="1600" on="0"/>
        <pt x="1099" y="1566" on="0"/>
        <pt x="1151" y="1509" on="0"/>
        <pt x="1178" y="1437" on="0"/>
        <pt x="1178" y="1399" on="1"/>
        <pt x="1178" y="1361" on="0"/>
        <pt x="1151" y="1289" on="0"/>
        <pt x="1099" y="1232" on="0"/>
        <pt x="1021" y="1197" on="0"/>
      </contour>
    </TTGlyph>
    <TTGlyph name="divide" xMin="197" yMin="8" xMax="965" yMax="1120">
      <contour>
        <pt x="581" y="8" on="1"/>
        <pt x="537" y="8" on="0"/>
        <pt x="473" y="36" on="0"/>
        <pt x="431" y="81" on="0"/>
        <pt x="411" y="139" on="0"/>
        <pt x="411" y="168" on="1"/>
        <pt x="411" y="198" on="0"/>
        <pt x="433" y="255" on="0"/>
        <pt x="475" y="300" on="0"/>
        <pt x="539" y="328" on="0"/>
        <pt x="581" y="328" on="1"/>
        <pt x="623" y="328" on="0"/>
        <pt x="687" y="300" on="0"/>
        <pt x="730" y="255" on="0"/>
        <pt x="752" y="198" on="0"/>
        <pt x="752" y="168" on="1"/>
        <pt x="752" y="139" on="0"/>
        <pt x="731" y="81" on="0"/>
        <pt x="688" y="36" on="0"/>
        <pt x="624" y="8" on="0"/>
      </contour>
      <contour>
        <pt x="581" y="800" on="1"/>
        <pt x="537" y="800" on="0"/>
        <pt x="473" y="828" on="0"/>
        <pt x="431" y="874" on="0"/>
        <pt x="411" y="931" on="0"/>
        <pt x="411" y="960" on="1"/>
        <pt x="411" y="990" on="0"/>
        <pt x="433" y="1047" on="0"/>
        <pt x="475" y="1092" on="0"/>
        <pt x="539" y="1120" on="0"/>
        <pt x="581" y="1120" on="1"/>
        <pt x="623" y="1120" on="0"/>
        <pt x="687" y="1092" on="0"/>
        <pt x="730" y="1047" on="0"/>
        <pt x="752" y="990" on="0"/>
        <pt x="752" y="960" on="1"/>
        <pt x="752" y="931" on="0"/>
        <pt x="731" y="874" on="0"/>
        <pt x="688" y="828" on="0"/>
        <pt x="624" y="800" on="0"/>
      </contour>
      <contour>
        <pt x="965" y="704" on="1"/>
        <pt x="965" y="480" on="1"/>
        <pt x="197" y="480" on="1"/>
        <pt x="197" y="704" on="1"/>
      </contour>
    </TTGlyph>
    <TTGlyph name="dollar" xMin="145" yMin="-100" xMax="1245" yMax="1600">
      <contour>
        <pt x="581" y="42" on="1"/>
        <pt x="479" y="51" on="0"/>
        <pt x="272" y="101" on="0"/>
        <pt x="178" y="143" on="1"/>
        <pt x="178" y="475" on="1"/>
        <pt x="226" y="451" on="0"/>
        <pt x="334" y="408" on="0"/>
        <pt x="448" y="377" on="0"/>
        <pt x="564" y="359" on="0"/>
        <pt x="619" y="359" on="1"/>
        <pt x="658" y="359" on="0"/>
        <pt x="729" y="364" on="0"/>
        <pt x="784" y="381" on="0"/>
        <pt x="817" y="413" on="0"/>
        <pt x="817" y="441" on="1"/>
        <pt x="817" y="465" on="0"/>
        <pt x="784" y="509" on="0"/>
        <pt x="715" y="554" on="0"/>
        <pt x="607" y="604" on="0"/>
        <pt x="531" y="633" on="1"/>
        <pt x="488" y="653" on="0"/>
        <pt x="398" y="699" on="0"/>
        <pt x="312" y="756" on="0"/>
        <pt x="236" y="825" on="0"/>
        <pt x="178" y="911" on="0"/>
        <pt x="145" y="1015" on="0"/>
        <pt x="145" y="1079" on="1"/>
        <pt x="145" y="1145" on="0"/>
        <pt x="193" y="1265" on="0"/>
        <pt x="294" y="1362" on="0"/>
        <pt x="450" y="1430" on="0"/>
        <pt x="558" y="1444" on="1"/>
        <pt x="558" y="1600" on="1"/>
        <pt x="796" y="1600" on="1"/>
        <pt x="796" y="1450" on="1"/>
        <pt x="844" y="1447" on="0"/>
        <pt x="948" y="1432" on="0"/>
        <pt x="1052" y="1404" on="0"/>
        <pt x="1149" y="1363" on="0"/>
        <pt x="1190" y="1335" on="1"/>
        <pt x="1158" y="1058" on="1"/>
        <pt x="1117" y="1076" on="0"/>
        <pt x="1028" y="1112" on="0"/>
        <pt x="923" y="1141" on="0"/>
        <pt x="796" y="1159" on="0"/>
        <pt x="718" y="1159" on="1"/>
        <pt x="652" y="1159" on="0"/>
        <pt x="592" y="1118" on="0"/>
        <pt x="592" y="1086" on="1"/>
        <pt x="592" y="1066" on="0"/>
        <pt x="636" y="1024" on="0"/>
        <pt x="705" y="984" on="0"/>
        <pt x="792" y="946" on="0"/>
        <pt x="835" y="930" on="1"/>
        <pt x="874" y="912" on="0"/>
        <pt x="965" y="866" on="0"/>
        <pt x="1056" y="805" on="0"/>
        <pt x="1141" y="727" on="0"/>
        <pt x="1206" y="629" on="0"/>
        <pt x="1245" y="507" on="0"/>
        <pt x="1245" y="433" on="1"/>
        <pt x="1245" y="369" on="0"/>
        <pt x="1195" y="243" on="0"/>
        <pt x="1091" y="137" on="0"/>
        <pt x="930" y="60" on="0"/>
        <pt x="819" y="45" on="1"/>
        <pt x="819" y="-100" on="1"/>
        <pt x="581" y="-100" on="1"/>
      </contour>
    </TTGlyph>
    <TTGlyph name="dotaccent" xMin="228" yMin="0" xMax="785" yMax="473">
      <contour>
        <pt x="505" y="0" on="1"/>
        <pt x="435" y="0" on="0"/>
        <pt x="331" y="39" on="0"/>
        <pt x="262" y="104" on="0"/>
        <pt x="228" y="186" on="0"/>
        <pt x="228" y="230" on="1"/>
        <pt x="228" y="275" on="0"/>
        <pt x="264" y="362" on="0"/>
        <pt x="334" y="431" on="0"/>
        <pt x="438" y="473" on="0"/>
        <pt x="506" y="473" on="1"/>
        <pt x="574" y="473" on="0"/>
        <pt x="678" y="431" on="0"/>
        <pt x="749" y="362" on="0"/>
        <pt x="785" y="276" on="0"/>
        <pt x="785" y="231" on="1"/>
        <pt x="785" y="187" on="0"/>
        <pt x="751" y="104" on="0"/>
        <pt x="681" y="39" on="0"/>
        <pt x="576" y="0" on="0"/>
      </contour>
    </TTGlyph>
    <TTGlyph name="dotaccentcmb" xMin="206" yMin="0" xMax="763" yMax="473">
      <contour>
        <pt x="483" y="0" on="1"/>
        <pt x="413" y="0" on="0"/>
        <pt x="309" y="39" on="0"/>
        <pt x="240" y="104" on="0"/>
        <pt x="206" y="186" on="0"/>
        <pt x="206" y="230" on="1"/>
        <pt x="206" y="275" on="0"/>
        <pt x="242" y="362" on="0"/>
        <pt x="312" y="431" on="0"/>
        <pt x="416" y="473" on="0"/>
        <pt x="484" y="473" on="1"/>
        <pt x="552" y="473" on="0"/>
        <pt x="656" y="431" on="0"/>
        <pt x="727" y="362" on="0"/>
        <pt x="763" y="276" on="0"/>
        <pt x="763" y="231" on="1"/>
        <pt x="763" y="187" on="0"/>
        <pt x="729" y="104" on="0"/>
        <pt x="659" y="39" on="0"/>
        <pt x="554" y="0" on="0"/>
      </contour>
    </TTGlyph>
    <TTGlyph name="dotlessi" xMin="162" yMin="0" xMax="594" yMax="1079">
      <contour>
        <pt x="162" y="1079" on="1"/>
        <pt x="594" y="1079" on="1"/>
        <pt x="594" y="0" on="1"/>
        <pt x="162" y="0" on="1"/>
      </contour>
    </TTGlyph>
    <TTGlyph name="dotlessj" xMin="-83" yMin="-416" xMax="621" yMax="1079">
      <contour>
        <pt x="205" y="-416" on="1"/>
        <pt x="126" y="-416" on="0"/>
        <pt x="-20" y="-407" on="0"/>
        <pt x="-83" y="-384" on="1"/>
        <pt x="-83" y="-97" on="1"/>
        <pt x="-55" y="-106" on="0"/>
        <pt x="-16" y="-118" on="0"/>
        <pt x="16" y="-125" on="0"/>
        <pt x="44" y="-128" on="0"/>
        <pt x="61" y="-128" on="1"/>
        <pt x="103" y="-128" on="0"/>
        <pt x="154" y="-95" on="0"/>
        <pt x="181" y="-41" on="0"/>
        <pt x="189" y="29" on="0"/>
        <pt x="189" y="67" on="1"/>
        <pt x="189" y="1079" on="1"/>
        <pt x="621" y="1079" on="1"/>
        <pt x="621" y="44" on="1"/>
        <pt x="621" y="-88" on="0"/>
        <pt x="554" y="-265" on="0"/>
        <pt x="440" y="-371" on="0"/>
        <pt x="289" y="-416" on="0"/>
      </contour>
    </TTGlyph>
    <TTGlyph name="e" xMin="80" yMin="-29" xMax="1188" yMax="1106">
      <contour>
        <pt x="1156" y="43" on="1"/>
        <pt x="1062" y="12" on="0"/>
        <pt x="844" y="-29" on="0"/>
        <pt x="726" y="-29" on="1"/>
        <pt x="597" y="-29" on="0"/>
        <pt x="363" y="39" on="0"/>
        <pt x="185" y="183" on="0"/>
        <pt x="80" y="404" on="0"/>
        <pt x="80" y="557" on="1"/>
        <pt x="80" y="644" on="0"/>
        <pt x="134" y="793" on="0"/>
        <pt x="227" y="915" on="0"/>
        <pt x="352" y="1009" on="0"/>
        <pt x="495" y="1073" on="0"/>
        <pt x="647" y="1106" on="0"/>
        <pt x="720" y="1106" on="1"/>
        <pt x="835" y="1106" on="0"/>
        <pt x="1011" y="1055" on="0"/>
        <pt x="1128" y="969" on="0"/>
        <pt x="1188" y="855" on="0"/>
        <pt x="1188" y="791" on="1"/>
        <pt x="1188" y="713" on="0"/>
        <pt x="1135" y="603" on="0"/>
        <pt x="1046" y="528" on="0"/>
        <pt x="929" y="485" on="0"/>
        <pt x="799" y="462" on="0"/>
        <pt x="664" y="456" on="0"/>
        <pt x="603" y="456" on="1"/>
        <pt x="582" y="456" on="0"/>
        <pt x="543" y="457" on="0"/>
        <pt x="524" y="457" on="1"/>
        <pt x="532" y="400" on="0"/>
        <pt x="579" y="322" on="0"/>
        <pt x="650" y="273" on="0"/>
        <pt x="743" y="252" on="0"/>
        <pt x="796" y="252" on="1"/>
        <pt x="836" y="252" on="0"/>
        <pt x="927" y="264" on="0"/>
        <pt x="1020" y="285" on="0"/>
        <pt x="1113" y="312" on="0"/>
        <pt x="1156" y="327" on="1"/>
      </contour>
      <contour>
        <pt x="515" y="611" on="1"/>
        <pt x="539" y="612" on="0"/>
        <pt x="614" y="616" on="0"/>
        <pt x="698" y="626" on="0"/>
        <pt x="782" y="644" on="0"/>
        <pt x="850" y="672" on="0"/>
        <pt x="892" y="714" on="0"/>
        <pt x="892" y="744" on="1"/>
        <pt x="892" y="795" on="0"/>
        <pt x="811" y="856" on="0"/>
        <pt x="739" y="856" on="1"/>
        <pt x="706" y="856" on="0"/>
        <pt x="630" y="837" on="0"/>
        <pt x="564" y="783" on="0"/>
        <pt x="518" y="687" on="0"/>
      </contour>
    </TTGlyph>
    <TTGlyph name="eacute" xMin="80" yMin="-29" xMax="1188" yMax="1853">
      <component glyphName="e" x="0" y="0" flags="0x1204"/>
      <component glyphName="acute" x="46" y="0" flags="0x1004"/>
    </TTGlyph>
    <TTGlyph name="ecaron" xMin="80" yMin="-29" xMax="1188" yMax="1792">
      <component glyphName="e" x="0" y="0" flags="0x1204"/>
      <component glyphName="caron" x="76" y="0" flags="0x1004"/>
    </TTGlyph>
    <TTGlyph name="ecircumflex" xMin="80" yMin="-29" xMax="1188" yMax="1792">
      <component glyphName="e" x="0" y="0" flags="0x1204"/>
      <component glyphName="circumflex" x="75" y="0" flags="0x1004"/>
    </TTGlyph>
    <TTGlyph name="edieresis" xMin="80" yMin="-29" xMax="1188" yMax="1600">
      <component glyphName="e" x="0" y="0" flags="0x1204"/>
      <component glyphName="dieresis" x="-27" y="0" flags="0x1004"/>
    </TTGlyph>
    <TTGlyph name="egrave" xMin="80" yMin="-29" xMax="1188" yMax="1853">
      <component glyphName="e" x="0" y="0" flags="0x1204"/>
      <component glyphName="grave" x="46" y="0" flags="0x1004"/>
    </TTGlyph>
    <TTGlyph name="eight" xMin="115" yMin="-29" xMax="1459" yMax="1441">
      <contour>
        <pt x="1363" y="1091" on="1"/>
        <pt x="1363" y="1003" on="0"/>
        <pt x="1247" y="850" on="0"/>
        <pt x="1132" y="802" on="1"/>
        <pt x="1193" y="779" on="0"/>
        <pt x="1311" y="716" on="0"/>
        <pt x="1403" y="631" on="0"/>
        <pt x="1459" y="519" on="0"/>
        <pt x="1459" y="446" on="1"/>
        <pt x="1459" y="388" on="0"/>
        <pt x="1434" y="272" on="0"/>
        <pt x="1374" y="167" on="0"/>
        <pt x="1274" y="76" on="0"/>
        <pt x="1123" y="9" on="0"/>
        <pt x="916" y="-29" on="0"/>
        <pt x="780" y="-29" on="1"/>
        <pt x="616" y="-29" on="0"/>
        <pt x="368" y="39" on="0"/>
        <pt x="200" y="149" on="0"/>
        <pt x="115" y="287" on="0"/>
        <pt x="115" y="358" on="1"/>
        <pt x="115" y="461" on="0"/>
        <pt x="274" y="633" on="0"/>
        <pt x="435" y="679" on="1"/>
        <pt x="387" y="708" on="0"/>
        <pt x="305" y="781" on="0"/>
        <pt x="245" y="873" on="0"/>
        <pt x="211" y="986" on="0"/>
        <pt x="211" y="1055" on="1"/>
        <pt x="211" y="1131" on="0"/>
        <pt x="286" y="1271" on="0"/>
        <pt x="432" y="1378" on="0"/>
        <pt x="647" y="1441" on="0"/>
        <pt x="788" y="1441" on="1"/>
        <pt x="927" y="1441" on="0"/>
        <pt x="1142" y="1380" on="0"/>
        <pt x="1288" y="1281" on="0"/>
        <pt x="1363" y="1155" on="0"/>
      </contour>
      <contour>
        <pt x="730" y="559" on="1"/>
        <pt x="704" y="567" on="0"/>
        <pt x="646" y="585" on="0"/>
        <pt x="615" y="596" on="1"/>
        <pt x="576" y="566" on="0"/>
        <pt x="531" y="494" on="0"/>
        <pt x="531" y="445" on="1"/>
        <pt x="531" y="391" on="0"/>
        <pt x="575" y="318" on="0"/>
        <pt x="646" y="274" on="0"/>
        <pt x="736" y="256" on="0"/>
        <pt x="783" y="256" on="1"/>
        <pt x="826" y="256" on="0"/>
        <pt x="909" y="271" on="0"/>
        <pt x="972" y="310" on="0"/>
        <pt x="1011" y="375" on="0"/>
        <pt x="1011" y="425" on="1"/>
        <pt x="1011" y="450" on="0"/>
        <pt x="968" y="483" on="0"/>
        <pt x="892" y="511" on="0"/>
        <pt x="790" y="539" on="0"/>
      </contour>
      <contour>
        <pt x="788" y="1176" on="1"/>
        <pt x="713" y="1176" on="0"/>
        <pt x="627" y="1119" on="0"/>
        <pt x="627" y="1077" on="1"/>
        <pt x="627" y="1037" on="0"/>
        <pt x="659" y="973" on="0"/>
        <pt x="723" y="921" on="0"/>
        <pt x="819" y="876" on="0"/>
        <pt x="883" y="854" on="1"/>
        <pt x="909" y="886" on="0"/>
        <pt x="947" y="983" on="0"/>
        <pt x="947" y="1037" on="1"/>
        <pt x="947" y="1063" on="0"/>
        <pt x="923" y="1113" on="0"/>
        <pt x="881" y="1152" on="0"/>
        <pt x="822" y="1176" on="0"/>
      </contour>
    </TTGlyph>
    <TTGlyph name="ellipsis" xMin="147" yMin="-27" xMax="2021" yMax="434">
      <contour>
        <pt x="1744" y="-27" on="1"/>
        <pt x="1675" y="-27" on="0"/>
        <pt x="1571" y="11" on="0"/>
        <pt x="1503" y="74" on="0"/>
        <pt x="1469" y="155" on="0"/>
        <pt x="1469" y="197" on="1"/>
        <pt x="1469" y="241" on="0"/>
        <pt x="1505" y="326" on="0"/>
        <pt x="1574" y="393" on="0"/>
        <pt x="1677" y="434" on="0"/>
        <pt x="1745" y="434" on="1"/>
        <pt x="1812" y="434" on="0"/>
        <pt x="1916" y="393" on="0"/>
        <pt x="1985" y="326" on="0"/>
        <pt x="2021" y="241" on="0"/>
        <pt x="2021" y="198" on="1"/>
        <pt x="2021" y="155" on="0"/>
        <pt x="1987" y="74" on="0"/>
        <pt x="1918" y="11" on="0"/>
        <pt x="1814" y="-27" on="0"/>
      </contour>
      <contour>
        <pt x="422" y="-27" on="1"/>
        <pt x="353" y="-27" on="0"/>
        <pt x="249" y="11" on="0"/>
        <pt x="181" y="74" on="0"/>
        <pt x="147" y="155" on="0"/>
        <pt x="147" y="197" on="1"/>
        <pt x="147" y="241" on="0"/>
        <pt x="183" y="326" on="0"/>
        <pt x="252" y="393" on="0"/>
        <pt x="355" y="434" on="0"/>
        <pt x="423" y="434" on="1"/>
        <pt x="490" y="434" on="0"/>
        <pt x="594" y="393" on="0"/>
        <pt x="663" y="326" on="0"/>
        <pt x="699" y="241" on="0"/>
        <pt x="699" y="198" on="1"/>
        <pt x="699" y="155" on="0"/>
        <pt x="665" y="74" on="0"/>
        <pt x="596" y="11" on="0"/>
        <pt x="492" y="-27" on="0"/>
      </contour>
      <contour>
        <pt x="1090" y="-27" on="1"/>
        <pt x="1021" y="-27" on="0"/>
        <pt x="917" y="11" on="0"/>
        <pt x="849" y="74" on="0"/>
        <pt x="815" y="155" on="0"/>
        <pt x="815" y="197" on="1"/>
        <pt x="815" y="241" on="0"/>
        <pt x="851" y="326" on="0"/>
        <pt x="920" y="393" on="0"/>
        <pt x="1023" y="434" on="0"/>
        <pt x="1091" y="434" on="1"/>
        <pt x="1158" y="434" on="0"/>
        <pt x="1262" y="393" on="0"/>
        <pt x="1331" y="326" on="0"/>
        <pt x="1367" y="241" on="0"/>
        <pt x="1367" y="198" on="1"/>
        <pt x="1367" y="155" on="0"/>
        <pt x="1333" y="74" on="0"/>
        <pt x="1264" y="11" on="0"/>
        <pt x="1160" y="-27" on="0"/>
      </contour>
    </TTGlyph>
    <TTGlyph name="emdash" xMin="0" yMin="512" xMax="992" yMax="832">
      <contour>
        <pt x="992" y="832" on="1"/>
        <pt x="992" y="512" on="1"/>
        <pt x="0" y="512" on="1"/>
        <pt x="0" y="832" on="1"/>
      </contour>
    </TTGlyph>
    <TTGlyph name="endash" xMin="0" yMin="512" xMax="800" yMax="832">
      <contour>
        <pt x="800" y="832" on="1"/>
        <pt x="800" y="512" on="1"/>
        <pt x="0" y="512" on="1"/>
        <pt x="0" y="832" on="1"/>
      </contour>
    </TTGlyph>
    <TTGlyph name="eogonek" xMin="80" yMin="-672" xMax="1188" yMax="1106">
      <component glyphName="e" x="0" y="0" flags="0x1204"/>
      <component glyphName="ogonek" x="255" y="0" flags="0x1004"/>
    </TTGlyph>
    <TTGlyph name="equal" xMin="197" yMin="263" xMax="901" yMax="928">
      <contour>
        <pt x="901" y="519" on="1"/>
        <pt x="901" y="263" on="1"/>
        <pt x="197" y="263" on="1"/>
        <pt x="197" y="519" on="1"/>
      </contour>
      <contour>
        <pt x="901" y="928" on="1"/>
        <pt x="901" y="672" on="1"/>
        <pt x="197" y="672" on="1"/>
        <pt x="197" y="928" on="1"/>
      </contour>
    </TTGlyph>
    <TTGlyph name="eth" xMin="80" yMin="-32" xMax="1433" yMax="1441">
      <contour>
        <pt x="761" y="1105" on="1"/>
        <pt x="755" y="1108" on="0"/>
        <pt x="745" y="1112" on="1"/>
        <pt x="737" y="1116" on="0"/>
        <pt x="712" y="1125" on="0"/>
        <pt x="696" y="1133" on="1"/>
        <pt x="650" y="1138" on="0"/>
        <pt x="602" y="1144" on="0"/>
        <pt x="598" y="1144" on="1"/>
        <pt x="524" y="1145" on="0"/>
        <pt x="407" y="1117" on="0"/>
        <pt x="363" y="1107" on="1"/>
        <pt x="318" y="1096" on="0"/>
        <pt x="258" y="1076" on="0"/>
        <pt x="240" y="1070" on="1"/>
        <pt x="208" y="1377" on="1"/>
        <pt x="375" y="1441" on="0"/>
        <pt x="620" y="1441" on="1"/>
        <pt x="795" y="1441" on="0"/>
        <pt x="1030" y="1351" on="0"/>
        <pt x="1102" y="1271" on="1"/>
        <pt x="1351" y="1373" on="1"/>
        <pt x="1433" y="1195" on="1"/>
        <pt x="1195" y="1098" on="1"/>
        <pt x="1227" y="1005" on="0"/>
        <pt x="1264" y="781" on="0"/>
        <pt x="1264" y="663" on="1"/>
        <pt x="1264" y="569" on="0"/>
        <pt x="1244" y="392" on="0"/>
        <pt x="1192" y="238" on="0"/>
        <pt x="1102" y="110" on="0"/>
        <pt x="960" y="18" on="0"/>
        <pt x="762" y="-32" on="0"/>
        <pt x="629" y="-32" on="1"/>
        <pt x="519" y="-32" on="0"/>
        <pt x="352" y="3" on="0"/>
        <pt x="230" y="65" on="0"/>
        <pt x="149" y="149" on="0"/>
        <pt x="100" y="246" on="0"/>
        <pt x="80" y="352" on="0"/>
        <pt x="80" y="406" on="1"/>
        <pt x="80" y="498" on="0"/>
        <pt x="157" y="645" on="0"/>
        <pt x="285" y="747" on="0"/>
        <pt x="451" y="802" on="0"/>
        <pt x="540" y="802" on="1"/>
        <pt x="615" y="802" on="0"/>
        <pt x="773" y="767" on="0"/>
        <pt x="848" y="738" on="1"/>
        <pt x="848" y="757" on="0"/>
        <pt x="842" y="815" on="0"/>
        <pt x="835" y="875" on="0"/>
        <pt x="826" y="927" on="0"/>
        <pt x="823" y="941" on="1"/>
        <pt x="665" y="855" on="1"/>
        <pt x="575" y="991" on="1"/>
      </contour>
      <contour>
        <pt x="656" y="577" on="1"/>
        <pt x="602" y="577" on="0"/>
        <pt x="529" y="550" on="0"/>
        <pt x="484" y="503" on="0"/>
        <pt x="464" y="442" on="0"/>
        <pt x="464" y="409" on="1"/>
        <pt x="464" y="376" on="0"/>
        <pt x="483" y="310" on="0"/>
        <pt x="522" y="257" on="0"/>
        <pt x="582" y="225" on="0"/>
        <pt x="624" y="225" on="1"/>
        <pt x="678" y="225" on="0"/>
        <pt x="761" y="245" on="0"/>
        <pt x="818" y="317" on="0"/>
        <pt x="848" y="457" on="0"/>
        <pt x="848" y="577" on="1"/>
      </contour>
    </TTGlyph>
    <TTGlyph name="exclam" xMin="260" yMin="-29" xMax="773" yMax="1414">
      <contour>
        <pt x="292" y="1414" on="1"/>
        <pt x="740" y="1414" on="1"/>
        <pt x="676" y="512" on="1"/>
        <pt x="356" y="512" on="1"/>
      </contour>
      <contour>
        <pt x="516" y="-29" on="1"/>
        <pt x="451" y="-29" on="0"/>
        <pt x="354" y="5" on="0"/>
        <pt x="291" y="56" on="0"/>
        <pt x="260" y="124" on="0"/>
        <pt x="260" y="159" on="1"/>
        <pt x="260" y="195" on="0"/>
        <pt x="293" y="264" on="0"/>
        <pt x="357" y="319" on="0"/>
        <pt x="453" y="352" on="0"/>
        <pt x="516" y="352" on="1"/>
        <pt x="579" y="352" on="0"/>
        <pt x="675" y="319" on="0"/>
        <pt x="740" y="265" on="0"/>
        <pt x="773" y="196" on="0"/>
        <pt x="773" y="160" on="1"/>
        <pt x="773" y="125" on="0"/>
        <pt x="742" y="56" on="0"/>
        <pt x="678" y="5" on="0"/>
        <pt x="582" y="-29" on="0"/>
      </contour>
    </TTGlyph>
    <TTGlyph name="exclamdown" xMin="260" yMin="0" xMax="773" yMax="1441">
      <contour>
        <pt x="292" y="0" on="1"/>
        <pt x="740" y="0" on="1"/>
        <pt x="676" y="900" on="1"/>
        <pt x="356" y="900" on="1"/>
      </contour>
      <contour>
        <pt x="516" y="1441" on="1"/>
        <pt x="451" y="1441" on="0"/>
        <pt x="354" y="1407" on="0"/>
        <pt x="291" y="1356" on="0"/>
        <pt x="260" y="1288" on="0"/>
        <pt x="260" y="1253" on="1"/>
        <pt x="260" y="1217" on="0"/>
        <pt x="293" y="1148" on="0"/>
        <pt x="357" y="1093" on="0"/>
        <pt x="453" y="1060" on="0"/>
        <pt x="516" y="1060" on="1"/>
        <pt x="579" y="1060" on="0"/>
        <pt x="675" y="1093" on="0"/>
        <pt x="740" y="1147" on="0"/>
        <pt x="773" y="1216" on="0"/>
        <pt x="773" y="1252" on="1"/>
        <pt x="773" y="1287" on="0"/>
        <pt x="742" y="1356" on="0"/>
        <pt x="678" y="1407" on="0"/>
        <pt x="582" y="1441" on="0"/>
      </contour>
    </TTGlyph>
    <TTGlyph name="f" xMin="37" yMin="0" xMax="977" yMax="1568">
      <contour>
        <pt x="641" y="0" on="1"/>
        <pt x="209" y="0" on="1"/>
        <pt x="209" y="827" on="1"/>
        <pt x="37" y="827" on="1"/>
        <pt x="37" y="1079" on="1"/>
        <pt x="207" y="1079" on="1"/>
        <pt x="207" y="1202" on="0"/>
        <pt x="273" y="1385" on="0"/>
        <pt x="395" y="1507" on="0"/>
        <pt x="568" y="1568" on="0"/>
        <pt x="676" y="1568" on="1"/>
        <pt x="764" y="1568" on="0"/>
        <pt x="914" y="1530" on="0"/>
        <pt x="977" y="1504" on="1"/>
        <pt x="945" y="1247" on="1"/>
        <pt x="887" y="1261" on="0"/>
        <pt x="810" y="1280" on="0"/>
        <pt x="774" y="1280" on="1"/>
        <pt x="728" y="1280" on="0"/>
        <pt x="675" y="1246" on="0"/>
        <pt x="648" y="1190" on="0"/>
        <pt x="641" y="1117" on="0"/>
        <pt x="641" y="1079" on="1"/>
        <pt x="943" y="1079" on="1"/>
        <pt x="929" y="1013" on="0"/>
        <pt x="913" y="891" on="0"/>
        <pt x="913" y="827" on="1"/>
        <pt x="641" y="827" on="1"/>
      </contour>
    </TTGlyph>
    <TTGlyph name="ff" xMin="37" yMin="0" xMax="1826" yMax="1568">
      <contour>
        <pt x="641" y="0" on="1"/>
        <pt x="209" y="0" on="1"/>
        <pt x="209" y="827" on="1"/>
        <pt x="37" y="827" on="1"/>
        <pt x="37" y="1079" on="1"/>
        <pt x="207" y="1079" on="1"/>
        <pt x="207" y="1202" on="0"/>
        <pt x="273" y="1385" on="0"/>
        <pt x="395" y="1507" on="0"/>
        <pt x="568" y="1568" on="0"/>
        <pt x="676" y="1568" on="1"/>
        <pt x="764" y="1568" on="0"/>
        <pt x="914" y="1530" on="0"/>
        <pt x="977" y="1504" on="1"/>
        <pt x="945" y="1247" on="1"/>
        <pt x="887" y="1261" on="0"/>
        <pt x="810" y="1280" on="0"/>
        <pt x="774" y="1280" on="1"/>
        <pt x="728" y="1280" on="0"/>
        <pt x="675" y="1246" on="0"/>
        <pt x="648" y="1190" on="0"/>
        <pt x="641" y="1117" on="0"/>
        <pt x="641" y="1079" on="1"/>
        <pt x="1056" y="1079" on="1"/>
        <pt x="1056" y="1202" on="0"/>
        <pt x="1122" y="1385" on="0"/>
        <pt x="1244" y="1507" on="0"/>
        <pt x="1417" y="1568" on="0"/>
        <pt x="1525" y="1568" on="1"/>
        <pt x="1613" y="1568" on="0"/>
        <pt x="1763" y="1530" on="0"/>
        <pt x="1826" y="1504" on="1"/>
        <pt x="1794" y="1247" on="1"/>
        <pt x="1736" y="1261" on="0"/>
        <pt x="1659" y="1280" on="0"/>
        <pt x="1623" y="1280" on="1"/>
        <pt x="1577" y="1280" on="0"/>
        <pt x="1524" y="1246" on="0"/>
        <pt x="1497" y="1190" on="0"/>
        <pt x="1490" y="1117" on="0"/>
        <pt x="1490" y="1079" on="1"/>
        <pt x="1792" y="1079" on="1"/>
        <pt x="1778" y="1013" on="0"/>
        <pt x="1762" y="891" on="0"/>
        <pt x="1762" y="827" on="1"/>
        <pt x="1490" y="827" on="1"/>
        <pt x="1490" y="0" on="1"/>
        <pt x="1058" y="0" on="1"/>
        <pt x="1058" y="827" on="1"/>
        <pt x="641" y="827" on="1"/>
      </contour>
    </TTGlyph>
    <TTGlyph name="ffi" xMin="37" yMin="0" xMax="2401" yMax="1624">
      <contour>
        <pt x="641" y="0" on="1"/>
        <pt x="209" y="0" on="1"/>
        <pt x="209" y="827" on="1"/>
        <pt x="37" y="827" on="1"/>
        <pt x="37" y="1079" on="1"/>
        <pt x="207" y="1079" on="1"/>
        <pt x="207" y="1202" on="0"/>
        <pt x="273" y="1385" on="0"/>
        <pt x="395" y="1507" on="0"/>
        <pt x="568" y="1568" on="0"/>
        <pt x="676" y="1568" on="1"/>
        <pt x="764" y="1568" on="0"/>
        <pt x="914" y="1530" on="0"/>
        <pt x="977" y="1504" on="1"/>
        <pt x="945" y="1247" on="1"/>
        <pt x="887" y="1261" on="0"/>
        <pt x="810" y="1280" on="0"/>
        <pt x="774" y="1280" on="1"/>
        <pt x="728" y="1280" on="0"/>
        <pt x="675" y="1246" on="0"/>
        <pt x="648" y="1190" on="0"/>
        <pt x="641" y="1117" on="0"/>
        <pt x="641" y="1079" on="1"/>
        <pt x="1027" y="1079" on="1"/>
        <pt x="1027" y="1202" on="0"/>
        <pt x="1093" y="1385" on="0"/>
        <pt x="1215" y="1507" on="0"/>
        <pt x="1388" y="1568" on="0"/>
        <pt x="1496" y="1568" on="1"/>
        <pt x="1584" y="1568" on="0"/>
        <pt x="1734" y="1530" on="0"/>
        <pt x="1797" y="1504" on="1"/>
        <pt x="1765" y="1247" on="1"/>
        <pt x="1707" y="1261" on="0"/>
        <pt x="1630" y="1280" on="0"/>
        <pt x="1594" y="1280" on="1"/>
        <pt x="1548" y="1280" on="0"/>
        <pt x="1495" y="1246" on="0"/>
        <pt x="1468" y="1190" on="0"/>
        <pt x="1461" y="1117" on="0"/>
        <pt x="1461" y="1079" on="1"/>
        <pt x="2340" y="1079" on="1"/>
        <pt x="2340" y="0" on="1"/>
        <pt x="1908" y="0" on="1"/>
        <pt x="1908" y="827" on="1"/>
        <pt x="1461" y="827" on="1"/>
        <pt x="1461" y="0" on="1"/>
        <pt x="1029" y="0" on="1"/>
        <pt x="1029" y="827" on="1"/>
        <pt x="641" y="827" on="1"/>
      </contour>
      <contour>
        <pt x="2125" y="1301" on="1"/>
        <pt x="2068" y="1301" on="0"/>
        <pt x="1968" y="1325" on="0"/>
        <pt x="1895" y="1367" on="0"/>
        <pt x="1852" y="1427" on="0"/>
        <pt x="1852" y="1463" on="1"/>
        <pt x="1852" y="1503" on="0"/>
        <pt x="1894" y="1564" on="0"/>
        <pt x="1968" y="1604" on="0"/>
        <pt x="2068" y="1624" on="0"/>
        <pt x="2126" y="1624" on="1"/>
        <pt x="2184" y="1624" on="0"/>
        <pt x="2285" y="1604" on="0"/>
        <pt x="2359" y="1564" on="0"/>
        <pt x="2401" y="1503" on="0"/>
        <pt x="2401" y="1463" on="1"/>
        <pt x="2401" y="1427" on="0"/>
        <pt x="2358" y="1367" on="0"/>
        <pt x="2284" y="1325" on="0"/>
        <pt x="2183" y="1301" on="0"/>
      </contour>
    </TTGlyph>
    <TTGlyph name="ffl" xMin="37" yMin="0" xMax="2352" yMax="1568">
      <contour>
        <pt x="1920" y="1536" on="1"/>
        <pt x="2352" y="1536" on="1"/>
        <pt x="2352" y="0" on="1"/>
        <pt x="1920" y="0" on="1"/>
        <pt x="1920" y="827" on="1"/>
        <pt x="1461" y="827" on="1"/>
        <pt x="1461" y="0" on="1"/>
        <pt x="1029" y="0" on="1"/>
        <pt x="1029" y="827" on="1"/>
        <pt x="641" y="827" on="1"/>
        <pt x="641" y="0" on="1"/>
        <pt x="209" y="0" on="1"/>
        <pt x="209" y="827" on="1"/>
        <pt x="37" y="827" on="1"/>
        <pt x="37" y="1079" on="1"/>
        <pt x="207" y="1079" on="1"/>
        <pt x="207" y="1202" on="0"/>
        <pt x="273" y="1385" on="0"/>
        <pt x="395" y="1507" on="0"/>
        <pt x="568" y="1568" on="0"/>
        <pt x="676" y="1568" on="1"/>
        <pt x="764" y="1568" on="0"/>
        <pt x="914" y="1530" on="0"/>
        <pt x="977" y="1504" on="1"/>
        <pt x="945" y="1247" on="1"/>
        <pt x="887" y="1261" on="0"/>
        <pt x="810" y="1280" on="0"/>
        <pt x="774" y="1280" on="1"/>
        <pt x="728" y="1280" on="0"/>
        <pt x="675" y="1246" on="0"/>
        <pt x="648" y="1190" on="0"/>
        <pt x="641" y="1117" on="0"/>
        <pt x="641" y="1079" on="1"/>
        <pt x="1027" y="1079" on="1"/>
        <pt x="1027" y="1202" on="0"/>
        <pt x="1093" y="1385" on="0"/>
        <pt x="1215" y="1507" on="0"/>
        <pt x="1388" y="1568" on="0"/>
        <pt x="1496" y="1568" on="1"/>
        <pt x="1584" y="1568" on="0"/>
        <pt x="1734" y="1530" on="0"/>
        <pt x="1797" y="1504" on="1"/>
        <pt x="1765" y="1247" on="1"/>
        <pt x="1707" y="1261" on="0"/>
        <pt x="1630" y="1280" on="0"/>
        <pt x="1594" y="1280" on="1"/>
        <pt x="1548" y="1280" on="0"/>
        <pt x="1495" y="1246" on="0"/>
        <pt x="1468" y="1190" on="0"/>
        <pt x="1461" y="1117" on="0"/>
        <pt x="1461" y="1079" on="1"/>
        <pt x="1920" y="1079" on="1"/>
      </contour>
    </TTGlyph>
    <TTGlyph name="fi" xMin="37" yMin="0" xMax="1614" yMax="1624">
      <contour>
        <pt x="641" y="0" on="1"/>
        <pt x="209" y="0" on="1"/>
        <pt x="209" y="827" on="1"/>
        <pt x="37" y="827" on="1"/>
        <pt x="37" y="1079" on="1"/>
        <pt x="207" y="1079" on="1"/>
        <pt x="207" y="1202" on="0"/>
        <pt x="273" y="1385" on="0"/>
        <pt x="395" y="1507" on="0"/>
        <pt x="568" y="1568" on="0"/>
        <pt x="676" y="1568" on="1"/>
        <pt x="764" y="1568" on="0"/>
        <pt x="914" y="1530" on="0"/>
        <pt x="977" y="1504" on="1"/>
        <pt x="945" y="1247" on="1"/>
        <pt x="887" y="1261" on="0"/>
        <pt x="810" y="1280" on="0"/>
        <pt x="774" y="1280" on="1"/>
        <pt x="728" y="1280" on="0"/>
        <pt x="675" y="1246" on="0"/>
        <pt x="648" y="1190" on="0"/>
        <pt x="641" y="1117" on="0"/>
        <pt x="641" y="1079" on="1"/>
        <pt x="1553" y="1079" on="1"/>
        <pt x="1553" y="0" on="1"/>
        <pt x="1121" y="0" on="1"/>
        <pt x="1121" y="827" on="1"/>
        <pt x="641" y="827" on="1"/>
      </contour>
      <contour>
        <pt x="1338" y="1301" on="1"/>
        <pt x="1281" y="1301" on="0"/>
        <pt x="1181" y="1325" on="0"/>
        <pt x="1108" y="1367" on="0"/>
        <pt x="1065" y="1427" on="0"/>
        <pt x="1065" y="1463" on="1"/>
        <pt x="1065" y="1503" on="0"/>
        <pt x="1107" y="1564" on="0"/>
        <pt x="1181" y="1604" on="0"/>
        <pt x="1281" y="1624" on="0"/>
        <pt x="1339" y="1624" on="1"/>
        <pt x="1397" y="1624" on="0"/>
        <pt x="1498" y="1604" on="0"/>
        <pt x="1572" y="1564" on="0"/>
        <pt x="1614" y="1503" on="0"/>
        <pt x="1614" y="1463" on="1"/>
        <pt x="1614" y="1427" on="0"/>
        <pt x="1571" y="1367" on="0"/>
        <pt x="1497" y="1325" on="0"/>
        <pt x="1396" y="1301" on="0"/>
      </contour>
    </TTGlyph>
    <TTGlyph name="five" xMin="143" yMin="-30" xMax="1315" yMax="1414">
      <contour>
        <pt x="175" y="642" on="1"/>
        <pt x="271" y="1414" on="1"/>
        <pt x="1199" y="1414" on="1"/>
        <pt x="1167" y="1122" on="1"/>
        <pt x="591" y="1122" on="1"/>
        <pt x="527" y="832" on="1"/>
        <pt x="561" y="863" on="0"/>
        <pt x="644" y="901" on="0"/>
        <pt x="731" y="922" on="0"/>
        <pt x="815" y="928" on="0"/>
        <pt x="851" y="928" on="1"/>
        <pt x="940" y="928" on="0"/>
        <pt x="1108" y="864" on="0"/>
        <pt x="1237" y="747" on="0"/>
        <pt x="1315" y="582" on="0"/>
        <pt x="1315" y="481" on="1"/>
        <pt x="1315" y="364" on="0"/>
        <pt x="1239" y="175" on="0"/>
        <pt x="1091" y="42" on="0"/>
        <pt x="873" y="-30" on="0"/>
        <pt x="732" y="-30" on="1"/>
        <pt x="586" y="-30" on="0"/>
        <pt x="377" y="36" on="0"/>
        <pt x="237" y="150" on="0"/>
        <pt x="158" y="305" on="0"/>
        <pt x="143" y="395" on="1"/>
        <pt x="559" y="395" on="1"/>
        <pt x="567" y="359" on="0"/>
        <pt x="600" y="307" on="0"/>
        <pt x="643" y="273" on="0"/>
        <pt x="694" y="256" on="0"/>
        <pt x="721" y="256" on="1"/>
        <pt x="756" y="256" on="0"/>
        <pt x="824" y="282" on="0"/>
        <pt x="878" y="333" on="0"/>
        <pt x="911" y="407" on="0"/>
        <pt x="911" y="454" on="1"/>
        <pt x="911" y="492" on="0"/>
        <pt x="891" y="563" on="0"/>
        <pt x="846" y="617" on="0"/>
        <pt x="776" y="650" on="0"/>
        <pt x="727" y="650" on="1"/>
        <pt x="701" y="650" on="0"/>
        <pt x="645" y="640" on="0"/>
        <pt x="590" y="620" on="0"/>
        <pt x="542" y="593" on="0"/>
        <pt x="525" y="576" on="1"/>
      </contour>
    </TTGlyph>
    <TTGlyph name="fl" xMin="37" yMin="0" xMax="1547" yMax="1568">
      <contour>
        <pt x="1115" y="1536" on="1"/>
        <pt x="1547" y="1536" on="1"/>
        <pt x="1547" y="0" on="1"/>
        <pt x="1115" y="0" on="1"/>
        <pt x="1115" y="827" on="1"/>
        <pt x="641" y="827" on="1"/>
        <pt x="641" y="0" on="1"/>
        <pt x="209" y="0" on="1"/>
        <pt x="209" y="827" on="1"/>
        <pt x="37" y="827" on="1"/>
        <pt x="37" y="1079" on="1"/>
        <pt x="207" y="1079" on="1"/>
        <pt x="207" y="1202" on="0"/>
        <pt x="273" y="1385" on="0"/>
        <pt x="395" y="1507" on="0"/>
        <pt x="568" y="1568" on="0"/>
        <pt x="676" y="1568" on="1"/>
        <pt x="764" y="1568" on="0"/>
        <pt x="914" y="1530" on="0"/>
        <pt x="977" y="1504" on="1"/>
        <pt x="945" y="1247" on="1"/>
        <pt x="887" y="1261" on="0"/>
        <pt x="810" y="1280" on="0"/>
        <pt x="774" y="1280" on="1"/>
        <pt x="728" y="1280" on="0"/>
        <pt x="675" y="1246" on="0"/>
        <pt x="648" y="1190" on="0"/>
        <pt x="641" y="1117" on="0"/>
        <pt x="641" y="1079" on="1"/>
        <pt x="1115" y="1079" on="1"/>
      </contour>
    </TTGlyph>
    <TTGlyph name="florin" xMin="6" yMin="-438" xMax="1028" yMax="1749">
      <contour>
        <pt x="690" y="32" on="1"/>
        <pt x="690" y="-101" on="0"/>
        <pt x="617" y="-281" on="0"/>
        <pt x="497" y="-391" on="0"/>
        <pt x="343" y="-438" on="0"/>
        <pt x="262" y="-438" on="1"/>
        <pt x="192" y="-438" on="0"/>
        <pt x="57" y="-410" on="0"/>
        <pt x="6" y="-387" on="1"/>
        <pt x="6" y="-385" on="0"/>
        <pt x="9" y="-343" on="0"/>
        <pt x="14" y="-282" on="0"/>
        <pt x="19" y="-211" on="0"/>
        <pt x="24" y="-149" on="0"/>
        <pt x="27" y="-107" on="0"/>
        <pt x="27" y="-105" on="1"/>
        <pt x="90" y="-127" on="0"/>
        <pt x="132" y="-127" on="1"/>
        <pt x="179" y="-127" on="0"/>
        <pt x="240" y="-96" on="0"/>
        <pt x="276" y="-45" on="0"/>
        <pt x="290" y="21" on="0"/>
        <pt x="290" y="57" on="1"/>
        <pt x="290" y="838" on="1"/>
        <pt x="143" y="838" on="1"/>
        <pt x="143" y="1110" on="1"/>
        <pt x="290" y="1110" on="1"/>
        <pt x="290" y="1301" on="1"/>
        <pt x="290" y="1428" on="0"/>
        <pt x="363" y="1599" on="0"/>
        <pt x="481" y="1704" on="0"/>
        <pt x="633" y="1749" on="0"/>
        <pt x="712" y="1749" on="1"/>
        <pt x="719" y="1749" on="1"/>
        <pt x="807" y="1749" on="0"/>
        <pt x="965" y="1714" on="0"/>
        <pt x="1028" y="1688" on="1"/>
        <pt x="1028" y="1686" on="0"/>
        <pt x="1025" y="1644" on="0"/>
        <pt x="1020" y="1582" on="0"/>
        <pt x="1015" y="1511" on="0"/>
        <pt x="1010" y="1450" on="0"/>
        <pt x="1007" y="1408" on="0"/>
        <pt x="1007" y="1406" on="1"/>
        <pt x="956" y="1421" on="0"/>
        <pt x="874" y="1438" on="0"/>
        <pt x="842" y="1438" on="1"/>
        <pt x="788" y="1438" on="0"/>
        <pt x="727" y="1397" on="0"/>
        <pt x="697" y="1329" on="0"/>
        <pt x="690" y="1241" on="0"/>
        <pt x="690" y="1195" on="1"/>
        <pt x="690" y="1110" on="1"/>
        <pt x="999" y="1110" on="1"/>
        <pt x="989" y="1056" on="0"/>
        <pt x="974" y="923" on="0"/>
        <pt x="974" y="838" on="1"/>
        <pt x="690" y="838" on="1"/>
      </contour>
    </TTGlyph>
    <TTGlyph name="four" xMin="84" yMin="0" xMax="1278" yMax="1414">
      <contour>
        <pt x="1108" y="608" on="1"/>
        <pt x="1278" y="608" on="1"/>
        <pt x="1278" y="288" on="1"/>
        <pt x="1108" y="288" on="1"/>
        <pt x="1108" y="0" on="1"/>
        <pt x="692" y="0" on="1"/>
        <pt x="692" y="288" on="1"/>
        <pt x="84" y="288" on="1"/>
        <pt x="84" y="608" on="1"/>
        <pt x="436" y="1414" on="1"/>
        <pt x="1108" y="1414" on="1"/>
      </contour>
      <contour>
        <pt x="623" y="1120" on="1"/>
        <pt x="428" y="608" on="1"/>
        <pt x="692" y="608" on="1"/>
        <pt x="692" y="1120" on="1"/>
      </contour>
    </TTGlyph>
    <TTGlyph name="foursuperior" xMin="145" yMin="305" xMax="1264" yMax="1414">
      <contour>
        <pt x="1089" y="748" on="1"/>
        <pt x="1264" y="748" on="1"/>
        <pt x="1264" y="509" on="1"/>
        <pt x="1089" y="509" on="1"/>
        <pt x="1089" y="305" on="1"/>
        <pt x="647" y="305" on="1"/>
        <pt x="647" y="509" on="1"/>
        <pt x="145" y="509" on="1"/>
        <pt x="145" y="748" on="1"/>
        <pt x="493" y="1414" on="1"/>
        <pt x="1089" y="1414" on="1"/>
      </contour>
      <contour>
        <pt x="683" y="1195" on="1"/>
        <pt x="442" y="748" on="1"/>
        <pt x="707" y="748" on="1"/>
        <pt x="707" y="1195" on="1"/>
      </contour>
    </TTGlyph>
    <TTGlyph name="fraction" xMin="-200" yMin="0" xMax="741" yMax="1441">
      <contour>
        <pt x="741" y="1441" on="1"/>
        <pt x="217" y="0" on="1"/>
        <pt x="-200" y="0" on="1"/>
        <pt x="299" y="1441" on="1"/>
      </contour>
    </TTGlyph>
    <TTGlyph name="g" xMin="84" yMin="-480" xMax="1335" yMax="1106">
      <contour>
        <pt x="902" y="186" on="1"/>
        <pt x="860" y="98" on="0"/>
        <pt x="684" y="0" on="0"/>
        <pt x="569" y="0" on="1"/>
        <pt x="446" y="0" on="0"/>
        <pt x="263" y="92" on="0"/>
        <pt x="143" y="242" on="0"/>
        <pt x="84" y="436" on="0"/>
        <pt x="84" y="538" on="1"/>
        <pt x="84" y="643" on="0"/>
        <pt x="145" y="846" on="0"/>
        <pt x="264" y="1007" on="0"/>
        <pt x="440" y="1106" on="0"/>
        <pt x="555" y="1106" on="1"/>
        <pt x="629" y="1106" on="0"/>
        <pt x="746" y="1072" on="0"/>
        <pt x="836" y="1009" on="0"/>
        <pt x="902" y="922" on="0"/>
        <pt x="926" y="868" on="1"/>
        <pt x="926" y="877" on="0"/>
        <pt x="922" y="933" on="0"/>
        <pt x="915" y="999" on="0"/>
        <pt x="907" y="1062" on="0"/>
        <pt x="903" y="1079" on="1"/>
        <pt x="1335" y="1079" on="1"/>
        <pt x="1335" y="232" on="1"/>
        <pt x="1335" y="51" on="0"/>
        <pt x="1246" y="-216" on="0"/>
        <pt x="1080" y="-393" on="0"/>
        <pt x="839" y="-480" on="0"/>
        <pt x="688" y="-480" on="1"/>
        <pt x="627" y="-480" on="0"/>
        <pt x="532" y="-474" on="0"/>
        <pt x="446" y="-462" on="0"/>
        <pt x="359" y="-444" on="0"/>
        <pt x="307" y="-432" on="1"/>
        <pt x="337" y="-180" on="1"/>
        <pt x="365" y="-188" on="0"/>
        <pt x="436" y="-202" on="0"/>
        <pt x="513" y="-213" on="0"/>
        <pt x="593" y="-220" on="0"/>
        <pt x="629" y="-220" on="1"/>
        <pt x="715" y="-220" on="0"/>
        <pt x="822" y="-154" on="0"/>
        <pt x="881" y="-42" on="0"/>
        <pt x="902" y="105" on="0"/>
      </contour>
      <contour>
        <pt x="487" y="537" on="1"/>
        <pt x="487" y="455" on="0"/>
        <pt x="523" y="345" on="0"/>
        <pt x="582" y="278" on="0"/>
        <pt x="657" y="249" on="0"/>
        <pt x="696" y="249" on="1"/>
        <pt x="735" y="249" on="0"/>
        <pt x="809" y="278" on="0"/>
        <pt x="867" y="345" on="0"/>
        <pt x="902" y="456" on="0"/>
        <pt x="902" y="538" on="1"/>
        <pt x="902" y="619" on="0"/>
        <pt x="867" y="730" on="0"/>
        <pt x="809" y="798" on="0"/>
        <pt x="736" y="827" on="0"/>
        <pt x="697" y="827" on="1"/>
        <pt x="658" y="827" on="0"/>
        <pt x="583" y="798" on="0"/>
        <pt x="523" y="730" on="0"/>
        <pt x="487" y="619" on="0"/>
      </contour>
    </TTGlyph>
    <TTGlyph name="germandbls" xMin="156" yMin="-50" xMax="1489" yMax="1441">
      <contour>
        <pt x="589" y="0" on="1"/>
        <pt x="157" y="0" on="1"/>
        <pt x="156" y="1008" on="1"/>
        <pt x="156" y="1099" on="0"/>
        <pt x="210" y="1233" on="0"/>
        <pt x="302" y="1330" on="0"/>
        <pt x="424" y="1392" on="0"/>
        <pt x="561" y="1427" on="0"/>
        <pt x="705" y="1441" on="0"/>
        <pt x="773" y="1441" on="1"/>
        <pt x="924" y="1441" on="0"/>
        <pt x="1141" y="1380" on="0"/>
        <pt x="1280" y="1281" on="0"/>
        <pt x="1345" y="1155" on="0"/>
        <pt x="1345" y="1089" on="1"/>
        <pt x="1345" y="1041" on="0"/>
        <pt x="1312" y="943" on="0"/>
        <pt x="1250" y="855" on="0"/>
        <pt x="1160" y="784" on="0"/>
        <pt x="1102" y="762" on="1"/>
        <pt x="1195" y="752" on="0"/>
        <pt x="1339" y="686" on="0"/>
        <pt x="1438" y="589" on="0"/>
        <pt x="1489" y="469" on="0"/>
        <pt x="1489" y="405" on="1"/>
        <pt x="1489" y="323" on="0"/>
        <pt x="1401" y="161" on="0"/>
        <pt x="1216" y="31" on="0"/>
        <pt x="931" y="-50" on="0"/>
        <pt x="735" y="-50" on="1"/>
        <pt x="735" y="200" on="1"/>
        <pt x="817" y="200" on="0"/>
        <pt x="939" y="233" on="0"/>
        <pt x="1021" y="288" on="0"/>
        <pt x="1062" y="358" on="0"/>
        <pt x="1062" y="394" on="1"/>
        <pt x="1062" y="429" on="0"/>
        <pt x="1023" y="497" on="0"/>
        <pt x="945" y="550" on="0"/>
        <pt x="828" y="582" on="0"/>
        <pt x="751" y="582" on="1"/>
        <pt x="751" y="828" on="1"/>
        <pt x="813" y="828" on="0"/>
        <pt x="903" y="862" on="0"/>
        <pt x="961" y="914" on="0"/>
        <pt x="988" y="979" on="0"/>
        <pt x="988" y="1010" on="1"/>
        <pt x="988" y="1088" on="0"/>
        <pt x="901" y="1180" on="0"/>
        <pt x="808" y="1180" on="1"/>
        <pt x="705" y="1180" on="0"/>
        <pt x="590" y="1088" on="0"/>
        <pt x="589" y="1010" on="1"/>
      </contour>
    </TTGlyph>
    <TTGlyph name="grave" xMin="330" yMin="1219" xMax="874" yMax="1853">
      <contour>
        <pt x="586" y="1219" on="1"/>
        <pt x="330" y="1853" on="1"/>
        <pt x="778" y="1853" on="1"/>
        <pt x="874" y="1219" on="1"/>
      </contour>
    </TTGlyph>
    <TTGlyph name="greater" xMin="197" yMin="384" xMax="891" yMax="1280">
      <contour>
        <pt x="891" y="640" on="1"/>
        <pt x="197" y="384" on="1"/>
        <pt x="197" y="704" on="1"/>
        <pt x="709" y="832" on="1"/>
        <pt x="197" y="960" on="1"/>
        <pt x="197" y="1280" on="1"/>
        <pt x="891" y="1024" on="1"/>
      </contour>
    </TTGlyph>
    <TTGlyph name="greaterequal" xMin="197" yMin="0" xMax="891" yMax="1280">
      <contour>
        <pt x="891" y="258" on="1"/>
        <pt x="891" y="0" on="1"/>
        <pt x="197" y="0" on="1"/>
        <pt x="197" y="258" on="1"/>
      </contour>
      <contour>
        <pt x="891" y="640" on="1"/>
        <pt x="197" y="384" on="1"/>
        <pt x="197" y="704" on="1"/>
        <pt x="709" y="832" on="1"/>
        <pt x="197" y="960" on="1"/>
        <pt x="197" y="1280" on="1"/>
        <pt x="891" y="1024" on="1"/>
      </contour>
    </TTGlyph>
    <TTGlyph name="guillemotleft" xMin="93" yMin="250" xMax="1153" yMax="1250">
      <contour>
        <pt x="591" y="250" on="1"/>
        <pt x="93" y="600" on="1"/>
        <pt x="93" y="900" on="1"/>
        <pt x="591" y="1250" on="1"/>
        <pt x="591" y="930" on="1"/>
        <pt x="285" y="750" on="1"/>
        <pt x="591" y="570" on="1"/>
      </contour>
      <contour>
        <pt x="1153" y="250" on="1"/>
        <pt x="655" y="600" on="1"/>
        <pt x="655" y="900" on="1"/>
        <pt x="1153" y="1250" on="1"/>
        <pt x="1153" y="930" on="1"/>
        <pt x="847" y="750" on="1"/>
        <pt x="1153" y="570" on="1"/>
      </contour>
    </TTGlyph>
    <TTGlyph name="guillemotright" xMin="92" yMin="250" xMax="1153" yMax="1250">
      <component glyphName="guillemotleft" x="1246" y="0" scalex="-1.0" scaley="1.0" flags="0x1000"/>
    </TTGlyph>
    <TTGlyph name="guilsinglleft" xMin="143" yMin="200" xMax="743" yMax="1300">
      <contour>
        <pt x="743" y="200" on="1"/>
        <pt x="143" y="600" on="1"/>
        <pt x="143" y="900" on="1"/>
        <pt x="743" y="1300" on="1"/>
        <pt x="743" y="900" on="1"/>
        <pt x="415" y="750" on="1"/>
        <pt x="743" y="600" on="1"/>
      </contour>
    </TTGlyph>
    <TTGlyph name="guilsinglright" xMin="174" yMin="200" xMax="774" yMax="1300">
      <contour>
        <pt x="174" y="600" on="1"/>
        <pt x="502" y="750" on="1"/>
        <pt x="174" y="900" on="1"/>
        <pt x="174" y="1300" on="1"/>
        <pt x="774" y="900" on="1"/>
        <pt x="774" y="600" on="1"/>
        <pt x="174" y="200" on="1"/>
      </contour>
    </TTGlyph>
    <TTGlyph name="h" xMin="156" yMin="0" xMax="1340" yMax="1536">
      <contour>
        <pt x="156" y="1536" on="1"/>
        <pt x="588" y="1536" on="1"/>
        <pt x="588" y="931" on="1"/>
        <pt x="616" y="970" on="0"/>
        <pt x="704" y="1034" on="0"/>
        <pt x="810" y="1081" on="0"/>
        <pt x="928" y="1106" on="0"/>
        <pt x="987" y="1106" on="1"/>
        <pt x="1060" y="1106" on="0"/>
        <pt x="1189" y="1059" on="0"/>
        <pt x="1285" y="955" on="0"/>
        <pt x="1340" y="792" on="0"/>
        <pt x="1340" y="677" on="1"/>
        <pt x="1340" y="0" on="1"/>
        <pt x="908" y="0" on="1"/>
        <pt x="908" y="570" on="1"/>
        <pt x="908" y="645" on="0"/>
        <pt x="883" y="745" on="0"/>
        <pt x="843" y="806" on="0"/>
        <pt x="792" y="831" on="0"/>
        <pt x="766" y="831" on="1"/>
        <pt x="736" y="831" on="0"/>
        <pt x="677" y="808" on="0"/>
        <pt x="628" y="766" on="0"/>
        <pt x="594" y="708" on="0"/>
        <pt x="588" y="673" on="1"/>
        <pt x="588" y="0" on="1"/>
        <pt x="156" y="0" on="1"/>
      </contour>
    </TTGlyph>
    <TTGlyph name="hbar" xMin="0" yMin="0" xMax="1340" yMax="1536">
      <contour>
        <pt x="156" y="1536" on="1"/>
        <pt x="588" y="1536" on="1"/>
        <pt x="588" y="1414" on="1"/>
        <pt x="800" y="1414" on="1"/>
        <pt x="800" y="1221" on="1"/>
        <pt x="588" y="1221" on="1"/>
        <pt x="588" y="931" on="1"/>
        <pt x="616" y="970" on="0"/>
        <pt x="704" y="1034" on="0"/>
        <pt x="810" y="1081" on="0"/>
        <pt x="928" y="1106" on="0"/>
        <pt x="987" y="1106" on="1"/>
        <pt x="1060" y="1106" on="0"/>
        <pt x="1189" y="1059" on="0"/>
        <pt x="1285" y="955" on="0"/>
        <pt x="1340" y="792" on="0"/>
        <pt x="1340" y="677" on="1"/>
        <pt x="1340" y="0" on="1"/>
        <pt x="908" y="0" on="1"/>
        <pt x="908" y="570" on="1"/>
        <pt x="908" y="645" on="0"/>
        <pt x="883" y="745" on="0"/>
        <pt x="843" y="806" on="0"/>
        <pt x="792" y="831" on="0"/>
        <pt x="766" y="831" on="1"/>
        <pt x="736" y="831" on="0"/>
        <pt x="677" y="808" on="0"/>
        <pt x="628" y="766" on="0"/>
        <pt x="594" y="708" on="0"/>
        <pt x="588" y="673" on="1"/>
        <pt x="588" y="0" on="1"/>
        <pt x="156" y="0" on="1"/>
        <pt x="156" y="1221" on="1"/>
        <pt x="0" y="1221" on="1"/>
        <pt x="0" y="1414" on="1"/>
        <pt x="156" y="1414" on="1"/>
      </contour>
    </TTGlyph>
    <TTGlyph name="hungarumlaut" xMin="174" yMin="1248" xMax="1006" yMax="1792">
      <contour>
        <pt x="174" y="1248" on="1"/>
        <pt x="174" y="1792" on="1"/>
        <pt x="558" y="1792" on="1"/>
        <pt x="334" y="1248" on="1"/>
      </contour>
      <contour>
        <pt x="622" y="1248" on="1"/>
        <pt x="622" y="1792" on="1"/>
        <pt x="1006" y="1792" on="1"/>
        <pt x="782" y="1248" on="1"/>
      </contour>
    </TTGlyph>
    <TTGlyph name="hyphen" xMin="100" yMin="512" xMax="900" yMax="832">
      <contour>
        <pt x="900" y="832" on="1"/>
        <pt x="900" y="512" on="1"/>
        <pt x="100" y="512" on="1"/>
        <pt x="100" y="832" on="1"/>
      </contour>
    </TTGlyph>
    <TTGlyph name="i" xMin="106" yMin="0" xMax="655" yMax="1624">
      <contour>
        <pt x="162" y="1079" on="1"/>
        <pt x="594" y="1079" on="1"/>
        <pt x="594" y="0" on="1"/>
        <pt x="162" y="0" on="1"/>
      </contour>
      <contour>
        <pt x="379" y="1301" on="1"/>
        <pt x="322" y="1301" on="0"/>
        <pt x="222" y="1325" on="0"/>
        <pt x="149" y="1367" on="0"/>
        <pt x="106" y="1427" on="0"/>
        <pt x="106" y="1463" on="1"/>
        <pt x="106" y="1503" on="0"/>
        <pt x="148" y="1564" on="0"/>
        <pt x="222" y="1604" on="0"/>
        <pt x="322" y="1624" on="0"/>
        <pt x="380" y="1624" on="1"/>
        <pt x="438" y="1624" on="0"/>
        <pt x="539" y="1604" on="0"/>
        <pt x="613" y="1564" on="0"/>
        <pt x="655" y="1503" on="0"/>
        <pt x="655" y="1463" on="1"/>
        <pt x="655" y="1427" on="0"/>
        <pt x="612" y="1367" on="0"/>
        <pt x="538" y="1325" on="0"/>
        <pt x="437" y="1301" on="0"/>
      </contour>
    </TTGlyph>
    <TTGlyph name="iacute" xMin="65" yMin="0" xMax="609" yMax="1853">
      <component glyphName="dotlessi" x="0" y="0" flags="0x1004"/>
      <component glyphName="acute" x="-265" y="0" flags="0x1004"/>
    </TTGlyph>
    <TTGlyph name="icircumflex" xMin="-113" yMin="0" xMax="787" yMax="1792">
      <component glyphName="dotlessi" x="0" y="0" flags="0x1004"/>
      <component glyphName="circumflex" x="-236" y="0" flags="0x1004"/>
    </TTGlyph>
    <TTGlyph name="idieresis" xMin="-123" yMin="0" xMax="877" yMax="1600">
      <component glyphName="dotlessi" x="0" y="0" flags="0x1004"/>
      <component glyphName="dieresis" x="-301" y="0" flags="0x1004"/>
    </TTGlyph>
    <TTGlyph name="igrave" xMin="65" yMin="0" xMax="609" yMax="1853">
      <component glyphName="dotlessi" x="0" y="0" flags="0x1004"/>
      <component glyphName="grave" x="-265" y="0" flags="0x1004"/>
    </TTGlyph>
    <TTGlyph name="ij" xMin="106" yMin="-416" xMax="1432" yMax="1641">
      <component glyphName="i" x="0" y="0" flags="0x1004"/>
      <component glyphName="j" x="761" y="0" flags="0x1004"/>
    </TTGlyph>
    <TTGlyph name="infinity" xMin="176" yMin="331" xMax="1497" yMax="1112">
      <contour>
        <pt x="779" y="857" on="1"/>
        <pt x="821" y="925" on="0"/>
        <pt x="906" y="1022" on="0"/>
        <pt x="996" y="1083" on="0"/>
        <pt x="1093" y="1112" on="0"/>
        <pt x="1147" y="1112" on="1"/>
        <pt x="1220" y="1112" on="0"/>
        <pt x="1348" y="1058" on="0"/>
        <pt x="1443" y="958" on="0"/>
        <pt x="1497" y="813" on="0"/>
        <pt x="1497" y="722" on="1"/>
        <pt x="1497" y="631" on="0"/>
        <pt x="1444" y="486" on="0"/>
        <pt x="1350" y="385" on="0"/>
        <pt x="1222" y="331" on="0"/>
        <pt x="1147" y="331" on="1"/>
        <pt x="1093" y="331" on="0"/>
        <pt x="997" y="359" on="0"/>
        <pt x="907" y="421" on="0"/>
        <pt x="821" y="517" on="0"/>
        <pt x="779" y="586" on="1"/>
        <pt x="744" y="539" on="0"/>
        <pt x="663" y="467" on="0"/>
        <pt x="578" y="418" on="0"/>
        <pt x="491" y="393" on="0"/>
        <pt x="451" y="393" on="1"/>
        <pt x="394" y="393" on="0"/>
        <pt x="293" y="439" on="0"/>
        <pt x="219" y="524" on="0"/>
        <pt x="176" y="646" on="0"/>
        <pt x="176" y="722" on="1"/>
        <pt x="176" y="798" on="0"/>
        <pt x="219" y="919" on="0"/>
        <pt x="294" y="1004" on="0"/>
        <pt x="394" y="1049" on="0"/>
        <pt x="451" y="1049" on="1"/>
        <pt x="491" y="1049" on="0"/>
        <pt x="578" y="1023" on="0"/>
        <pt x="664" y="974" on="0"/>
        <pt x="745" y="903" on="0"/>
      </contour>
      <contour>
        <pt x="898" y="724" on="1"/>
        <pt x="983" y="593" on="0"/>
        <pt x="1016" y="566" on="1"/>
        <pt x="1068" y="521" on="0"/>
        <pt x="1131" y="521" on="1"/>
        <pt x="1170" y="521" on="0"/>
        <pt x="1229" y="553" on="0"/>
        <pt x="1269" y="609" on="0"/>
        <pt x="1289" y="684" on="0"/>
        <pt x="1289" y="726" on="1"/>
        <pt x="1289" y="773" on="0"/>
        <pt x="1264" y="847" on="0"/>
        <pt x="1222" y="898" on="0"/>
        <pt x="1166" y="924" on="0"/>
        <pt x="1134" y="924" on="1"/>
        <pt x="1108" y="924" on="0"/>
        <pt x="1060" y="911" on="0"/>
        <pt x="1005" y="869" on="0"/>
        <pt x="940" y="790" on="0"/>
      </contour>
      <contour>
        <pt x="664" y="726" on="1"/>
        <pt x="563" y="867" on="0"/>
        <pt x="474" y="867" on="1"/>
        <pt x="451" y="867" on="0"/>
        <pt x="410" y="848" on="0"/>
        <pt x="379" y="812" on="0"/>
        <pt x="361" y="760" on="0"/>
        <pt x="361" y="727" on="1"/>
        <pt x="361" y="658" on="0"/>
        <pt x="426" y="583" on="0"/>
        <pt x="474" y="583" on="1"/>
        <pt x="523" y="583" on="0"/>
        <pt x="610" y="657" on="0"/>
      </contour>
    </TTGlyph>
    <TTGlyph name="integral" xMin="47" yMin="-438" xMax="1069" yMax="1749">
      <contour>
        <pt x="331" y="1301" on="1"/>
        <pt x="331" y="1428" on="0"/>
        <pt x="404" y="1599" on="0"/>
        <pt x="522" y="1704" on="0"/>
        <pt x="674" y="1749" on="0"/>
        <pt x="753" y="1749" on="1"/>
        <pt x="760" y="1749" on="1"/>
        <pt x="848" y="1749" on="0"/>
        <pt x="1006" y="1714" on="0"/>
        <pt x="1069" y="1688" on="1"/>
        <pt x="1069" y="1686" on="0"/>
        <pt x="1066" y="1644" on="0"/>
        <pt x="1061" y="1582" on="0"/>
        <pt x="1056" y="1511" on="0"/>
        <pt x="1051" y="1450" on="0"/>
        <pt x="1048" y="1408" on="0"/>
        <pt x="1048" y="1406" on="1"/>
        <pt x="997" y="1421" on="0"/>
        <pt x="915" y="1438" on="0"/>
        <pt x="883" y="1438" on="1"/>
        <pt x="829" y="1438" on="0"/>
        <pt x="768" y="1397" on="0"/>
        <pt x="738" y="1329" on="0"/>
        <pt x="731" y="1241" on="0"/>
        <pt x="731" y="1195" on="1"/>
        <pt x="731" y="32" on="1"/>
        <pt x="731" y="-101" on="0"/>
        <pt x="658" y="-281" on="0"/>
        <pt x="538" y="-391" on="0"/>
        <pt x="384" y="-438" on="0"/>
        <pt x="303" y="-438" on="1"/>
        <pt x="233" y="-438" on="0"/>
        <pt x="98" y="-410" on="0"/>
        <pt x="47" y="-387" on="1"/>
        <pt x="47" y="-385" on="0"/>
        <pt x="50" y="-343" on="0"/>
        <pt x="55" y="-282" on="0"/>
        <pt x="60" y="-211" on="0"/>
        <pt x="65" y="-149" on="0"/>
        <pt x="68" y="-107" on="0"/>
        <pt x="68" y="-105" on="1"/>
        <pt x="131" y="-127" on="0"/>
        <pt x="173" y="-127" on="1"/>
        <pt x="220" y="-127" on="0"/>
        <pt x="281" y="-96" on="0"/>
        <pt x="317" y="-45" on="0"/>
        <pt x="331" y="21" on="0"/>
        <pt x="331" y="57" on="1"/>
      </contour>
    </TTGlyph>
    <TTGlyph name="itilde" xMin="-191" yMin="0" xMax="865" yMax="1676">
      <component glyphName="dotlessi" x="0" y="0" flags="0x1004"/>
      <component glyphName="tilde" x="-341" y="0" flags="0x1004"/>
    </TTGlyph>
    <TTGlyph name="j" xMin="-83" yMin="-416" xMax="671" yMax="1641">
      <contour>
        <pt x="205" y="-416" on="1"/>
        <pt x="126" y="-416" on="0"/>
        <pt x="-20" y="-407" on="0"/>
        <pt x="-83" y="-384" on="1"/>
        <pt x="-83" y="-97" on="1"/>
        <pt x="-55" y="-106" on="0"/>
        <pt x="-16" y="-118" on="0"/>
        <pt x="16" y="-125" on="0"/>
        <pt x="44" y="-128" on="0"/>
        <pt x="61" y="-128" on="1"/>
        <pt x="103" y="-128" on="0"/>
        <pt x="154" y="-95" on="0"/>
        <pt x="181" y="-41" on="0"/>
        <pt x="189" y="29" on="0"/>
        <pt x="189" y="67" on="1"/>
        <pt x="189" y="1079" on="1"/>
        <pt x="621" y="1079" on="1"/>
        <pt x="621" y="44" on="1"/>
        <pt x="621" y="-88" on="0"/>
        <pt x="554" y="-265" on="0"/>
        <pt x="440" y="-371" on="0"/>
        <pt x="289" y="-416" on="0"/>
      </contour>
      <contour>
        <pt x="395" y="1318" on="1"/>
        <pt x="338" y="1318" on="0"/>
        <pt x="238" y="1342" on="0"/>
        <pt x="165" y="1384" on="0"/>
        <pt x="122" y="1444" on="0"/>
        <pt x="122" y="1480" on="1"/>
        <pt x="122" y="1520" on="0"/>
        <pt x="164" y="1581" on="0"/>
        <pt x="238" y="1621" on="0"/>
        <pt x="338" y="1641" on="0"/>
        <pt x="396" y="1641" on="1"/>
        <pt x="454" y="1641" on="0"/>
        <pt x="555" y="1621" on="0"/>
        <pt x="629" y="1581" on="0"/>
        <pt x="671" y="1520" on="0"/>
        <pt x="671" y="1480" on="1"/>
        <pt x="671" y="1444" on="0"/>
        <pt x="628" y="1384" on="0"/>
        <pt x="554" y="1342" on="0"/>
        <pt x="453" y="1318" on="0"/>
      </contour>
    </TTGlyph>
    <TTGlyph name="jcircumflex" xMin="-83" yMin="-416" xMax="841" yMax="1792">
      <component glyphName="dotlessj" x="0" y="0" flags="0x1204"/>
      <component glyphName="circumflex" x="-182" y="0" flags="0x1004"/>
    </TTGlyph>
    <TTGlyph name="k" xMin="156" yMin="0" xMax="1447" yMax="1536">
      <contour>
        <pt x="984" y="1079" on="1"/>
        <pt x="1427" y="1079" on="1"/>
        <pt x="1016" y="571" on="1"/>
        <pt x="1447" y="0" on="1"/>
        <pt x="947" y="0" on="1"/>
        <pt x="622" y="509" on="1"/>
        <pt x="588" y="474" on="1"/>
        <pt x="588" y="0" on="1"/>
        <pt x="156" y="0" on="1"/>
        <pt x="156" y="1536" on="1"/>
        <pt x="588" y="1536" on="1"/>
        <pt x="588" y="598" on="1"/>
      </contour>
    </TTGlyph>
    <TTGlyph name="kcommaaccent" xMin="156" yMin="-997" xMax="1447" yMax="1536">
      <component glyphName="k" x="0" y="0" flags="0x1204"/>
      <component glyphName="uni0326" x="332" y="0" flags="0x1004"/>
    </TTGlyph>
    <TTGlyph name="kgreenlandic" xMin="156" yMin="0" xMax="1447" yMax="1079">
      <contour>
        <pt x="984" y="1079" on="1"/>
        <pt x="1427" y="1079" on="1"/>
        <pt x="1016" y="551" on="1"/>
        <pt x="1447" y="0" on="1"/>
        <pt x="947" y="0" on="1"/>
        <pt x="622" y="489" on="1"/>
        <pt x="588" y="454" on="1"/>
        <pt x="588" y="0" on="1"/>
        <pt x="156" y="0" on="1"/>
        <pt x="156" y="1079" on="1"/>
        <pt x="588" y="1079" on="1"/>
        <pt x="588" y="578" on="1"/>
      </contour>
    </TTGlyph>
    <TTGlyph name="l" xMin="156" yMin="0" xMax="588" yMax="1536">
      <contour>
        <pt x="156" y="1536" on="1"/>
        <pt x="588" y="1536" on="1"/>
        <pt x="588" y="0" on="1"/>
        <pt x="156" y="0" on="1"/>
      </contour>
    </TTGlyph>
    <TTGlyph name="lacute" xMin="156" yMin="0" xMax="744" yMax="2170">
      <contour>
        <pt x="156" y="1441" on="1"/>
        <pt x="588" y="1441" on="1"/>
        <pt x="588" y="0" on="1"/>
        <pt x="156" y="0" on="1"/>
      </contour>
      <contour>
        <pt x="200" y="1536" on="1"/>
        <pt x="296" y="2170" on="1"/>
        <pt x="744" y="2170" on="1"/>
        <pt x="488" y="1536" on="1"/>
      </contour>
    </TTGlyph>
    <TTGlyph name="lcaron" xMin="156" yMin="0" xMax="1286" yMax="1536">
      <component glyphName="l" x="0" y="0" flags="0x1004"/>
      <component glyphName="quoteright" x="625" y="0" flags="0x1004"/>
    </TTGlyph>
    <TTGlyph name="ldot" xMin="156" yMin="0" xMax="588" yMax="1536">
      <component glyphName="l" x="0" y="0" flags="0x1204"/>
    </TTGlyph>
    <TTGlyph name="less" xMin="197" yMin="384" xMax="901" yMax="1280">
      <contour>
        <pt x="197" y="1024" on="1"/>
        <pt x="901" y="1280" on="1"/>
        <pt x="901" y="960" on="1"/>
        <pt x="389" y="832" on="1"/>
        <pt x="901" y="704" on="1"/>
        <pt x="901" y="384" on="1"/>
        <pt x="197" y="640" on="1"/>
      </contour>
    </TTGlyph>
    <TTGlyph name="lessequal" xMin="197" yMin="-5" xMax="901" yMax="1280">
      <contour>
        <pt x="901" y="258" on="1"/>
        <pt x="901" y="-5" on="1"/>
        <pt x="197" y="-5" on="1"/>
        <pt x="197" y="258" on="1"/>
      </contour>
      <contour>
        <pt x="197" y="1024" on="1"/>
        <pt x="901" y="1280" on="1"/>
        <pt x="901" y="960" on="1"/>
        <pt x="389" y="832" on="1"/>
        <pt x="901" y="704" on="1"/>
        <pt x="901" y="384" on="1"/>
        <pt x="197" y="640" on="1"/>
      </contour>
    </TTGlyph>
    <TTGlyph name="logicalnot" xMin="197" yMin="288" xMax="997" yMax="832">
      <contour>
        <pt x="997" y="832" on="1"/>
        <pt x="997" y="529" on="1"/>
        <pt x="421" y="529" on="1"/>
        <pt x="421" y="288" on="1"/>
        <pt x="197" y="288" on="1"/>
        <pt x="197" y="832" on="1"/>
      </contour>
    </TTGlyph>
    <TTGlyph name="lozenge" xMin="6" yMin="0" xMax="1041" yMax="1404">
      <contour>
        <pt x="446" y="702" on="1"/>
        <pt x="566" y="204" on="1"/>
        <pt x="674" y="702" on="1"/>
        <pt x="566" y="1200" on="1"/>
      </contour>
      <contour>
        <pt x="6" y="702" on="1"/>
        <pt x="252" y="1404" on="1"/>
        <pt x="799" y="1404" on="1"/>
        <pt x="1041" y="702" on="1"/>
        <pt x="799" y="0" on="1"/>
        <pt x="252" y="0" on="1"/>
      </contour>
    </TTGlyph>
    <TTGlyph name="lslash" xMin="30" yMin="0" xMax="730" yMax="1536">
      <contour>
        <pt x="156" y="1536" on="1"/>
        <pt x="588" y="1536" on="1"/>
        <pt x="588" y="1039" on="1"/>
        <pt x="730" y="1100" on="1"/>
        <pt x="730" y="800" on="1"/>
        <pt x="588" y="739" on="1"/>
        <pt x="588" y="0" on="1"/>
        <pt x="156" y="0" on="1"/>
        <pt x="156" y="554" on="1"/>
        <pt x="30" y="500" on="1"/>
        <pt x="30" y="800" on="1"/>
        <pt x="156" y="854" on="1"/>
      </contour>
    </TTGlyph>
    <TTGlyph name="m" xMin="154" yMin="0" xMax="2138" yMax="1106">
      <contour>
        <pt x="154" y="1079" on="1"/>
        <pt x="591" y="1079" on="1"/>
        <pt x="582" y="1050" on="0"/>
        <pt x="570" y="1001" on="0"/>
        <pt x="564" y="953" on="0"/>
        <pt x="561" y="904" on="0"/>
        <pt x="561" y="876" on="1"/>
        <pt x="588" y="921" on="0"/>
        <pt x="674" y="1005" on="0"/>
        <pt x="781" y="1068" on="0"/>
        <pt x="902" y="1106" on="0"/>
        <pt x="964" y="1106" on="1"/>
        <pt x="1013" y="1106" on="0"/>
        <pt x="1108" y="1078" on="0"/>
        <pt x="1194" y="1022" on="0"/>
        <pt x="1266" y="940" on="0"/>
        <pt x="1292" y="885" on="1"/>
        <pt x="1323" y="933" on="0"/>
        <pt x="1422" y="1014" on="0"/>
        <pt x="1542" y="1073" on="0"/>
        <pt x="1677" y="1106" on="0"/>
        <pt x="1744" y="1106" on="1"/>
        <pt x="1852" y="1106" on="0"/>
        <pt x="2003" y="1044" on="0"/>
        <pt x="2096" y="930" on="0"/>
        <pt x="2138" y="770" on="0"/>
        <pt x="2138" y="673" on="1"/>
        <pt x="2138" y="0" on="1"/>
        <pt x="1706" y="0" on="1"/>
        <pt x="1706" y="610" on="1"/>
        <pt x="1706" y="639" on="0"/>
        <pt x="1693" y="714" on="0"/>
        <pt x="1657" y="781" on="0"/>
        <pt x="1594" y="827" on="0"/>
        <pt x="1543" y="827" on="1"/>
        <pt x="1508" y="827" on="0"/>
        <pt x="1446" y="793" on="0"/>
        <pt x="1398" y="737" on="0"/>
        <pt x="1370" y="665" on="0"/>
        <pt x="1370" y="627" on="1"/>
        <pt x="1370" y="0" on="1"/>
        <pt x="938" y="0" on="1"/>
        <pt x="938" y="610" on="1"/>
        <pt x="938" y="651" on="0"/>
        <pt x="923" y="729" on="0"/>
        <pt x="887" y="790" on="0"/>
        <pt x="825" y="827" on="0"/>
        <pt x="778" y="827" on="1"/>
        <pt x="745" y="827" on="0"/>
        <pt x="676" y="802" on="0"/>
        <pt x="621" y="759" on="0"/>
        <pt x="586" y="699" on="0"/>
        <pt x="586" y="664" on="1"/>
        <pt x="586" y="0" on="1"/>
        <pt x="154" y="0" on="1"/>
      </contour>
    </TTGlyph>
    <TTGlyph name="macron" xMin="94" yMin="1300" xMax="894" yMax="1545">
      <contour>
        <pt x="894" y="1545" on="1"/>
        <pt x="894" y="1300" on="1"/>
        <pt x="94" y="1300" on="1"/>
        <pt x="94" y="1545" on="1"/>
      </contour>
    </TTGlyph>
    <TTGlyph name="minus" xMin="197" yMin="529" xMax="997" yMax="847">
      <contour>
        <pt x="997" y="847" on="1"/>
        <pt x="997" y="529" on="1"/>
        <pt x="197" y="529" on="1"/>
        <pt x="197" y="847" on="1"/>
      </contour>
    </TTGlyph>
    <TTGlyph name="mu" xMin="145" yMin="-352" xMax="1361" yMax="1079">
      <contour>
        <pt x="1361" y="0" on="1"/>
        <pt x="930" y="0" on="1"/>
        <pt x="939" y="69" on="1"/>
        <pt x="943" y="101" on="0"/>
        <pt x="949" y="181" on="0"/>
        <pt x="951" y="224" on="1"/>
        <pt x="921" y="165" on="0"/>
        <pt x="830" y="72" on="0"/>
        <pt x="720" y="6" on="0"/>
        <pt x="658" y="-11" on="1"/>
        <pt x="610" y="-25" on="0"/>
        <pt x="562" y="-28" on="1"/>
        <pt x="562" y="-352" on="1"/>
        <pt x="145" y="-352" on="1"/>
        <pt x="145" y="1079" on="1"/>
        <pt x="577" y="1079" on="1"/>
        <pt x="577" y="472" on="1"/>
        <pt x="577" y="410" on="0"/>
        <pt x="600" y="326" on="0"/>
        <pt x="640" y="274" on="0"/>
        <pt x="692" y="251" on="0"/>
        <pt x="721" y="251" on="1"/>
        <pt x="755" y="251" on="0"/>
        <pt x="824" y="279" on="0"/>
        <pt x="881" y="327" on="0"/>
        <pt x="922" y="392" on="0"/>
        <pt x="929" y="429" on="1"/>
        <pt x="929" y="1079" on="1"/>
        <pt x="1361" y="1079" on="1"/>
      </contour>
    </TTGlyph>
    <TTGlyph name="multiply" xMin="231" yMin="277" xMax="1045" yMax="1092">
      <contour>
        <pt x="850" y="684" on="1"/>
        <pt x="1045" y="490" on="1"/>
        <pt x="832" y="277" on="1"/>
        <pt x="638" y="471" on="1"/>
        <pt x="444" y="277" on="1"/>
        <pt x="231" y="490" on="1"/>
        <pt x="425" y="684" on="1"/>
        <pt x="231" y="879" on="1"/>
        <pt x="444" y="1092" on="1"/>
        <pt x="638" y="897" on="1"/>
        <pt x="832" y="1092" on="1"/>
        <pt x="1045" y="879" on="1"/>
      </contour>
    </TTGlyph>
    <TTGlyph name="n" xMin="156" yMin="0" xMax="1427" yMax="1106">
      <contour>
        <pt x="156" y="1079" on="1"/>
        <pt x="588" y="1079" on="1"/>
        <pt x="582" y="1045" on="0"/>
        <pt x="570" y="938" on="0"/>
        <pt x="570" y="881" on="1"/>
        <pt x="604" y="932" on="0"/>
        <pt x="707" y="1015" on="0"/>
        <pt x="831" y="1074" on="0"/>
        <pt x="970" y="1106" on="0"/>
        <pt x="1041" y="1106" on="1"/>
        <pt x="1119" y="1106" on="0"/>
        <pt x="1259" y="1059" on="0"/>
        <pt x="1365" y="957" on="0"/>
        <pt x="1427" y="794" on="0"/>
        <pt x="1427" y="678" on="1"/>
        <pt x="1427" y="0" on="1"/>
        <pt x="995" y="0" on="1"/>
        <pt x="995" y="615" on="1"/>
        <pt x="995" y="677" on="0"/>
        <pt x="969" y="759" on="0"/>
        <pt x="923" y="807" on="0"/>
        <pt x="860" y="827" on="0"/>
        <pt x="823" y="827" on="1"/>
        <pt x="783" y="827" on="0"/>
        <pt x="705" y="800" on="0"/>
        <pt x="641" y="754" on="0"/>
        <pt x="595" y="692" on="0"/>
        <pt x="588" y="657" on="1"/>
        <pt x="588" y="0" on="1"/>
        <pt x="156" y="0" on="1"/>
      </contour>
    </TTGlyph>
    <TTGlyph name="nacute" xMin="156" yMin="0" xMax="1427" yMax="1853">
      <component glyphName="n" x="0" y="0" flags="0x1204"/>
      <component glyphName="acute" x="184" y="0" flags="0x1004"/>
    </TTGlyph>
    <TTGlyph name="ncaron" xMin="156" yMin="0" xMax="1427" yMax="1792">
      <component glyphName="n" x="0" y="0" flags="0x1204"/>
      <component glyphName="caron" x="214" y="0" flags="0x1004"/>
    </TTGlyph>
    <TTGlyph name="nine" xMin="115" yMin="-29" xMax="1299" yMax="1441">
      <contour>
        <pt x="243" y="321" on="1"/>
        <pt x="270" y="311" on="0"/>
        <pt x="341" y="288" on="0"/>
        <pt x="424" y="269" on="0"/>
        <pt x="514" y="256" on="0"/>
        <pt x="559" y="256" on="1"/>
        <pt x="621" y="256" on="0"/>
        <pt x="732" y="282" on="0"/>
        <pt x="819" y="358" on="0"/>
        <pt x="876" y="498" on="0"/>
        <pt x="883" y="612" on="1"/>
        <pt x="846" y="595" on="0"/>
        <pt x="765" y="571" on="0"/>
        <pt x="681" y="555" on="0"/>
        <pt x="600" y="548" on="0"/>
        <pt x="563" y="548" on="1"/>
        <pt x="473" y="548" on="0"/>
        <pt x="311" y="602" on="0"/>
        <pt x="188" y="707" on="0"/>
        <pt x="115" y="863" on="0"/>
        <pt x="115" y="964" on="1"/>
        <pt x="115" y="1023" on="0"/>
        <pt x="134" y="1139" on="0"/>
        <pt x="182" y="1245" on="0"/>
        <pt x="261" y="1336" on="0"/>
        <pt x="380" y="1403" on="0"/>
        <pt x="544" y="1441" on="0"/>
        <pt x="652" y="1441" on="1"/>
        <pt x="788" y="1441" on="0"/>
        <pt x="989" y="1387" on="0"/>
        <pt x="1133" y="1290" on="0"/>
        <pt x="1225" y="1155" on="0"/>
        <pt x="1279" y="993" on="0"/>
        <pt x="1299" y="808" on="0"/>
        <pt x="1299" y="710" on="1"/>
        <pt x="1299" y="552" on="0"/>
        <pt x="1212" y="281" on="0"/>
        <pt x="1039" y="83" on="0"/>
        <pt x="779" y="-29" on="0"/>
        <pt x="606" y="-29" on="1"/>
        <pt x="518" y="-29" on="0"/>
        <pt x="322" y="1" on="0"/>
        <pt x="211" y="36" on="1"/>
      </contour>
      <contour>
        <pt x="883" y="834" on="1"/>
        <pt x="883" y="944" on="0"/>
        <pt x="843" y="1072" on="0"/>
        <pt x="778" y="1138" on="0"/>
        <pt x="694" y="1156" on="0"/>
        <pt x="650" y="1156" on="1"/>
        <pt x="606" y="1156" on="0"/>
        <pt x="538" y="1126" on="0"/>
        <pt x="491" y="1077" on="0"/>
        <pt x="467" y="1014" on="0"/>
        <pt x="467" y="981" on="1"/>
        <pt x="467" y="956" on="0"/>
        <pt x="478" y="893" on="0"/>
        <pt x="519" y="837" on="0"/>
        <pt x="600" y="800" on="0"/>
        <pt x="669" y="800" on="1"/>
        <pt x="711" y="800" on="0"/>
        <pt x="816" y="816" on="0"/>
      </contour>
    </TTGlyph>
    <TTGlyph name="notequal" xMin="197" yMin="0" xMax="1038" yMax="1107">
      <contour>
        <pt x="1038" y="915" on="1"/>
        <pt x="1038" y="672" on="1"/>
        <pt x="780" y="672" on="1"/>
        <pt x="726" y="519" on="1"/>
        <pt x="1038" y="519" on="1"/>
        <pt x="1038" y="263" on="1"/>
        <pt x="636" y="263" on="1"/>
        <pt x="544" y="0" on="1"/>
        <pt x="305" y="0" on="1"/>
        <pt x="395" y="263" on="1"/>
        <pt x="197" y="263" on="1"/>
        <pt x="197" y="519" on="1"/>
        <pt x="483" y="519" on="1"/>
        <pt x="536" y="672" on="1"/>
        <pt x="197" y="672" on="1"/>
        <pt x="197" y="915" on="1"/>
        <pt x="623" y="915" on="1"/>
        <pt x="689" y="1107" on="1"/>
        <pt x="937" y="1107" on="1"/>
        <pt x="870" y="915" on="1"/>
      </contour>
    </TTGlyph>
    <TTGlyph name="ntilde" xMin="156" yMin="0" xMax="1427" yMax="1676">
      <component glyphName="n" x="0" y="0" flags="0x1204"/>
      <component glyphName="tilde" x="108" y="0" flags="0x1004"/>
    </TTGlyph>
    <TTGlyph name="numbersign" xMin="127" yMin="416" xMax="1055" yMax="1473">
      <contour>
        <pt x="242" y="691" on="1"/>
        <pt x="200" y="751" on="0"/>
        <pt x="159" y="888" on="0"/>
        <pt x="159" y="960" on="1"/>
        <pt x="159" y="1026" on="0"/>
        <pt x="195" y="1153" on="0"/>
        <pt x="230" y="1210" on="1"/>
        <pt x="127" y="1319" on="1"/>
        <pt x="287" y="1473" on="1"/>
        <pt x="394" y="1360" on="1"/>
        <pt x="439" y="1383" on="0"/>
        <pt x="546" y="1408" on="0"/>
        <pt x="607" y="1408" on="1"/>
        <pt x="661" y="1408" on="0"/>
        <pt x="755" y="1388" on="0"/>
        <pt x="797" y="1370" on="1"/>
        <pt x="895" y="1473" on="1"/>
        <pt x="1055" y="1319" on="1"/>
        <pt x="970" y="1230" on="1"/>
        <pt x="1012" y="1170" on="0"/>
        <pt x="1055" y="1032" on="0"/>
        <pt x="1055" y="960" on="1"/>
        <pt x="1055" y="882" on="0"/>
        <pt x="1005" y="733" on="0"/>
        <pt x="957" y="672" on="1"/>
        <pt x="1055" y="570" on="1"/>
        <pt x="895" y="416" on="1"/>
        <pt x="776" y="541" on="1"/>
        <pt x="698" y="512" on="0"/>
        <pt x="607" y="512" on="1"/>
        <pt x="552" y="512" on="0"/>
        <pt x="457" y="532" on="0"/>
        <pt x="415" y="550" on="1"/>
        <pt x="287" y="416" on="1"/>
        <pt x="127" y="570" on="1"/>
      </contour>
      <contour>
        <pt x="415" y="960" on="1"/>
        <pt x="415" y="913" on="0"/>
        <pt x="435" y="831" on="0"/>
        <pt x="481" y="771" on="0"/>
        <pt x="554" y="736" on="0"/>
        <pt x="607" y="736" on="1"/>
        <pt x="660" y="736" on="0"/>
        <pt x="734" y="771" on="0"/>
        <pt x="779" y="831" on="0"/>
        <pt x="799" y="913" on="0"/>
        <pt x="799" y="960" on="1"/>
        <pt x="799" y="1007" on="0"/>
        <pt x="779" y="1089" on="0"/>
        <pt x="734" y="1149" on="0"/>
        <pt x="660" y="1184" on="0"/>
        <pt x="607" y="1184" on="1"/>
        <pt x="554" y="1184" on="0"/>
        <pt x="481" y="1149" on="0"/>
        <pt x="435" y="1089" on="0"/>
        <pt x="415" y="1007" on="0"/>
      </contour>
    </TTGlyph>
    <TTGlyph name="o" xMin="80" yMin="-29" xMax="1328" yMax="1106">
      <contour>
        <pt x="704" y="-29" on="1"/>
        <pt x="586" y="-29" on="0"/>
        <pt x="402" y="15" on="0"/>
        <pt x="264" y="93" on="0"/>
        <pt x="167" y="200" on="0"/>
        <pt x="107" y="326" on="0"/>
        <pt x="80" y="466" on="0"/>
        <pt x="80" y="538" on="1"/>
        <pt x="80" y="609" on="0"/>
        <pt x="107" y="748" on="0"/>
        <pt x="167" y="875" on="0"/>
        <pt x="263" y="982" on="0"/>
        <pt x="402" y="1061" on="0"/>
        <pt x="586" y="1106" on="0"/>
        <pt x="704" y="1106" on="1"/>
        <pt x="822" y="1106" on="0"/>
        <pt x="1006" y="1061" on="0"/>
        <pt x="1145" y="982" on="0"/>
        <pt x="1241" y="875" on="0"/>
        <pt x="1301" y="748" on="0"/>
        <pt x="1328" y="609" on="0"/>
        <pt x="1328" y="538" on="1"/>
        <pt x="1328" y="466" on="0"/>
        <pt x="1301" y="326" on="0"/>
        <pt x="1241" y="200" on="0"/>
        <pt x="1144" y="93" on="0"/>
        <pt x="1006" y="15" on="0"/>
        <pt x="822" y="-29" on="0"/>
      </contour>
      <contour>
        <pt x="512" y="538" on="1"/>
        <pt x="512" y="484" on="0"/>
        <pt x="532" y="381" on="0"/>
        <pt x="577" y="300" on="0"/>
        <pt x="650" y="251" on="0"/>
        <pt x="704" y="251" on="1"/>
        <pt x="758" y="251" on="0"/>
        <pt x="831" y="300" on="0"/>
        <pt x="876" y="381" on="0"/>
        <pt x="896" y="484" on="0"/>
        <pt x="896" y="538" on="1"/>
        <pt x="896" y="592" on="0"/>
        <pt x="876" y="695" on="0"/>
        <pt x="831" y="776" on="0"/>
        <pt x="758" y="826" on="0"/>
        <pt x="704" y="826" on="1"/>
        <pt x="650" y="826" on="0"/>
        <pt x="577" y="776" on="0"/>
        <pt x="532" y="695" on="0"/>
        <pt x="512" y="592" on="0"/>
      </contour>
    </TTGlyph>
    <TTGlyph name="oacute" xMin="80" yMin="-29" xMax="1328" yMax="1853">
      <component glyphName="o" x="0" y="0" flags="0x1204"/>
      <component glyphName="acute" x="186" y="0" flags="0x1004"/>
    </TTGlyph>
    <TTGlyph name="ocircumflex" xMin="80" yMin="-29" xMax="1328" yMax="1792">
      <component glyphName="o" x="0" y="0" flags="0x1204"/>
      <component glyphName="circumflex" x="131" y="0" flags="0x1004"/>
    </TTGlyph>
    <TTGlyph name="odieresis" xMin="80" yMin="-29" xMax="1328" yMax="1600">
      <component glyphName="o" x="0" y="0" flags="0x1204"/>
      <component glyphName="dieresis" x="26" y="0" flags="0x1004"/>
    </TTGlyph>
    <TTGlyph name="oe" xMin="80" yMin="-29" xMax="2005" yMax="1106">
      <contour>
        <pt x="704" y="-29" on="1"/>
        <pt x="586" y="-29" on="0"/>
        <pt x="402" y="15" on="0"/>
        <pt x="264" y="93" on="0"/>
        <pt x="167" y="200" on="0"/>
        <pt x="107" y="326" on="0"/>
        <pt x="80" y="466" on="0"/>
        <pt x="80" y="538" on="1"/>
        <pt x="80" y="609" on="0"/>
        <pt x="107" y="748" on="0"/>
        <pt x="167" y="875" on="0"/>
        <pt x="263" y="982" on="0"/>
        <pt x="402" y="1061" on="0"/>
        <pt x="586" y="1106" on="0"/>
        <pt x="704" y="1106" on="1"/>
        <pt x="850" y="1106" on="0"/>
        <pt x="1061" y="1039" on="0"/>
        <pt x="1135" y="982" on="1"/>
        <pt x="1225" y="1043" on="0"/>
        <pt x="1434" y="1106" on="0"/>
        <pt x="1537" y="1106" on="1"/>
        <pt x="1652" y="1106" on="0"/>
        <pt x="1828" y="1055" on="0"/>
        <pt x="1945" y="969" on="0"/>
        <pt x="2005" y="855" on="0"/>
        <pt x="2005" y="791" on="1"/>
        <pt x="2005" y="713" on="0"/>
        <pt x="1952" y="603" on="0"/>
        <pt x="1863" y="528" on="0"/>
        <pt x="1746" y="485" on="0"/>
        <pt x="1616" y="462" on="0"/>
        <pt x="1481" y="456" on="0"/>
        <pt x="1420" y="456" on="1"/>
        <pt x="1399" y="456" on="0"/>
        <pt x="1360" y="457" on="0"/>
        <pt x="1341" y="457" on="1"/>
        <pt x="1349" y="400" on="0"/>
        <pt x="1396" y="322" on="0"/>
        <pt x="1467" y="273" on="0"/>
        <pt x="1560" y="252" on="0"/>
        <pt x="1613" y="252" on="1"/>
        <pt x="1653" y="252" on="0"/>
        <pt x="1744" y="264" on="0"/>
        <pt x="1837" y="285" on="0"/>
        <pt x="1930" y="312" on="0"/>
        <pt x="1973" y="327" on="1"/>
        <pt x="1973" y="43" on="1"/>
        <pt x="1879" y="12" on="0"/>
        <pt x="1661" y="-29" on="0"/>
        <pt x="1543" y="-29" on="1"/>
        <pt x="1425" y="-29" on="0"/>
        <pt x="1211" y="27" on="0"/>
        <pt x="1125" y="86" on="1"/>
        <pt x="1052" y="32" on="0"/>
        <pt x="845" y="-29" on="0"/>
      </contour>
      <contour>
        <pt x="512" y="538" on="1"/>
        <pt x="512" y="484" on="0"/>
        <pt x="532" y="381" on="0"/>
        <pt x="577" y="300" on="0"/>
        <pt x="650" y="251" on="0"/>
        <pt x="704" y="251" on="1"/>
        <pt x="758" y="251" on="0"/>
        <pt x="831" y="300" on="0"/>
        <pt x="876" y="381" on="0"/>
        <pt x="896" y="484" on="0"/>
        <pt x="896" y="538" on="1"/>
        <pt x="896" y="592" on="0"/>
        <pt x="876" y="695" on="0"/>
        <pt x="831" y="776" on="0"/>
        <pt x="758" y="826" on="0"/>
        <pt x="704" y="826" on="1"/>
        <pt x="650" y="826" on="0"/>
        <pt x="577" y="776" on="0"/>
        <pt x="532" y="695" on="0"/>
        <pt x="512" y="592" on="0"/>
      </contour>
      <contour>
        <pt x="1332" y="611" on="1"/>
        <pt x="1356" y="612" on="0"/>
        <pt x="1431" y="616" on="0"/>
        <pt x="1515" y="626" on="0"/>
        <pt x="1599" y="644" on="0"/>
        <pt x="1667" y="672" on="0"/>
        <pt x="1709" y="714" on="0"/>
        <pt x="1709" y="744" on="1"/>
        <pt x="1709" y="795" on="0"/>
        <pt x="1628" y="856" on="0"/>
        <pt x="1556" y="856" on="1"/>
        <pt x="1523" y="856" on="0"/>
        <pt x="1447" y="837" on="0"/>
        <pt x="1381" y="783" on="0"/>
        <pt x="1335" y="687" on="0"/>
      </contour>
    </TTGlyph>
    <TTGlyph name="ogonek" xMin="309" yMin="-672" xMax="901" yMax="95">
      <contour>
        <pt x="789" y="-672" on="1"/>
        <pt x="681" y="-672" on="0"/>
        <pt x="504" y="-613" on="0"/>
        <pt x="378" y="-515" on="0"/>
        <pt x="309" y="-388" on="0"/>
        <pt x="309" y="-320" on="1"/>
        <pt x="309" y="-235" on="0"/>
        <pt x="359" y="-107" on="0"/>
        <pt x="445" y="-15" on="0"/>
        <pt x="561" y="45" on="0"/>
        <pt x="692" y="81" on="0"/>
        <pt x="833" y="95" on="0"/>
        <pt x="901" y="95" on="1"/>
        <pt x="901" y="0" on="1"/>
        <pt x="866" y="-8" on="0"/>
        <pt x="782" y="-38" on="0"/>
        <pt x="710" y="-95" on="0"/>
        <pt x="661" y="-186" on="0"/>
        <pt x="661" y="-256" on="1"/>
        <pt x="661" y="-285" on="0"/>
        <pt x="683" y="-332" on="0"/>
        <pt x="719" y="-366" on="0"/>
        <pt x="765" y="-384" on="0"/>
        <pt x="789" y="-384" on="1"/>
      </contour>
    </TTGlyph>
    <TTGlyph name="ograve" xMin="80" yMin="-29" xMax="1328" yMax="1853">
      <component glyphName="o" x="0" y="0" flags="0x1204"/>
      <component glyphName="grave" x="102" y="0" flags="0x1004"/>
    </TTGlyph>
    <TTGlyph name="ohungarumlaut" xMin="80" yMin="-29" xMax="1328" yMax="1792">
      <component glyphName="o" x="0" y="0" flags="0x1204"/>
      <component glyphName="hungarumlaut" x="114" y="0" flags="0x1004"/>
    </TTGlyph>
    <TTGlyph name="one" xMin="209" yMin="0" xMax="860" yMax="1414">
      <contour>
        <pt x="860" y="0" on="1"/>
        <pt x="433" y="0" on="1"/>
        <pt x="433" y="1021" on="1"/>
        <pt x="209" y="980" on="1"/>
        <pt x="209" y="1254" on="1"/>
        <pt x="276" y="1275" on="0"/>
        <pt x="436" y="1349" on="0"/>
        <pt x="544" y="1414" on="1"/>
        <pt x="860" y="1414" on="1"/>
      </contour>
    </TTGlyph>
    <TTGlyph name="onehalf" xMin="113" yMin="0" xMax="2352" yMax="1441">
      <contour>
        <pt x="1597" y="1441" on="1"/>
        <pt x="1054" y="0" on="1"/>
        <pt x="688" y="0" on="1"/>
        <pt x="1205" y="1441" on="1"/>
      </contour>
      <contour>
        <pt x="661" y="347" on="1"/>
        <pt x="313" y="347" on="1"/>
        <pt x="313" y="1100" on="1"/>
        <pt x="113" y="1059" on="1"/>
        <pt x="113" y="1272" on="1"/>
        <pt x="141" y="1282" on="0"/>
        <pt x="206" y="1309" on="0"/>
        <pt x="283" y="1345" on="0"/>
        <pt x="373" y="1394" on="0"/>
        <pt x="427" y="1426" on="1"/>
        <pt x="661" y="1426" on="1"/>
      </contour>
      <contour>
        <pt x="1932" y="264" on="1"/>
        <pt x="2341" y="264" on="1"/>
        <pt x="2341" y="0" on="1"/>
        <pt x="1626" y="0" on="1"/>
        <pt x="1586" y="266" on="1"/>
        <pt x="1620" y="299" on="0"/>
        <pt x="1709" y="370" on="0"/>
        <pt x="1805" y="444" on="0"/>
        <pt x="1897" y="524" on="0"/>
        <pt x="1970" y="608" on="0"/>
        <pt x="2014" y="698" on="0"/>
        <pt x="2014" y="744" on="1"/>
        <pt x="2014" y="773" on="0"/>
        <pt x="1988" y="813" on="0"/>
        <pt x="1947" y="838" on="0"/>
        <pt x="1896" y="848" on="0"/>
        <pt x="1871" y="848" on="1"/>
        <pt x="1840" y="848" on="0"/>
        <pt x="1777" y="839" on="0"/>
        <pt x="1718" y="826" on="0"/>
        <pt x="1667" y="808" on="0"/>
        <pt x="1650" y="800" on="1"/>
        <pt x="1601" y="1041" on="1"/>
        <pt x="1686" y="1070" on="0"/>
        <pt x="1851" y="1091" on="0"/>
        <pt x="1925" y="1091" on="1"/>
        <pt x="2034" y="1091" on="0"/>
        <pt x="2195" y="1038" on="0"/>
        <pt x="2301" y="950" on="0"/>
        <pt x="2352" y="832" on="0"/>
        <pt x="2352" y="767" on="1"/>
        <pt x="2352" y="696" on="0"/>
        <pt x="2285" y="552" on="0"/>
        <pt x="2170" y="421" on="0"/>
        <pt x="2017" y="307" on="0"/>
      </contour>
    </TTGlyph>
    <TTGlyph name="onequarter" xMin="113" yMin="-54" xMax="2553" yMax="1441">
      <contour>
        <pt x="1587" y="1441" on="1"/>
        <pt x="1044" y="0" on="1"/>
        <pt x="678" y="0" on="1"/>
        <pt x="1195" y="1441" on="1"/>
      </contour>
      <contour>
        <pt x="661" y="347" on="1"/>
        <pt x="313" y="347" on="1"/>
        <pt x="313" y="1100" on="1"/>
        <pt x="113" y="1059" on="1"/>
        <pt x="113" y="1272" on="1"/>
        <pt x="141" y="1282" on="0"/>
        <pt x="206" y="1309" on="0"/>
        <pt x="283" y="1345" on="0"/>
        <pt x="373" y="1394" on="0"/>
        <pt x="427" y="1426" on="1"/>
        <pt x="661" y="1426" on="1"/>
      </contour>
      <contour>
        <pt x="2378" y="389" on="1"/>
        <pt x="2553" y="389" on="1"/>
        <pt x="2553" y="150" on="1"/>
        <pt x="2378" y="150" on="1"/>
        <pt x="2378" y="-54" on="1"/>
        <pt x="1936" y="-54" on="1"/>
        <pt x="1936" y="150" on="1"/>
        <pt x="1434" y="150" on="1"/>
        <pt x="1434" y="389" on="1"/>
        <pt x="1782" y="1055" on="1"/>
        <pt x="2378" y="1055" on="1"/>
      </contour>
      <contour>
        <pt x="1972" y="836" on="1"/>
        <pt x="1731" y="389" on="1"/>
        <pt x="1996" y="389" on="1"/>
        <pt x="1996" y="836" on="1"/>
      </contour>
    </TTGlyph>
    <TTGlyph name="onesuperior" xMin="113" yMin="347" xMax="661" yMax="1426">
      <contour>
        <pt x="661" y="347" on="1"/>
        <pt x="313" y="347" on="1"/>
        <pt x="313" y="1100" on="1"/>
        <pt x="113" y="1059" on="1"/>
        <pt x="113" y="1272" on="1"/>
        <pt x="141" y="1282" on="0"/>
        <pt x="206" y="1309" on="0"/>
        <pt x="283" y="1345" on="0"/>
        <pt x="373" y="1394" on="0"/>
        <pt x="427" y="1426" on="1"/>
        <pt x="661" y="1426" on="1"/>
      </contour>
    </TTGlyph>
    <TTGlyph name="ordfeminine" xMin="74" yMin="331" xMax="901" yMax="1156">
      <contour>
        <pt x="310" y="331" on="1"/>
        <pt x="263" y="331" on="0"/>
        <pt x="178" y="357" on="0"/>
        <pt x="113" y="411" on="0"/>
        <pt x="74" y="493" on="0"/>
        <pt x="74" y="549" on="1"/>
        <pt x="74" y="603" on="0"/>
        <pt x="109" y="682" on="0"/>
        <pt x="168" y="739" on="0"/>
        <pt x="247" y="776" on="0"/>
        <pt x="336" y="797" on="0"/>
        <pt x="430" y="805" on="0"/>
        <pt x="474" y="805" on="1"/>
        <pt x="505" y="805" on="0"/>
        <pt x="562" y="802" on="0"/>
        <pt x="586" y="800" on="1"/>
        <pt x="585" y="846" on="0"/>
        <pt x="553" y="907" on="0"/>
        <pt x="501" y="943" on="0"/>
        <pt x="431" y="957" on="0"/>
        <pt x="392" y="957" on="1"/>
        <pt x="356" y="957" on="0"/>
        <pt x="281" y="947" on="0"/>
        <pt x="209" y="933" on="0"/>
        <pt x="145" y="917" on="0"/>
        <pt x="121" y="911" on="1"/>
        <pt x="121" y="1115" on="1"/>
        <pt x="156" y="1123" on="0"/>
        <pt x="239" y="1138" on="0"/>
        <pt x="327" y="1149" on="0"/>
        <pt x="420" y="1156" on="0"/>
        <pt x="465" y="1156" on="1"/>
        <pt x="549" y="1156" on="0"/>
        <pt x="706" y="1124" on="0"/>
        <pt x="828" y="1043" on="0"/>
        <pt x="901" y="905" on="0"/>
        <pt x="901" y="800" on="1"/>
        <pt x="901" y="352" on="1"/>
        <pt x="601" y="352" on="1"/>
        <pt x="601" y="482" on="1"/>
        <pt x="584" y="447" on="0"/>
        <pt x="521" y="391" on="0"/>
        <pt x="442" y="352" on="0"/>
        <pt x="353" y="331" on="0"/>
      </contour>
      <contour>
        <pt x="433" y="502" on="1"/>
        <pt x="453" y="502" on="0"/>
        <pt x="506" y="524" on="0"/>
        <pt x="553" y="571" on="0"/>
        <pt x="586" y="642" on="0"/>
        <pt x="586" y="692" on="1"/>
        <pt x="562" y="692" on="1"/>
        <pt x="527" y="692" on="0"/>
        <pt x="454" y="677" on="0"/>
        <pt x="393" y="648" on="0"/>
        <pt x="354" y="606" on="0"/>
        <pt x="354" y="578" on="1"/>
        <pt x="354" y="556" on="0"/>
        <pt x="368" y="527" on="0"/>
        <pt x="391" y="509" on="0"/>
        <pt x="419" y="502" on="0"/>
      </contour>
    </TTGlyph>
    <TTGlyph name="ordmasculine" xMin="175" yMin="384" xMax="943" yMax="1120">
      <contour>
        <pt x="559" y="928" on="1"/>
        <pt x="487" y="928" on="0"/>
        <pt x="431" y="836" on="0"/>
        <pt x="431" y="751" on="1"/>
        <pt x="431" y="661" on="0"/>
        <pt x="487" y="576" on="0"/>
        <pt x="559" y="576" on="1"/>
        <pt x="631" y="576" on="0"/>
        <pt x="687" y="661" on="0"/>
        <pt x="687" y="751" on="1"/>
        <pt x="687" y="836" on="0"/>
        <pt x="631" y="928" on="0"/>
      </contour>
      <contour>
        <pt x="559" y="1120" on="1"/>
        <pt x="667" y="1120" on="0"/>
        <pt x="814" y="1056" on="0"/>
        <pt x="904" y="953" on="0"/>
        <pt x="943" y="821" on="0"/>
        <pt x="943" y="752" on="1"/>
        <pt x="943" y="683" on="0"/>
        <pt x="905" y="551" on="0"/>
        <pt x="817" y="447" on="0"/>
        <pt x="675" y="384" on="0"/>
        <pt x="570" y="384" on="1"/>
        <pt x="459" y="384" on="0"/>
        <pt x="307" y="444" on="0"/>
        <pt x="215" y="545" on="0"/>
        <pt x="175" y="678" on="0"/>
        <pt x="175" y="752" on="1"/>
        <pt x="175" y="821" on="0"/>
        <pt x="214" y="953" on="0"/>
        <pt x="304" y="1056" on="0"/>
        <pt x="451" y="1120" on="0"/>
      </contour>
    </TTGlyph>
    <TTGlyph name="oslash" xMin="80" yMin="-215" xMax="1328" yMax="1318">
      <contour>
        <pt x="704" y="-29" on="1"/>
        <pt x="599" y="-29" on="0"/>
        <pt x="515" y="-11" on="1"/>
        <pt x="408" y="-215" on="1"/>
        <pt x="259" y="-142" on="1"/>
        <pt x="354" y="42" on="1"/>
        <pt x="343" y="48" on="0"/>
        <pt x="333" y="54" on="1"/>
        <pt x="264" y="93" on="0"/>
        <pt x="167" y="200" on="0"/>
        <pt x="107" y="326" on="0"/>
        <pt x="80" y="466" on="0"/>
        <pt x="80" y="538" on="1"/>
        <pt x="80" y="609" on="0"/>
        <pt x="107" y="748" on="0"/>
        <pt x="167" y="875" on="0"/>
        <pt x="263" y="982" on="0"/>
        <pt x="402" y="1061" on="0"/>
        <pt x="586" y="1106" on="0"/>
        <pt x="704" y="1106" on="1"/>
        <pt x="808" y="1106" on="0"/>
        <pt x="892" y="1088" on="1"/>
        <pt x="1010" y="1318" on="1"/>
        <pt x="1172" y="1232" on="1"/>
        <pt x="1064" y="1028" on="1"/>
        <pt x="1070" y="1024" on="0"/>
        <pt x="1075" y="1021" on="1"/>
        <pt x="1145" y="982" on="0"/>
        <pt x="1241" y="875" on="0"/>
        <pt x="1301" y="748" on="0"/>
        <pt x="1328" y="609" on="0"/>
        <pt x="1328" y="538" on="1"/>
        <pt x="1328" y="466" on="0"/>
        <pt x="1301" y="326" on="0"/>
        <pt x="1241" y="200" on="0"/>
        <pt x="1144" y="93" on="0"/>
        <pt x="1006" y="15" on="0"/>
        <pt x="822" y="-29" on="0"/>
      </contour>
      <contour>
        <pt x="512" y="538" on="1"/>
        <pt x="512" y="484" on="0"/>
        <pt x="522" y="432" on="1"/>
        <pt x="526" y="410" on="0"/>
        <pt x="532" y="390" on="1"/>
        <pt x="753" y="820" on="1"/>
        <pt x="731" y="826" on="0"/>
        <pt x="704" y="826" on="1"/>
        <pt x="650" y="826" on="0"/>
        <pt x="577" y="776" on="0"/>
        <pt x="532" y="695" on="0"/>
        <pt x="512" y="592" on="0"/>
      </contour>
      <contour>
        <pt x="704" y="251" on="1"/>
        <pt x="758" y="251" on="0"/>
        <pt x="831" y="300" on="0"/>
        <pt x="876" y="381" on="0"/>
        <pt x="896" y="484" on="0"/>
        <pt x="896" y="538" on="1"/>
        <pt x="896" y="592" on="0"/>
        <pt x="886" y="643" on="1"/>
        <pt x="883" y="660" on="0"/>
        <pt x="878" y="675" on="1"/>
        <pt x="657" y="256" on="1"/>
        <pt x="678" y="251" on="0"/>
      </contour>
    </TTGlyph>
    <TTGlyph name="otilde" xMin="80" yMin="-29" xMax="1328" yMax="1676">
      <component glyphName="o" x="0" y="0" flags="0x1204"/>
      <component glyphName="tilde" x="26" y="0" flags="0x1004"/>
    </TTGlyph>
    <TTGlyph name="p" xMin="156" yMin="-432" xMax="1404" yMax="1106">
      <contour>
        <pt x="156" y="1079" on="1"/>
        <pt x="596" y="1079" on="1"/>
        <pt x="579" y="1025" on="0"/>
        <pt x="566" y="932" on="0"/>
        <pt x="566" y="881" on="1"/>
        <pt x="594" y="930" on="0"/>
        <pt x="684" y="1012" on="0"/>
        <pt x="792" y="1072" on="0"/>
        <pt x="911" y="1106" on="0"/>
        <pt x="968" y="1106" on="1"/>
        <pt x="1052" y="1106" on="0"/>
        <pt x="1210" y="1042" on="0"/>
        <pt x="1331" y="908" on="0"/>
        <pt x="1404" y="699" on="0"/>
        <pt x="1404" y="555" on="1"/>
        <pt x="1404" y="393" on="0"/>
        <pt x="1323" y="170" on="0"/>
        <pt x="1193" y="32" on="0"/>
        <pt x="1030" y="-29" on="0"/>
        <pt x="948" y="-29" on="1"/>
        <pt x="889" y="-29" on="0"/>
        <pt x="778" y="-4" on="0"/>
        <pt x="683" y="41" on="0"/>
        <pt x="609" y="102" on="0"/>
        <pt x="588" y="138" on="1"/>
        <pt x="588" y="-432" on="1"/>
        <pt x="156" y="-432" on="1"/>
      </contour>
      <contour>
        <pt x="588" y="537" on="1"/>
        <pt x="588" y="455" on="0"/>
        <pt x="624" y="345" on="0"/>
        <pt x="683" y="278" on="0"/>
        <pt x="758" y="249" on="0"/>
        <pt x="797" y="249" on="1"/>
        <pt x="836" y="249" on="0"/>
        <pt x="910" y="278" on="0"/>
        <pt x="968" y="345" on="0"/>
        <pt x="1003" y="456" on="0"/>
        <pt x="1003" y="538" on="1"/>
        <pt x="1003" y="619" on="0"/>
        <pt x="968" y="730" on="0"/>
        <pt x="910" y="798" on="0"/>
        <pt x="837" y="827" on="0"/>
        <pt x="798" y="827" on="1"/>
        <pt x="759" y="827" on="0"/>
        <pt x="684" y="798" on="0"/>
        <pt x="624" y="730" on="0"/>
        <pt x="588" y="619" on="0"/>
      </contour>
    </TTGlyph>
</ttFont>
